<svg id="layer" xmlns="http://www.w3.org/2000/svg" viewBox="0 0 4.03914 3.79071"><defs><style>.cls-1{fill:#fff;}</style></defs><title>bulle1</title><path class="cls-1" d="M152.20564,144.10708a1.89054,1.89054,0,0,0-2.5486.2155,2.06853,2.06853,0,0,0-.0177,2.6043,1.68156,1.68156,0,0,0,.8904.4967,6.95024,6.95024,0,0,0,1.5863.0624,1.27886,1.27886,0,0,0,1.1101-.912A3.12923,3.12923,0,0,0,152.20564,144.10708Zm.4392,2.0972a.78612.78612,0,0,1-.4156.4563,5.29787,5.29787,0,0,1-1.0272.1514,6.03849,6.03849,0,0,1-1.152-.4333,1.17986,1.17986,0,0,1-.3359-.7884,1.40657,1.40657,0,0,1,.303-.8293,1.55312,1.55312,0,0,1,2.4556.5088A1.13033,1.13033,0,0,1,152.64484,146.20428Z" transform="translate(-149.187 -143.71256)"/></svg>