<svg id="layer" xmlns="http://www.w3.org/2000/svg" viewBox="0 0 2.45762 2.6728"><defs><style>.cls-1{fill:#fff;}</style></defs><title>bulle3</title><path class="cls-1" d="M154.94184,160.84378a1.66485,1.66485,0,0,0-.5634,1.2874,1.15931,1.15931,0,0,0,.5704,1.1009,2.52584,2.52584,0,0,0,.4623.1623,1.3293,1.3293,0,0,0,1.2543-.521,1.05212,1.05212,0,0,0,.1215-.9218C156.605,161.12158,155.57,160.43488,154.94184,160.84378Zm.0965,1.8431a.90707.90707,0,0,1-.2951-.5256.818.818,0,0,1,.2437-.7232.6749.6749,0,0,1,.1337-.1218c.3171-.2293.6044.0381.8932.1744.2311.1098.4061.3587.4301.9207A.9638.9638,0,0,1,155.03834,162.68688Z" transform="translate(-154.37755 -160.72223)"/></svg>