<svg id="layer" xmlns="http://www.w3.org/2000/svg" viewBox="0 0 3.49423 3.55175"><defs><style>.cls-1{fill:#fff;}</style></defs><title>bulle2</title><path class="cls-1" d="M141.08074,135.15858a1.91172,1.91172,0,0,0-1.4004,1.2597c-.3029.6579-.3728,1.6692.3388,2.0544a4.31264,4.31264,0,0,0,.6096.2259c.5389-.1865,1.0772-.3402,1.6028-.573a1.463,1.463,0,0,0,.5152-.5533,1.26185,1.26185,0,0,0,.0226-1.3596A1.641,1.641,0,0,0,141.08074,135.15858Zm1.2378,2.2497a2.28233,2.28233,0,0,1-2.049.5793c-.4361-.0884-.5629-.6076-.3417-1.2176a1.73556,1.73556,0,0,1,.966-1.0229c.43-.2281.8112.2161,1.2233.2536.1373.0122.2557.2842.4881.8554A2.07325,2.07325,0,0,1,142.31854,137.40828Z" transform="translate(-139.46245 -135.14683)"/></svg>