<svg id="layer" xmlns="http://www.w3.org/2000/svg" viewBox="0 0 35.65345 32.28475"><defs><style>.cls-1{fill:#ddc98a;}.cls-2{fill:#66bec6;}.cls-3{fill:#fff;}</style></defs><title>coquillage2</title><path d="M89.4982,144.0466c-.2702-.5858-.3742-1.2514-.6661-1.8235q-1.00245-1.9644-2.1248-3.8668a7.04113,7.04113,0,0,0-1.7709-2.0568c-.7231-.5516-1.4411-1.1099-2.1689-1.6551a13.49064,13.49064,0,0,0-4.1871-2.0332,15.77569,15.77569,0,0,0-6.0039-.8709,3.72323,3.72323,0,0,1-.5196.0003,11.77873,11.77873,0,0,0-4.3392.6613c-.6994.2299-1.4087.4416-2.083.7321a10.8693,10.8693,0,0,0-1.8259.9714,31.43847,31.43847,0,0,0-6.0189,5.3081,22.09787,22.09787,0,0,0-2.5265,3.2914,3.45173,3.45173,0,0,0-.4882,1.8303,22.95574,22.95574,0,0,0,.7339,4.4714,10.67332,10.67332,0,0,0,1.1539,3.0216c1.3044,2.4109,5.0168,5.2557,8.6472,5.1881a5.9273,5.9273,0,0,1,.8487.0983c.5313.9112.9873,1.7999,1.5418,2.6221a8.20986,8.20986,0,0,0,4.7199,3.4469,16.40011,16.40011,0,0,0,6.817.4208,10.62026,10.62026,0,0,0,5.5031-2.4235,9.073,9.073,0,0,0,2.1606-2.5709,2.1224,2.1224,0,0,0,.858-.99,27.8761,27.8761,0,0,0,1.7437-3.897,12.669,12.669,0,0,0,.811-3.3914A11.92562,11.92562,0,0,0,89.4982,144.0466Z" transform="translate(-54.77518 -131.70062)"/><path class="cls-1" d="M85.2846,137.3003a19.96919,19.96919,0,0,1,3.623,6.3222,5.96217,5.96217,0,0,1-.7781.245,16.77553,16.77553,0,0,1-1.6724.2123,14.24132,14.24132,0,0,0-5.9163,1.6769c-.7461-.9155-1.4738-1.8086-2.2335-2.7409a15.75368,15.75368,0,0,1,3.4705-8.4343A19.42894,19.42894,0,0,1,85.2846,137.3003Z" transform="translate(-54.77518 -131.70062)"/><path class="cls-1" d="M71.8076,149.1628a.83553.83553,0,0,1,.1193.9613c-.2042.4232-.3864.857-.5795,1.289-.9411,0-1.8474-.0666-2.7391.0188-.885.0849-1.7554.323-2.7115.5093a4.23225,4.23225,0,0,1,.3488-2.055c.9818-2.7956.9532-2.9846,1.6967-3.504A7.28868,7.28868,0,0,1,71.8076,149.1628Z" transform="translate(-54.77518 -131.70062)"/><path class="cls-1" d="M72.0264,151.4078a2.36486,2.36486,0,0,1,.9844-1.6996,2.75064,2.75064,0,0,1,1.9937,1.3396c-.8908.6527-1.7117,1.2542-2.5889,1.8969A1.83834,1.83834,0,0,1,72.0264,151.4078Z" transform="translate(-54.77518 -131.70062)"/><path class="cls-1" d="M76.4714,151.1058c-.0735-.6843-.1411-1.3141-.2197-2.0466.5165-.5631,1.1271-1.1678,1.6641-1.832.5051-.6249.9326-1.3126,1.3958-1.9751.4918.2738.544.7347.676,1.1201a7.6986,7.6986,0,0,1,.2906,3.9409.6966.6966,0,0,1-.4253.6019A5.46109,5.46109,0,0,1,76.4714,151.1058Z" transform="translate(-54.77518 -131.70062)"/><path class="cls-1" d="M59.5666,138.2255c.2769-.2702.5623-.5336.8604-.78a24.32858,24.32858,0,0,1,3.2156-2.6019c.2184-.1256.4503-.2277.7745-.3899.1081.4943.2107.9067.2874,1.3239a19.06578,19.06578,0,0,0,2.329,6.4213,17.65009,17.65009,0,0,0,1.0612,1.4643c.2016.2692.4199.526.6396.7997a20.53746,20.53746,0,0,0-1.6504,2.0379,20.27966,20.27966,0,0,0-1.1013,2.3669,5.45577,5.45577,0,0,1-1.9417-1.0745,9.92979,9.92979,0,0,1-2.3942-2.8557c-.587-1.202-1.171-2.4088-1.6782-3.6457a19.41436,19.41436,0,0,1-.6368-2.2369A.80411.80411,0,0,1,59.5666,138.2255Z" transform="translate(-54.77518 -131.70062)"/><path class="cls-1" d="M75.188,163.3291a4.50635,4.50635,0,0,1-.2539-.9449,11.88661,11.88661,0,0,1-.0891-3.2207,7.2707,7.2707,0,0,0,.0592-1.4209,6.02933,6.02933,0,0,1,.8686-2.9508c.7915-.2575,1.562-.5081,2.3882-.7767.5343.9552.5969,2.0192,1.0448,2.9404.4521.9299.8166,1.9068,1.3224,2.805.504.8949,1.1357,1.7178,1.7604,2.6448A11.23949,11.23949,0,0,1,75.188,163.3291Z" transform="translate(-54.77518 -131.70062)"/><path class="cls-2" d="M75.3037,151.7488a21.42033,21.42033,0,0,1-.0598,2.5161,2.17431,2.17431,0,0,1-2.2195-.7968A3.04727,3.04727,0,0,1,75.3037,151.7488Z" transform="translate(-54.77518 -131.70062)"/><path class="cls-2" d="M75.2875,148.4164c-.1946-.0886-.3806-.1965-.6432-.3343a14.60623,14.60623,0,0,0-1.5085-5.0467,3.5559,3.5559,0,0,1,2.2956-.2656,4.99635,4.99635,0,0,1,3.3885,1.6581c-.3617,1.8518-1.6687,2.9812-2.9312,4.2222C75.6695,148.5659,75.4739,148.5013,75.2875,148.4164Z" transform="translate(-54.77518 -131.70062)"/><path class="cls-2" d="M73.9468,132.4103a12.43352,12.43352,0,0,1,7.0868,1.9905,26.87494,26.87494,0,0,0-3.3999,8.2565c-1.199-.2137-2.3305-.4154-3.497-.6235a3.96978,3.96978,0,0,1-.553-2.0705A27.04556,27.04556,0,0,1,73.9468,132.4103Z" transform="translate(-54.77518 -131.70062)"/><path class="cls-2" d="M65.2601,156.699a9.17048,9.17048,0,0,1-5.273-1.9074c-.2668-.2206-.5406-.4328-.8155-.6432a8.25906,8.25906,0,0,1-3.0634-4.9709,39.45141,39.45141,0,0,1-.8142-3.9305,3.74972,3.74972,0,0,1,.5549-2.5886,25.89827,25.89827,0,0,1,2.5159-3.1318c.0733-.0839.2175-.1057.4747-.2226.1539.4906.268.859.385,1.2266a22.247,22.247,0,0,0,2.074,4.7455,8.67626,8.67626,0,0,0,3.8153,3.7645,4.57579,4.57579,0,0,1,.5891.3865,2.15494,2.15494,0,0,1-.0111.723,8.61228,8.61228,0,0,0-.0043,4.9886,5.98,5.98,0,0,1,.245,1.4309A2.71293,2.71293,0,0,1,65.2601,156.699Z" transform="translate(-54.77518 -131.70062)"/><path class="cls-2" d="M66.8965,157.6685a12.9309,12.9309,0,0,1-1.0488-4.9059,8.15961,8.15961,0,0,1,5.4366-.8751c.3515.6536.6932,1.2891,1.0516,1.9555-.7854.8922-1.6313,1.7521-2.3555,2.7046-.6963.9156-1.2666,1.9271-1.9311,2.9568A3.59385,3.59385,0,0,1,66.8965,157.6685Z" transform="translate(-54.77518 -131.70062)"/><path class="cls-2" d="M87.3123,157.8183a5.013,5.013,0,0,0-.4384.6833,4.54,4.54,0,0,0-.7858.9684,10.94309,10.94309,0,0,1-2.5903,2.3294c-.1784.1085-.3721.1917-.5998.3076a11.83607,11.83607,0,0,1-2.0881-2.8251,22.26088,22.26088,0,0,1-1.9226-4.7979,1.18867,1.18867,0,0,1,.3643-1.3839,5.49853,5.49853,0,0,0,.7611-1.0329c.1451-.2056.2838-.4157.4106-.6022a1.5032,1.5032,0,0,1,.9978.6427,4.21588,4.21588,0,0,0,1.8295,1.18c1.1921.3781,2.3834.7593,3.5707,1.1524a3.99238,3.99238,0,0,1,1.6931.6896A8.43189,8.43189,0,0,1,87.3123,157.8183Z" transform="translate(-54.77518 -131.70062)"/><path class="cls-3" d="M68.4537,145.8927a6.4599,6.4599,0,0,1,3.9783-2.6704,3.01425,3.01425,0,0,1,.9032,1.4913,8.3256,8.3256,0,0,1,.6529,3.599c-.4966.2929-.9361.5519-1.3949.8223a27.17175,27.17175,0,0,0-1.976-1.8795A22.99209,22.99209,0,0,0,68.4537,145.8927Z" transform="translate(-54.77518 -131.70062)"/><path class="cls-3" d="M73.6934,149.2479c.9446-.5041,1.1835-.521,1.6213-.1387.5147.4494.5936.7794.3323,1.6863C74.9401,150.2355,74.3255,149.7486,73.6934,149.2479Z" transform="translate(-54.77518 -131.70062)"/><path class="cls-3" d="M76.0199,151.7256H79.408a1.299,1.299,0,0,1-.5691,1.1358,4.75057,4.75057,0,0,1-2.8153,1.1961A3.12194,3.12194,0,0,1,76.0199,151.7256Z" transform="translate(-54.77518 -131.70062)"/><path class="cls-3" d="M65.0743,133.9611a19.10322,19.10322,0,0,1,4.4635-1.5197,11.113,11.113,0,0,1,3.7951-.0582,29.98631,29.98631,0,0,0,.08,9.7201c-.7708.3185-1.4898.5839-2.1801.91-.66.3118-1.2903.6867-1.9634,1.0498a8.94141,8.94141,0,0,1-2.643-3.6518A14.59508,14.59508,0,0,1,65.0743,133.9611Z" transform="translate(-54.77518 -131.70062)"/><path class="cls-3" d="M73.8423,163.2615a8.16618,8.16618,0,0,1-4.7161-2.2417c-.6094-.5479-.6337-.8223-.304-1.6092a12.10745,12.10745,0,0,1,3.3946-4.6745,6.8906,6.8906,0,0,1,.6024-.4132c.7628.176,1.4687.3389,2.1711.501a25.15435,25.15435,0,0,0-.5718,8.3314A2.07973,2.07973,0,0,1,73.8423,163.2615Z" transform="translate(-54.77518 -131.70062)"/><path class="cls-3" d="M89.8564,151.0462a8.81869,8.81869,0,0,1-.9827,3.3156,1.44663,1.44663,0,0,1-.436.034c-1.327-.384-2.637-.8363-3.9785-1.1584a6.50122,6.50122,0,0,1-3.7227-2.5245,8.44028,8.44028,0,0,0-.0789-3.6822.795.795,0,0,1,.4539-.9722,12.81931,12.81931,0,0,1,5.2056-1.4722c.5175-.0302,1.0312-.1224,1.5487-.1576.3801-.0259.7635-.0051,1.1434-.0051a5.63765,5.63765,0,0,1,.9062,2.8581C89.9188,148.5367,89.9163,149.7932,89.8564,151.0462Z" transform="translate(-54.77518 -131.70062)"/></svg>