<svg id="layer" xmlns="http://www.w3.org/2000/svg" viewBox="0 0 30.23154 49.07105"><defs><style>.cls-1{fill:#fff;}.cls-2{fill:#2e888f;}.cls-3{fill:#ff706b;}.cls-4{fill:#66bec6;}</style></defs><title>coquillage1</title><path d="M146.1472,140.1453a16.67361,16.67361,0,0,1-2.2416,5.3043c-.021.0309-.0405.0629-.0601.0947-.3153.5095-.298.4912.1511.9123a2.34979,2.34979,0,0,1,.5348.7543,9.88834,9.88834,0,0,1,.8551,2.2547,9.51307,9.51307,0,0,1-.0991,2.4106,5.487,5.487,0,0,1-.3141,1.2664,2.306,2.306,0,0,1-.4113.5545c-.39.505-.3914.5056-.0797,1.0554a8.76281,8.76281,0,0,1,.9857,3.5997,4.1355,4.1355,0,0,1-.2528,1.1081,1.18048,1.18048,0,0,0-.0306.5447c.1341.4522.3639.8795.4679,1.3367a7.73607,7.73607,0,0,1-.1315,3.0758,27.27624,27.27624,0,0,1-.6933,2.9449,4.21409,4.21409,0,0,1-.6794,1.2315.98239.98239,0,0,1-.628.3387.78329.78329,0,0,1-.552-.2559c-.3309-.3489-.6145-.7423-.9202-1.1153-.8041-.9812-1.6516-1.9308-2.399-2.9534a2.74735,2.74735,0,0,0-1.5859-1.0567,5.01652,5.01652,0,0,1-2.9352-2.1674c-.1901-.3052-.4748-.5548-.644-.8688a8.56418,8.56418,0,0,1-.4667-1.1689c-.0795-.22-.1478-.3804-.442-.4148-.1945-.0227-.3587-.2493-.5513-.3587-.2196-.1247-.4557-.2207-.6848-.3287-.043-.0204-.1044-.0264-.1281-.0598-.4024-.5681-.797-1.1417-1.2005-1.7091-.1829-.2572-.3848-.5007-.5704-.7561a.89327.89327,0,0,1-.0962-.2301c-.1281-.3634-.2593-.7259-.3784-1.0923a2.07038,2.07038,0,0,1-.0737-.399c-.034-.2921-.038-.5895-.0947-.8767-.0793-.4018-.1882-.7983-.3013-1.1922a.61568.61568,0,0,0-.186-.264,15.06571,15.06571,0,0,1-2.709-3.1513,13.10292,13.10292,0,0,1-1.7557-3.7799c-.2103-.831-.4783-1.649-.7617-2.4585-.0581-.1658-.2825-.3007-.4599-.3928-1.0472-.5438-2.1406-1.0092-3.1458-1.6202a9.4072,9.4072,0,0,1-2.6467-2.4938,18.4544,18.4544,0,0,1-1.0259-1.5458,4.59926,4.59926,0,0,1-.523-2.0074c-.047-.5452-.1703-1.0849-.2013-1.6303a5.48153,5.48153,0,0,1,.0686-1.3334,14.75167,14.75167,0,0,1,1.1527-4.0486,10.96335,10.96335,0,0,1,1.0961-1.7199c.5648-.7247,1.2066-1.3891,1.7969-2.0949a.47746.47746,0,0,0,.015-.3929c-.138-.3708-.323-.7239-.4637-1.0938a1.905,1.905,0,0,1,.6377-1.9829.75582.75582,0,0,1,.6164.0273,3.08126,3.08126,0,0,1,.7191.5275,5.58894,5.58894,0,0,0,3.5659,1.5124c1.218.0715,2.4263.3056,3.6396.4629.8614.1116,1.734.165,2.5832.3358a17.93938,17.93938,0,0,1,2.4407.6896c1.2296.4359,2.4682.868,3.6456,1.4232a12.64728,12.64728,0,0,1,3.8704,2.573,28.5454,28.5454,0,0,1,2.5151,3.0802,13.61952,13.61952,0,0,1,2.167,9.5951Z" transform="translate(-116.06883 -119.86357)"/><path class="cls-1" d="M120.1177,124.1212l-.131-.0723c-.1677.1975-.3411.3905-.5021.5933a18.66324,18.66324,0,0,0-1.66,2.1454,11.9357,11.9357,0,0,0-1.2389,3.7373,6.59011,6.59011,0,0,0-.1363,2.7726c.0687.3022.0727.6192.142.9213a8.527,8.527,0,0,0,.4891,1.8633,10.10958,10.10958,0,0,0,3.2512,3.6892,18.60043,18.60043,0,0,0,2.0981,1.2101,9.77537,9.77537,0,0,0,.9638.4006.54973.54973,0,0,0-.1966-.2906c-1.2182-1.0249-2.4635-2.0193-3.6504-3.0791a6.90094,6.90094,0,0,1-2.3435-5.9155,11.21522,11.21522,0,0,1,.907-3.9997q.57-1.2345,1.1803-2.4502C119.5493,125.1298,119.8408,124.6291,120.1177,124.1212Z" transform="translate(-116.06883 -119.86357)"/><path class="cls-2" d="M140.0797,163.0337a9.57113,9.57113,0,0,1-3.841-4.604c-.6911.1633-1.3845.3271-2.0685.4885a4.89287,4.89287,0,0,0,1.4108,2.6157,4.804,4.804,0,0,0,2.7983,1.7773A1.98546,1.98546,0,0,0,140.0797,163.0337Z" transform="translate(-116.06883 -119.86357)"/><path class="cls-2" d="M139.813,157.2832l-.031.1294a11.10632,11.10632,0,0,1,3.0507,3.6803c.1708.2749.2746.1807.4612.069a1.272,1.272,0,0,0,.5108-1.0632,3.63457,3.63457,0,0,0-1.1307-3.45c-.4946-.3969-.4629-.4342-1.0283-.1604-.1455.0704-.2962.1299-.4446.1943Z" transform="translate(-116.06883 -119.86357)"/><path class="cls-2" d="M130.1344,153.2858a.67109.67109,0,0,0,.4757.735,5.47627,5.47627,0,0,0,3.9412-.1508,9.01,9.01,0,0,0,3.04-2.182,8.44954,8.44954,0,0,1,1.6896-1.3192,14.89713,14.89713,0,0,1,2.3793-1.1487,7.0086,7.0086,0,0,1,2.694-.6759,2.32755,2.32755,0,0,0,.4278-.0716c-.1199-.2649-.2334-.4717-.3077-.6918a.37927.37927,0,0,0-.4375-.3102,6.02119,6.02119,0,0,0-1.1705.1395,18.811,18.811,0,0,0-2.5404.9447,12.57667,12.57667,0,0,0-1.9988,1.2934c-.7339.5507-1.4248,1.1597-2.1232,1.7562a6.83619,6.83619,0,0,1-2.5458,1.4515A6.73691,6.73691,0,0,1,130.1344,153.2858Z" transform="translate(-116.06883 -119.86357)"/><path class="cls-2" d="M130.4611,154.8504a1.25876,1.25876,0,0,0,1.0665,1.0869,14.73933,14.73933,0,0,0,1.924.2141,5.8371,5.8371,0,0,0,4.0739-1.3095,33.88685,33.88685,0,0,1,4.0485-2.603,5.71118,5.71118,0,0,1,3.1401-.6544c.12.0017.3377-.121.3466-.2036.0404-.3746.0223-.7555.0251-1.127a6.08746,6.08746,0,0,0-2.8344.496,12.68022,12.68022,0,0,0-2.6602,1.6386,12.33818,12.33818,0,0,1-2.717,2.0139,6.90832,6.90832,0,0,1-3.0213.9867A8.50419,8.50419,0,0,1,130.4611,154.8504Z" transform="translate(-116.06883 -119.86357)"/><path class="cls-2" d="M130.323,152.0849l-.0102.0739a5.04948,5.04948,0,0,0,.5212.0747,7.93314,7.93314,0,0,0,2.3509-.3291,6.11129,6.11129,0,0,0,2.7501-1.6223,11.24316,11.24316,0,0,1,2.5576-2.2096,9.68185,9.68185,0,0,1,1.4576-.8164,24.512,24.512,0,0,1,2.5859-.5249c.3117-.0585.6274-.0954.9412-.1421l-.0103-.1595a4.87068,4.87068,0,0,0-.937-.0217c-.8329.1375-1.6588.3183-2.4862.4882a6.53132,6.53132,0,0,0-2.932,1.1976c-.6936.5625-1.4209,1.0874-2.1611,1.5877a10.79854,10.79854,0,0,1-2.3651,1.4061C131.8115,151.3638,131.0758,151.7482,130.323,152.0849Z" transform="translate(-116.06883 -119.86357)"/><path class="cls-2" d="M131.7602,157.1825a1.34547,1.34547,0,0,0,1.4626.6826c.9886-.0763,1.9692-.2636,2.9514-.4145a12.11566,12.11566,0,0,0,2.1616-.3848c.9304-.3257,1.8045-.8123,2.702-1.2316.1572-.0734.31-.1563.4659-.2324.3556-.1739.714-.3419,1.067-.5208a4.12347,4.12347,0,0,1,.5864-.3217c.6039-.1874.7607-.7214,1.078-1.2453a7.08735,7.08735,0,0,0-2.4918.838,19.49765,19.49765,0,0,1-3.4926,1.8288,28.44074,28.44074,0,0,1-2.7127.9077A10.16967,10.16967,0,0,1,131.7602,157.1825Z" transform="translate(-116.06883 -119.86357)"/><path class="cls-3" d="M136.4238,158.3505a11.82836,11.82836,0,0,0,.9436,1.772,9.47072,9.47072,0,0,0,2.8456,2.5978.58165.58165,0,0,0,.4749.0212c.6242-.3317,1.2279-.7021,1.8431-1.0511.1923-.1091.2333-.2178.1051-.4159-.284-.4389-.5481-.8907-.8178-1.3387a7.3415,7.3415,0,0,0-1.7935-1.9801,1.24569,1.24569,0,0,0-1.3333-.274c-.5277.2137-1.0848.3555-1.6311.5217C136.8862,158.2563,136.705,158.2864,136.4238,158.3505Z" transform="translate(-116.06883 -119.86357)"/><path class="cls-3" d="M144.2084,160.257a1.24595,1.24595,0,0,0,.2266-.2174,3.45314,3.45314,0,0,1,.2961-.5477,1.78281,1.78281,0,0,0,.3885-1.6315,17.90806,17.90806,0,0,0-.4558-1.7656,11.19069,11.19069,0,0,0-.4326-1.1346c-.102-.2414-.2818-.2601-.4774-.0985-.1911.1579-.3736.3262-.5635.4857-.7941.667-.8037.6764-.034,1.3755a2.69229,2.69229,0,0,1,.8832,1.868C144.0825,159.1305,144.1478,159.6683,144.2084,160.257Z" transform="translate(-116.06883 -119.86357)"/><path class="cls-3" d="M117.4821,132.2492c2.8951.1891,5.7541.3759,8.6314.5638a2.0324,2.0324,0,0,0,.0745-.3714c.003-.2248-.1086-.5006-.0151-.6661.3384-.5983.0919-1.2014.0896-1.8-.0003-.0636-.1125-.1675-.1878-.1841-1.14-.2522-2.274-.5492-3.4265-.7217-1.3517-.2024-2.7205-.2914-4.0811-.437-.223-.0239-.3567.0348-.4074.2656a1.73866,1.73866,0,0,1-.1267.3105A10.24348,10.24348,0,0,0,117.4821,132.2492Z" transform="translate(-116.06883 -119.86357)"/><path class="cls-3" d="M125.2856,135.638c.0443-.0528.1737-.1428.2095-.2611.1805-.5942.3326-1.1969.5032-1.7941.0639-.2236.0286-.3586-.232-.3871-.4688-.0512-.9356-.1232-1.4048-.1711-.8792-.0895-1.7581-.1968-2.6399-.2443-1.3045-.0702-2.6114-.0957-3.9173-.1373-.2438-.0078-.3464.0852-.3309.3623a7.66347,7.66347,0,0,0,.9395,3.2338.4426.4426,0,0,0,.525.273,43.657,43.657,0,0,1,5.9616-.193c.1418-.0004.362-.0351.406-.1235C125.3684,136.0695,125.3021,135.879,125.2856,135.638Z" transform="translate(-116.06883 -119.86357)"/><path class="cls-3" d="M126.1638,129.3496a2.49418,2.49418,0,0,1-.2394-.5979,4.85218,4.85218,0,0,0-1.2-2.0658.72161.72161,0,0,0-.4082-.2292,18.56147,18.56147,0,0,0-4.3528-.7999c-.2324-.0005-.3304.0412-.4266.2252-.2822.5395-.585,1.0683-.8604,1.6111a6.9027,6.9027,0,0,0-.2756.7156C120.9955,128.5901,123.5428,128.9644,126.1638,129.3496Z" transform="translate(-116.06883 -119.86357)"/><path class="cls-3" d="M125.171,136.6868c-.6458-.0216-1.2403-.0682-1.8334-.0557-1.2804.027-2.5605.0784-3.84.1361a3.12082,3.12082,0,0,0-.6506.2015c.8917.8047,1.6895,1.5247,2.4874,2.2447l-.0041-.1548a2.78135,2.78135,0,0,1,.403-.1108,11.86567,11.86567,0,0,1,2.6415-.4152c.2204.022.3315-.0593.3785-.2969.0737-.3721.1982-.734.3-1.1005C125.0889,137.0069,125.121,136.8776,125.171,136.6868Z" transform="translate(-116.06883 -119.86357)"/><path class="cls-3" d="M119.955,125.2432c1.4159.2677,2.7837.5264,4.2637.8063a20.95418,20.95418,0,0,0-3.3599-2.7862C120.5459,123.9486,120.2503,124.5962,119.955,125.2432Z" transform="translate(-116.06883 -119.86357)"/><path class="cls-3" d="M124.557,138.8436a8.10629,8.10629,0,0,0-2.9951.5244c.8875.6784,1.6936,1.2949,2.5209,1.9273C124.2491,140.4358,124.4015,139.6475,124.557,138.8436Z" transform="translate(-116.06883 -119.86357)"/><path class="cls-2" d="M143.8752,166.9683a10.3237,10.3237,0,0,0-1.4458-4.8395c-.1802.1293-.3469.2487-.457.3277C142.6145,163.9791,143.2449,165.4737,143.8752,166.9683Z" transform="translate(-116.06883 -119.86357)"/><path class="cls-2" d="M144.9314,165.163c.4925-1.6458.6908-3.9674-.1398-5.0264-.1066.2654-.5497.3416-.3704.7275a8.65053,8.65053,0,0,1,.5268,3.4242C144.9594,164.5792,144.9378,164.8714,144.9314,165.163Z" transform="translate(-116.06883 -119.86357)"/><path class="cls-2" d="M142.6943,167.8097c-.7576-1.4522-1.5311-2.9349-2.3007-4.4104-.4519.0614-.4483.0603-.33.4471a11.42875,11.42875,0,0,0,2.6053,3.9507C142.689,167.8205,142.7307,167.8255,142.6943,167.8097Z" transform="translate(-116.06883 -119.86357)"/><path class="cls-2" d="M143.5856,167.7664c.0984-.9198-1.6715-5.03-2.0905-5.0249A20.89247,20.89247,0,0,0,143.5856,167.7664Z" transform="translate(-116.06883 -119.86357)"/><path class="cls-2" d="M144.1861,165.8794a9.85977,9.85977,0,0,0-.8168-4.2505c-.5887.1486-.6456.2453-.4314.7624.213.5141.4573,1.0168.6424,1.5407C143.8086,164.5784,143.99,165.2416,144.1861,165.8794Z" transform="translate(-116.06883 -119.86357)"/><path class="cls-2" d="M141.078,162.9491c-.3816.1341-.4146.1762-.2003.633q.673,1.43475,1.3933,2.8472c.2069.4043.474.7779.7137,1.1655l.0786-.0518C142.4052,166.0202,141.7471,164.4974,141.078,162.9491Z" transform="translate(-116.06883 -119.86357)"/><path class="cls-2" d="M144.6238,165.1919a10.41464,10.41464,0,0,0-.5466-4.3087c-.2114.2207-.4668.2587-.3844.5785C144.0266,162.7559,144.3416,164.055,144.6238,165.1919Z" transform="translate(-116.06883 -119.86357)"/><path class="cls-1" d="M126.356,122.3719c-.3406.0285-.6505-.2035-1.0028.1216-.2718.2508-.694.3315-.9961.5585a10.50281,10.50281,0,0,0-.953.9093c.5881.4374.6832.4423,1.0562.1083C125.075,123.5189,125.6899,122.9684,126.356,122.3719Z" transform="translate(-116.06883 -119.86357)"/><path class="cls-1" d="M122.5037,121.5761l.0111-.1366a1.58014,1.58014,0,0,0-.5427-.1642,4.15019,4.15019,0,0,0-1.0828.2083c-.7949.2886-.7882.3079-.5087,1.0299.0077.0198.0354.0319.1281.1108.1903-.1261.3972-.2767.6168-.4057.3052-.1791.6155-.3507.9325-.5077A2.69582,2.69582,0,0,1,122.5037,121.5761Z" transform="translate(-116.06883 -119.86357)"/><path class="cls-1" d="M121.6918,123.2128c.5195.4523.6025.4138,1.006-.0895a5.24026,5.24026,0,0,1,.8948-.7406c.0913-.072.1964-.1265.3121-.1997A2.92532,2.92532,0,0,0,121.6918,123.2128Z" transform="translate(-116.06883 -119.86357)"/><path class="cls-1" d="M144.234,143.3839c.299.2372.4227.1239.5078-.1329.2383-.7194.4798-1.4379.7309-2.1529.3197-.9103.3038-.9339-.6844-.9561-1.045-.0235-2.0927-.0147-3.1341-.0897a21.03057,21.03057,0,0,0-6.4941.3972,22.374,22.374,0,0,0-5.3888,2.159,26.42961,26.42961,0,0,0-2.4056,1.6298,3.90708,3.90708,0,0,0-1.4963,1.7655.71428.71428,0,0,0-.0066.5105,16.94743,16.94743,0,0,0,.951,1.8203c.3583.5658.801,1.0786,1.2132,1.6096.1382.178.2688.2478.4171-.0221a1.91233,1.91233,0,0,1,.4288-.5139c1.0076-.866,2.0273-1.718,3.0387-2.5796a10.4659,10.4659,0,0,1,3.2747-1.897,16.67662,16.67662,0,0,1,2.4677-.8469c1.5869-.299,3.1974-.4806,4.803-.6692A16.66974,16.66974,0,0,1,144.234,143.3839Z" transform="translate(-116.06883 -119.86357)"/><path class="cls-1" d="M145.6975,135.6918a7.88365,7.88365,0,0,0-.2286-1.0207c-.3597-.9656-.7466-1.9209-1.1297-2.8776-.0285-.0712-.1017-.1636-.1666-.1749-.4268-.0747-.8557-.1417-1.2863-.1891a30.199,30.199,0,0,0-3.8353-.2126,26.68282,26.68282,0,0,0-5.7703.6306c-.3128.0747-.6197.1746-.9273.2697-1.0317.3193-2.0686.6245-3.0886.9781a.80978.80978,0,0,0-.4688.5071,10.726,10.726,0,0,1-1.3939,3.7221c-.0591.0993-.1033.2075-.1643.3317A55.8938,55.8938,0,0,1,145.6975,135.6918Z" transform="translate(-116.06883 -119.86357)"/><path class="cls-1" d="M141.0755,127.5792a.73035.73035,0,0,0-.0743-.1347,1.80906,1.80906,0,0,0-.168-.1484,20.34316,20.34316,0,0,0-4.9656-2.8678,4.77347,4.77347,0,0,0-3.1789-.4195c-1.0877.3055-2.1769.6181-3.2378,1.0035a4.36778,4.36778,0,0,0-2.2259,1.3709c-.1293.1763-.1728.2771-.0338.441a3.70032,3.70032,0,0,1,.5727.7142c.2123.4419.3455.9215.5163,1.3838.0432.1172.1025.2285.1539.3414a11.03844,11.03844,0,0,1,3.4878-1.3348,23.49226,23.49226,0,0,1,5.7928-.4958c.8934.0173,1.7868.0436,2.6799.0735C140.6118,127.5138,140.8281,127.5519,141.0755,127.5792Z" transform="translate(-116.06883 -119.86357)"/><path class="cls-1" d="M125.8377,125.4124a17.19936,17.19936,0,0,1,4.4694-2.4999,2.19557,2.19557,0,0,0-.9749-.0423,11.07141,11.07141,0,0,0-1.2012.4684,6.441,6.441,0,0,0-2.3653,1.4224C125.434,125.0983,125.4212,125.1432,125.8377,125.4124Z" transform="translate(-116.06883 -119.86357)"/><path class="cls-4" d="M125.5894,145.7143c.1251-.151.205-.2593.2969-.3563a7.89381,7.89381,0,0,1,1.1145-1.1395,20.86359,20.86359,0,0,1,4.069-2.5476c.5895-.2329,1.1386-.5717,1.7339-.7847.7485-.2678,1.5273-.4499,2.2898-.6799a15.48509,15.48509,0,0,1,4.4729-.5497c1.8169-.0036,3.6341.1117,5.4512.1741.2456.0085.5741.1042.7139-.0156.1367-.1173.081-.4588.1097-.7018.003-.0248.0049-.0497.0092-.0743a8.3104,8.3104,0,0,0-.0414-2.6724c-.0393-.2682-.1612-.3234-.3867-.3367-.8583-.0505-1.716-.112-2.5742-.1637a8.68329,8.68329,0,0,0-1.0827-.0385c-2.0865.1361-4.1748.2571-6.2567.4477-1.2.11-2.3959.305-3.5808.5293-1.1097.21-2.2048.5004-3.3018.7739a6.33823,6.33823,0,0,0-1.1274.3809,3.98108,3.98108,0,0,0-1.0759.8811,12.22254,12.22254,0,0,0-1.7282,2.7612,1.46638,1.46638,0,0,0-.0614,1.2327C124.9551,143.7687,125.2573,144.7098,125.5894,145.7143Z" transform="translate(-116.06883 -119.86357)"/><path class="cls-4" d="M128.7772,132.9851a27.97924,27.97924,0,0,1,15.2588-1.6987c-.0132-.0824-.0073-.126-.0261-.1507-.6976-.9229-1.3883-1.8513-2.1051-2.7592a1.1732,1.1732,0,0,0-.5871-.4058,6.49751,6.49751,0,0,0-1.5117-.2226c-1.7655.0037-3.5324.0219-5.2961.0971a14.00532,14.00532,0,0,0-4.7514,1.0694,6.27467,6.27467,0,0,0-1.021.5349.51989.51989,0,0,0-.1894.4187A9.27621,9.27621,0,0,1,128.7772,132.9851Z" transform="translate(-116.06883 -119.86357)"/><path class="cls-4" d="M144.4818,143.8612a5.65724,5.65724,0,0,0-.8956-.149,22.37406,22.37406,0,0,0-7.1943,1.0787,17.46463,17.46463,0,0,0-2.2788.9166,23.19549,23.19549,0,0,0-4.4623,3.2863,8.82467,8.82467,0,0,0-.9519,1.0981.40043.40043,0,0,0,.0452.5985q.334.32625.6626.658a.84174.84174,0,0,0,.894.2176c.427-.1272.857-.2529,1.2695-.4194a10.37106,10.37106,0,0,0,1.7985-.8093c1.1969-.7781,2.3382-1.6414,3.5084-2.461a5.49792,5.49792,0,0,1,1.1907-.7493,22.89584,22.89584,0,0,1,2.5327-.7258c.7814-.1851,1.5802-.2967,2.3695-.45a.39587.39587,0,0,0,.2311-.1486C143.6096,145.1963,144.0078,144.5831,144.4818,143.8612Z" transform="translate(-116.06883 -119.86357)"/><path class="cls-4" d="M126.7845,126.2782c1.8261-1.617,4.0908-2.1295,6.3333-2.7269a3.2545,3.2545,0,0,0-2.4851-.249,15.31721,15.31721,0,0,0-1.9752.7531,15.65441,15.65441,0,0,0-1.9645,1.1318c-.5766.3887-.5544.4645-.068.941C126.678,126.1801,126.733,126.2298,126.7845,126.2782Z" transform="translate(-116.06883 -119.86357)"/><path class="cls-4" d="M125.1806,124.9105a10.27433,10.27433,0,0,1,3.2959-2.2018,3.20141,3.20141,0,0,0-1.4296-.0855,5.08906,5.08906,0,0,0-2.5246,1.8741C124.7456,124.6374,124.9499,124.7657,125.1806,124.9105Z" transform="translate(-116.06883 -119.86357)"/><path class="cls-4" d="M124.8734,122.2914l-.0101-.0761a2.32485,2.32485,0,0,0-.4924.0851c-.1507.0596-.265.2169-.4166.2676a1.85548,1.85548,0,0,0-1.277,1.1452c.2171.1814.4069.2467.6119-.0437a2.92768,2.92768,0,0,1,.5156-.5347C124.152,122.8429,124.5163,122.5714,124.8734,122.2914Z" transform="translate(-116.06883 -119.86357)"/><path class="cls-4" d="M120.0834,121.4162c.5764-.1632,1.124-.3182,1.6762-.4746-.3489-.3312-.3891-.3461-.9688-.365C120.149,120.5556,119.9825,120.7517,120.0834,121.4162Z" transform="translate(-116.06883 -119.86357)"/><path class="cls-4" d="M121.0336,122.8094c.1405.2815.3133.2784.5625.1087.509-.3462.8556-.9447,1.5697-.9748A2.10464,2.10464,0,0,0,121.0336,122.8094Z" transform="translate(-116.06883 -119.86357)"/><path class="cls-2" d="M128.1258,133.4032a1.83174,1.83174,0,0,0-2.2706,1.9041c.714-.0548,1.4274-.1096,2.1715-.1667C128.1541,134.6108,128.5418,134.0648,128.1258,133.4032Z" transform="translate(-116.06883 -119.86357)"/><path class="cls-2" d="M126.3474,133.2545c.6681-.0706,1.3009-.1312,1.9312-.212a.29355.29355,0,0,0,.2017-.1947,10.27045,10.27045,0,0,0,.0037-1.1139.29438.29438,0,0,0-.1951-.2024,2.27883,2.27883,0,0,0-1.51.2732.44114.44114,0,0,0-.2098.2381C126.4774,132.4613,126.4124,132.8857,126.3474,133.2545Z" transform="translate(-116.06883 -119.86357)"/><path class="cls-2" d="M127.911,135.642a2.65178,2.65178,0,0,0-2.0184.0961.605.605,0,0,0-.2446.4208,1.69787,1.69787,0,0,1-.2571.8138,1.31086,1.31086,0,0,0-.0736.2693c.0625.0164.0893.0332.1086.027a3.28624,3.28624,0,0,1,1.5696-.2106.26328.26328,0,0,0,.2116-.1137C127.4497,136.5155,127.6777,136.0781,127.911,135.642Z" transform="translate(-116.06883 -119.86357)"/><path class="cls-2" d="M128.0944,129.3006c-.1753-.3916-.3478-.7877-.53-1.1793-.0995-.2139-.2412-.2725-.4336-.089-.2059.1965-.4266.3781-.6241.5823a.41867.41867,0,0,0-.1294.2912c.0527.3624.1386.72.219,1.1128C127.1074,129.7736,127.5691,129.5523,128.0944,129.3006Z" transform="translate(-116.06883 -119.86357)"/><path class="cls-2" d="M126.6128,131.4143c.5728-.0844,1.1058-.1544,1.6337-.2522.0638-.0118.1496-.18.1396-.2655-.0346-.2941-.1195-.5819-.1614-.8755-.0334-.2343-.1694-.3185-.3592-.2338-.3923.175-.7696.3839-1.1511.5827a.12793.12793,0,0,0-.0565.0913C126.6394,130.7887,126.6262,131.1163,126.6128,131.4143Z" transform="translate(-116.06883 -119.86357)"/><path class="cls-2" d="M126.9027,137.4369c-.3758-.1446-.3658-.0958-1.1525.0644-.643.131-.97.7585-.569,1.2216C126.1012,138.7443,126.5465,138.1696,126.9027,137.4369Z" transform="translate(-116.06883 -119.86357)"/><path class="cls-2" d="M126.2422,128.4177c.3015-.2606.5856-.4971.856-.7481a.24458.24458,0,0,0,.0552-.2235c-.2234-.3355-.465-.6591-.7018-.9876A1.27177,1.27177,0,0,0,126.2422,128.4177Z" transform="translate(-116.06883 -119.86357)"/><path class="cls-2" d="M125.4848,127.1628c.1864-.2915.365-.5422.509-.8115.0508-.0951.0687-.2996.0133-.3442a8.07429,8.07429,0,0,0-.7827-.5161c-.0062-.0039-.0367.0285-.0545.0453a1.00516,1.00516,0,0,0-.1562,1.0123C125.1427,126.7548,125.3095,126.9373,125.4848,127.1628Z" transform="translate(-116.06883 -119.86357)"/><path class="cls-2" d="M125.7407,139.0234c-.8797.1062-1.2967,1.1623-1.1558,2.0216C124.9579,140.3926,125.3308,139.7403,125.7407,139.0234Z" transform="translate(-116.06883 -119.86357)"/><path class="cls-2" d="M124.1698,124.7551a.77831.77831,0,0,0,.4209,1.1336C125.0802,125.2537,124.9954,125.0126,124.1698,124.7551Z" transform="translate(-116.06883 -119.86357)"/><path class="cls-2" d="M123.6216,124.9913c.2251-.4244-.1338-.7401-.8619-.7395C123.0676,124.516,123.3425,124.7518,123.6216,124.9913Z" transform="translate(-116.06883 -119.86357)"/><path class="cls-4" d="M130.4317,154.3872l-.0546.0512a3.82318,3.82318,0,0,0,.8453.4058,6.93622,6.93622,0,0,0,4.9371-.4183,16.66588,16.66588,0,0,0,2.8809-1.9629c1.6306-1.3775,3.3556-2.5378,5.6051-2.584.5703-.0117.5787-.058.3921-.5987-.0478-.1382-.1446-.3686-.2212-.3696a4.47122,4.47122,0,0,0-1.3295.0924c-.902.2731-1.7777.6331-2.663.9608a7.693,7.693,0,0,0-3.0969,1.9969,7.72514,7.72514,0,0,1-3.4757,2.3009,6.53322,6.53322,0,0,1-1.7176.2856A20.25779,20.25779,0,0,1,130.4317,154.3872Z" transform="translate(-116.06883 -119.86357)"/><path class="cls-4" d="M131.195,156.1391l-.0857.1132c.1156.0903.2289.1842.3483.2693.0461.0329.144.0354.154.0703.1162.4048.4778.3529.7657.4017a7.4595,7.4595,0,0,0,3.3643-.255,16.993,16.993,0,0,0,4.4151-1.8323,11.11695,11.11695,0,0,1,4.2155-1.8358c.2595-.0408.6077-.7819.483-.9993a.23649.23649,0,0,0-.1816-.0987,7.48864,7.48864,0,0,0-1.8399.1596,12.8741,12.8741,0,0,0-2.2754,1.0868,16.10287,16.10287,0,0,0-2.3513,1.5026,7.34155,7.34155,0,0,1-3.9103,1.696A8.17685,8.17685,0,0,1,131.195,156.1391Z" transform="translate(-116.06883 -119.86357)"/><path class="cls-4" d="M129.9791,152.5157c-.0356.3252.2086.5012.5283.5173a14.67167,14.67167,0,0,0,1.7432-.0104,6.25221,6.25221,0,0,0,3.4974-1.4625c1.1338-.907,2.1871-1.9096,3.4143-2.7054a11.3468,11.3468,0,0,1,3.882-1.6718,2.41985,2.41985,0,0,0,.309-.1079l-.0385-.1332c-1.1093.2043-2.2325.3551-3.3217.6371a7.77208,7.77208,0,0,0-1.3888.7816,11.20856,11.20856,0,0,0-2.4233,2.07,7.352,7.352,0,0,1-1.584,1.2554,7.97466,7.97466,0,0,1-2.2222.7154A18.26393,18.26393,0,0,1,129.9791,152.5157Z" transform="translate(-116.06883 -119.86357)"/><path class="cls-4" d="M138.0961,157.5665l-.0357-.1333q-2.44425.41505-4.8887.8302a1.41922,1.41922,0,0,0,.727.2793,5.39336,5.39336,0,0,0,1.1417-.164c.642-.142,1.2794-.3062,1.9156-.4735C137.3392,157.8044,137.7163,157.6802,138.0961,157.5665Z" transform="translate(-116.06883 -119.86357)"/><path class="cls-4" d="M140.7355,156.4106l.0526.1091,1.1225-.5445-.064-.1323A2.44041,2.44041,0,0,0,140.7355,156.4106Z" transform="translate(-116.06883 -119.86357)"/><path class="cls-4" d="M140.0854,156.8059l-.0668-.1292-.8218.4131.026.059Q139.654,156.97735,140.0854,156.8059Z" transform="translate(-116.06883 -119.86357)"/></svg>