<svg id="layer" xmlns="http://www.w3.org/2000/svg" viewBox="0 0 61.40109 53.98658"><defs><style>.cls-1{fill:#fff;}.cls-2{fill:#e81d12;}.cls-3{fill:#ff5047;}</style></defs><title>crabe1</title><path d="M217.53458,122.82345a19.75237,19.75237,0,0,0-2.252,2.8094,19.76957,19.76957,0,0,1-2.4199,2.6901c-.0787-.1232-.1467-.18-.1447-.2341q.04035-1.04955.0991-2.0985a10.44168,10.44168,0,0,1,.1113-1.5438,13.05138,13.05138,0,0,0,.0875-3.3029c-.0026-.057-.0824-.1105-.1354-.1773a.74415.74415,0,0,0-.7931.2321,16.92786,16.92786,0,0,0-1.4295,1.3831,11.64636,11.64636,0,0,0-2.6551,5.5228,5.177,5.177,0,0,0,.0579,3.1511,1.73687,1.73687,0,0,1-.3904,1.9343q-.99615,1.18815-2.0079,2.3631a2.68476,2.68476,0,0,1-1.054.8275c-1.526-1.0177-2.6734-2.4409-4.1115-3.5089-.1377-1.7322-.3188-3.4203-.3926-5.113-.066-1.5102-.068-3.0177-.2453-4.5269a29.18932,29.18932,0,0,0-.4854-3.1671,12.3583,12.3583,0,0,0-1.1592-3.4465,12.7017,12.7017,0,0,0-3.7667-4.2878c-.3037-.2098-.6029-.4268-.8943-.6531-.1976-.1535-.3779-.3293-.5432-.4751a6.30379,6.30379,0,0,1,1.1594-2.6862c.119-.0352.2584-.0804.3999-.1173.1784-.0467.3623-.0754.5376-.1314a2.921,2.921,0,0,0,2.0645-3.043,3.01045,3.01045,0,0,0-.907-1.8567,2.50275,2.50275,0,0,0-4.2281.6576,3.13924,3.13924,0,0,0-.3183,1.1618,3.39742,3.39742,0,0,0,.6595,2.7156,7.70876,7.70876,0,0,1-1.1424,2.4268c-.9611-.2315-1.8803-.5042-2.8187-.6646-.9724-.1662-1.9717-.1577-2.9888-.3401a11.28728,11.28728,0,0,1,.5128-2.463,3.251,3.251,0,0,0,1.9055-2.9477c.0154-.2576.0143-.5162.0223-.7744a1.31,1.31,0,0,0-.4961-1.0634,2.396,2.396,0,0,0-1.2794-.6102,8.53879,8.53879,0,0,1-.9875-.1209,1.25845,1.25845,0,0,0-1.2281.3265,6.27013,6.27013,0,0,0-.9368,1.0798,2.22545,2.22545,0,0,0-.2199,2.1109,4.2091,4.2091,0,0,0,1.3438,1.8455,15.13074,15.13074,0,0,1-.7933,2.8857c-1.237.5038-2.3641.9557-3.4856,1.421a14.38767,14.38767,0,0,0-5.0301,3.5392,17.05854,17.05854,0,0,0-4.4762,7.891c-.63,2.769-1.2369,5.5433-1.8482,8.3165-.1191.5399-.1845,1.093-.3281,1.6256a2.77386,2.77386,0,0,1-.4224.8842q-1.32795,1.83765-2.7015,3.6423a6.60574,6.60574,0,0,1-1.2864,1.4273,3.14789,3.14789,0,0,1-.1624-.5955,40.967,40.967,0,0,0-.6945-4.8187,12.89671,12.89671,0,0,1-.0999-1.876,1.781,1.781,0,0,1,.3802-1.1206,5.121,5.121,0,0,0,.8538-2.2502,16.66419,16.66419,0,0,0-.1838-5.7206,9.39107,9.39107,0,0,0-1.4427-3.4438c-.0521-.0808-.1656-.122-.3039-.2191-.6671.9104-.6741,2.0306-1.0993,2.9888-.4333.9766-.3992,2.0943-.9311,3.1864a22.72537,22.72537,0,0,1-.7431-2.8486,18.59036,18.59036,0,0,0-.9679-2.9038,2.81359,2.81359,0,0,0-.4738.5479,15.109,15.109,0,0,0-1.4342,4.7448,10.26389,10.26389,0,0,0,.5821,4.8972,3.12447,3.12447,0,0,0,2.6591,2.0427c.2494.0332.4961.0863.7339.1285a2.33439,2.33439,0,0,1,.118.355c.2357,1.643.4841,3.2844.6928,4.9308.1482,1.1694.4752,2.3075.5305,3.4963a5.9276,5.9276,0,0,0,.4364,1.5908,1.86992,1.86992,0,0,0,.3814.4822c1.0006-.3746,1.5473-1.2299,2.3507-1.7501a17.172,17.172,0,0,1,2.2973-1.6281c.0758.0723.1224.0964.1215.1187q-.08505,2.03595-.1818,4.0712c-.0031.063-.0721.1228-.1224.2036a1.29607,1.29607,0,0,1-.2977.0623c-.4796-.0077-.959-.0433-1.4384-.0411-1.3992.0066-2.7985.0179-4.1974.0474a8.753,8.753,0,0,0-.9852.1415,1.59522,1.59522,0,0,0-1.2775.9439,30.95815,30.95815,0,0,0-1.8979,4.597,2.76052,2.76052,0,0,0-.0853.9803.53426.53426,0,0,0,.8763.4271,3.62085,3.62085,0,0,0,1.1344-1.1915c.4169-.6515.8578-1.288,1.3022-1.9212.0692-.0986.212-.1456.4013-.2689a5.92218,5.92218,0,0,1-.332,1.8275,9.77129,9.77129,0,0,0-.3885,2.73c.0056.2118-.0171.4484.2242.5642.0803,0,.1649.0252.2221-.0037a3.17537,3.17537,0,0,0,1.8488-2.3327,3.9038,3.9038,0,0,0,.1632-.7534c-.0249-.9041.5792-1.3029,1.2653-1.6307a5.295,5.295,0,0,1,1.0368-.3741q1.4514-.3492,2.9156-.6431c.4594-.0914.9318-.1174,1.6367-.2014a8.69279,8.69279,0,0,1-1.523.8309c-.8261.4089-1.6496.8233-2.4738,1.2362a1.59815,1.59815,0,0,0-.8256.9847,23.45493,23.45493,0,0,0-.9548,4.198,1.90173,1.90173,0,0,0,.6741,1.8856,2.69807,2.69807,0,0,0,1.5648-1.7907,6.31224,6.31224,0,0,0,.3868-1.7217,2.20886,2.20886,0,0,1,1.3859-1.9618c1.5909-.7753,3.1876-1.5389,4.7764-2.3185a1.54345,1.54345,0,0,1,1.0625-.1182,45.238,45.238,0,0,0,4.9042.855c.771.0743,1.5356.2149,2.3066.288a18.56353,18.56353,0,0,0,1.9831.0961c.8835-.011,1.7672-.1304,2.649-.1129a39.11082,39.11082,0,0,0,6.1761-.475c1.3845-.1926,2.7626-.4313,4.1455-.6497.4548.3839.8856.7897,1.3588,1.1382.9201.6778,1.858,1.3322,2.8016,1.977.2883.1969.5617.3978.558.7669a7.9033,7.9033,0,0,1,.0116,2.2031,2.918,2.918,0,0,0-.0647.659,1.3418,1.3418,0,0,0,.7319,1.272.71877.71877,0,0,0,1.0973-.3441,1.65093,1.65093,0,0,0,.1187-.3098,15.261,15.261,0,0,0,.5401-4.3785,2.1393,2.1393,0,0,0-.8941-1.695c-.6398-.4991-1.2593-1.0245-1.8816-1.5457a3.856,3.856,0,0,1-.362-.4544c1.1273.3325,2.0753.6005,3.0158.8925.9852.3059,1.0845.449,1.1051,1.501.0065.3317-.0445.6659-.0213.9956a9.67746,9.67746,0,0,0,.1734,1.3115,1.96044,1.96044,0,0,0,.7907,1.1675.5306.5306,0,0,0,.7062.0132,1.02134,1.02134,0,0,0,.4123-.6289c.1328-.5357.2927-1.0647.4455-1.5953.0486-.1689.0764-.3666.375-.3431a5.086,5.086,0,0,0,.297.4256,3.30044,3.30044,0,0,0,.4597.4727.59878.59878,0,0,0,1.0528-.3869,17.39091,17.39091,0,0,0,.2059-4.0814c-.1013-1.6498-.3512-1.944-1.9866-2.2544-1.5557-.2953-3.1266-.5118-4.6928-.7498-.3588-.0546-.7256-.0557-1.089-.0814a4.03938,4.03938,0,0,1-.1047-1.9006c.0314-.7359.0763-1.4713.1008-2.2074.0147-.4423-.0076-.8856.0055-1.3278.0051-.1728-.004-.3777.2768-.4667a3.90207,3.90207,0,0,1,.4456.2312c.7934.5369,1.5892,1.0711,2.369,1.6275.8984.6412,1.1085.6517,1.9469-.0001.0873-.0679.1707-.1414.2508-.2177a17.17711,17.17711,0,0,0,2.7622-3.1481c.3928-.6177.8415-1.1999,1.2531-1.7814a5.32914,5.32914,0,0,0,4.0678-.8484,7.4004,7.4004,0,0,0,3.4891-5.0227,31.34649,31.34649,0,0,0,.2473-4.7451C217.73288,123.15685,217.62968,123.03565,217.53458,122.82345Z" transform="translate(-156.32875 -101.29891)"/><path class="cls-1" d="M192.20058,106.57855a7.574,7.574,0,0,1-.1172-1.0501,3.12276,3.12276,0,0,1,.4813-1.6147,1.02077,1.02077,0,0,1,.779-.5566.652.652,0,0,0,.5284-.3002.68373.68373,0,0,1,.4926-.1735,2.64051,2.64051,0,0,1,2.444,2.8614,2.56464,2.56464,0,0,1-1.6902,2.0277,2.66087,2.66087,0,0,1-1.5146.1699A1.63128,1.63128,0,0,1,192.20058,106.57855Z" transform="translate(-156.32875 -101.29891)"/><path class="cls-1" d="M183.57018,105.54475c-.0915-.1585-.1709-.3241-.2593-.4845-.6448-1.171-.2563-2.0862.7519-3.0071a.55935.55935,0,0,1,.2845-.1568,4.097,4.097,0,0,1,2.367.1816,1.352,1.352,0,0,1,.7757,1.539,4.208,4.208,0,0,1-.6373,1.961A2.036,2.036,0,0,1,183.57018,105.54475Z" transform="translate(-156.32875 -101.29891)"/><path class="cls-2" d="M191.94328,110.05625c.2457-.564.5235-1.1141.8425-1.7863.2432.0807.4397.146.6117.2031.0181.1263.0562.2064.0334.2613-.2369.571-.5007,1.1313-.7211,1.7083-.1263.3308-.3096.4783-.5336.4105C191.83728,110.75075,191.74848,110.50335,191.94328,110.05625Z" transform="translate(-156.32875 -101.29891)"/><path class="cls-2" d="M183.92148,109.28975c.1711-.6754.3415-1.3516.5437-2.018a.63681.63681,0,0,1,.3293-.3806c.1412-.0493.3336.0482.5273.086a9.57159,9.57159,0,0,1-.5017,2.4052c-.3068.0517-.55.0926-.7753.1306C183.98408,109.40755,183.90938,109.33765,183.92148,109.28975Z" transform="translate(-156.32875 -101.29891)"/><path class="cls-2" d="M162.37028,140.72145c-.1361-.8712-.2399-1.5549-.3502-2.2375q-.4923-3.04755-.9891-6.0942a2.6942,2.6942,0,0,1,.0449-1.3862c.3425-.0928.7181-.1946,1.1421-.3096a5.1018,5.1018,0,0,1,.0839.6103,14.19032,14.19032,0,0,0,.3941,2.9463,21.9735,21.9735,0,0,1,.4681,4.2726A3.94629,3.94629,0,0,1,162.37028,140.72145Z" transform="translate(-156.32875 -101.29891)"/><path class="cls-2" d="M166.33548,138.53525c-.9528.6866-1.8514,1.4484-2.779,2.1705a4.95915,4.95915,0,0,1-.5067.2996,1.895,1.895,0,0,1,.4079-1.4057c.3615-.5536.7593-1.0842,1.1547-1.6148q1.41675-1.901,2.8486-3.7906a2.5129,2.5129,0,0,1,.3702-.2909,6.67821,6.67821,0,0,1-.0954,2.2183C167.529,137.65735,167.78708,137.48935,166.33548,138.53525Z" transform="translate(-156.32875 -101.29891)"/><path class="cls-2" d="M160.94158,143.43835a2.52615,2.52615,0,0,1,.6562-.0769c1.5109.0012,3.0218.0116,4.5328.0201a2.47233,2.47233,0,0,1,.3313.0163c.2204.0312.4406.0697.4937.3451.0437.227-.1231.383-.5098.4232a26.97412,26.97412,0,0,0-4.9557,1.1103c-.3874-.5234-.7343-.9922-1.0526-1.4221C160.48318,143.49035,160.746,143.49135,160.94158,143.43835Z" transform="translate(-156.32875 -101.29891)"/><path class="cls-2" d="M158.29878,148.90585c-.2268.3224-.431.691-.8893.7331a.59329.59329,0,0,1-.0984-.7187q.48165-1.4052,1.0072-2.7949c.1555-.4104.3642-.8004.542-1.2026a2.38467,2.38467,0,0,1,.8049-1.1103,3.14335,3.14335,0,0,1,1.1463,1.4864C159.97328,146.504,159.14108,147.70845,158.29878,148.90585Z" transform="translate(-156.32875 -101.29891)"/><path class="cls-2" d="M161.66838,149.51865a2.25858,2.25858,0,0,1-1.2995,1.6177c-.0453-.0512-.1334-.1063-.1294-.1536a26.03648,26.03648,0,0,1,.9687-4.5051,1.773,1.773,0,0,1,.2489-.3988,2.13148,2.13148,0,0,1,.8344,1.0436C162.07088,147.96915,161.86508,148.74275,161.66838,149.51865Z" transform="translate(-156.32875 -101.29891)"/><path class="cls-2" d="M163.07638,146.72705a1.84342,1.84342,0,0,1-.8555-1.1097,14.0483,14.0483,0,0,1,4.3707-1.007c.6253.0133.921.4777,1.46.889C166.32438,145.92565,164.73908,146.31675,163.07638,146.72705Z" transform="translate(-156.32875 -101.29891)"/><path class="cls-2" d="M165.91418,150.09805c-.2033.8921-.3859,1.7895-.6114,2.676a2.942,2.942,0,0,1-1.1124,1.6688,1.30151,1.30151,0,0,1-.4003-1.2015c.2436-1.2557.518-2.5056.7947-3.7547a1.23079,1.23079,0,0,1,.2061-.345,1.18877,1.18877,0,0,1,.9203.3707A.54646.54646,0,0,1,165.91418,150.09805Z" transform="translate(-156.32875 -101.29891)"/><path class="cls-2" d="M171.551,146.95985q-2.5338,1.29855-5.082,2.5858c-.416-.2987-.8002-.5735-1.1819-.8516-.0256-.0186-.0327-.0626-.0506-.0992-.0011-.2747.2359-.3497.4173-.4399,1.2465-.6194,2.5006-1.2231,3.7501-1.8363a1.1703,1.1703,0,0,1,.959-.0318c.4101.15.8182.3054,1.2213.4563C171.572,146.83405,171.58488,146.94255,171.551,146.95985Z" transform="translate(-156.32875 -101.29891)"/><path class="cls-2" d="M202.04108,150.33065a12.198,12.198,0,0,1-.419,3.6996,1.14864,1.14864,0,0,1-.1536.4088.85342.85342,0,0,1-.3893.33c-.24.0643-.4129-.1177-.5151-.3211a.94608.94608,0,0,1-.103-.4205c.0157-1.0953.0444-2.1904.0698-3.319.4155-.2984.8247-.5921,1.1895-.8541C202.03448,149.95625,202.03048,150.15825,202.04108,150.33065Z" transform="translate(-156.32875 -101.29891)"/><path class="cls-2" d="M201.63668,149.19885a3.2339,3.2339,0,0,1-1.3195,1.019,6.28881,6.28881,0,0,1-.6743-.3469c-.8265-.5552-1.6537-1.1104-2.4589-1.6954a3.4894,3.4894,0,0,1-1.1977-1.265,11.78491,11.78491,0,0,1,1.933-.9224A31.743,31.743,0,0,1,201.63668,149.19885Z" transform="translate(-156.32875 -101.29891)"/><path class="cls-2" d="M205.62238,149.72465a17.72448,17.72448,0,0,1-.6024,1.9891.34511.34511,0,0,1-.5486.1079,1.25668,1.25668,0,0,1-.4923-.8287c-.0598-.8733-.103-1.7484-.1158-2.6235a.60167.60167,0,0,1,.2914-.4177,4.72124,4.72124,0,0,1,1.5271-.5202A4.88925,4.88925,0,0,1,205.62238,149.72465Z" transform="translate(-156.32875 -101.29891)"/><path class="cls-2" d="M207.90308,145.62815a15.0488,15.0488,0,0,1-.2715,4.7456c-.1785-.0596-.3434-.0673-.4292-.1537a1.51,1.51,0,0,1-.3686-.5344,10.056,10.056,0,0,1-.6424-3.1334l1.489-1.4454A1.75534,1.75534,0,0,1,207.90308,145.62815Z" transform="translate(-156.32875 -101.29891)"/><path class="cls-2" d="M200.77838,143.62715a4.959,4.959,0,0,1,1.2075-.0169c1.5601.2426,3.1153.5169,4.6692.7971a2.377,2.377,0,0,1,.5656.2697,3.15357,3.15357,0,0,1-1.4482,1.5142c-.2931-.1508-.5593-.2713-.8092-.4195a8.83723,8.83723,0,0,0-2.1304-.8888c-.7072-.1991-1.4135-.4033-2.1113-.6324a.32839.32839,0,0,1,.0568-.6234Z" transform="translate(-156.32875 -101.29891)"/><path class="cls-2" d="M201.24308,144.88015a16.33174,16.33174,0,0,1,3.5254,1.2869c.2747.1672.6111.2697.698.7176a4.29955,4.29955,0,0,1-1.4954.5886c-1.0357-.3358-1.9855-.6234-2.9204-.9534a5.57342,5.57342,0,0,1-2.0697-.9791A1.96777,1.96777,0,0,1,201.24308,144.88015Z" transform="translate(-156.32875 -101.29891)"/><path class="cls-2" d="M204.42778,138.93c-.6506-.428-1.1051-.726-1.5584-1.0257-.6126-.405-1.2193-.819-1.8386-1.2135a.9114.9114,0,0,1-.4444-.7156,4.05166,4.05166,0,0,1,.1186-2.2683c.4506.0167.6478.3767.9126.6051.7778.6709,1.5137,1.3902,2.2854,2.0684a1.36173,1.36173,0,0,1,.5286,1.1491C204.413,137.92675,204.42778,138.32555,204.42778,138.93Z" transform="translate(-156.32875 -101.29891)"/><path class="cls-2" d="M207.38068,136.82265a17.59528,17.59528,0,0,1-2.0232,1.8718c-.0656.0584-.1978.0421-.3763.0746a7.68555,7.68555,0,0,1-.1219-1.8374,51.4818,51.4818,0,0,0,3.6812-4.1918,4.80673,4.80673,0,0,1,.8983.9193A11.2673,11.2673,0,0,1,207.38068,136.82265Z" transform="translate(-156.32875 -101.29891)"/><path class="cls-3" d="M159.92618,130.50035a2.61006,2.61006,0,0,1-2.537-1.7826,7.4961,7.4961,0,0,1-.5049-1.9139,11.125,11.125,0,0,1,.5315-5.3341c.1593-.4118.2799-.8387.4407-1.2499a3.24168,3.24168,0,0,1,.3298-.5046,6.493,6.493,0,0,1,.6746,1.8394c.2607,1.1467.52,2.2938.7978,3.4364a5.07592,5.07592,0,0,0,.3319.7537c.1539-.1971.2786-.2938.3174-.4174.1652-.5269.3061-1.0616.454-1.5939.3841-1.3833.7647-2.7676,1.1549-4.1491a2.30154,2.30154,0,0,1,.2318-.416,3.29934,3.29934,0,0,1,.8665,1.4537c.2176.8161.4109,1.6407.5672,2.4706a12.74432,12.74432,0,0,1-.0908,4.9407,5.07942,5.07942,0,0,1-.4112,1.1345,2.14242,2.14242,0,0,1-1.6179,1.2148A7.04878,7.04878,0,0,1,159.92618,130.50035Z" transform="translate(-156.32875 -101.29891)"/><path class="cls-3" d="M217.40058,124.28615c-.0397.624-.1287,1.2488-.1158,1.8715a8.57753,8.57753,0,0,1-.3147,2.4023,7.026,7.026,0,0,1-3.1598,4.107,5.07627,5.07627,0,0,1-2.1407.8471,2.72746,2.72746,0,0,1-1.6225-.1677,2.06949,2.06949,0,0,1-1.0167-.9617,8.78256,8.78256,0,0,1-.6971-1.7379,3.63936,3.63936,0,0,1-.0414-1.7522c.1906-.7873.3617-1.581.5927-2.3565a10.13465,10.13465,0,0,1,3.1182-4.7379,1.89831,1.89831,0,0,1,.3727-.2235c.0246-.0132.0696.0117.1536.0289a7.48214,7.48214,0,0,1,.0086,3.1213,10.72858,10.72858,0,0,0-.1481,1.2025c-.0656.9915-.114,1.9842-.1632,2.9766a1.67408,1.67408,0,0,0,.0456.3214c.3814.2085.5495-.1043.7282-.305a40.17085,40.17085,0,0,0,3.4583-4.1633c.2231-.3311.4841-.6369.7277-.9544l.2158.0647C217.402,124.00825,217.40948,124.14775,217.40058,124.28615Z" transform="translate(-156.32875 -101.29891)"/><path class="cls-3" d="M200.15228,136.70925c.0022-.8792-.0166-1.7586-.0254-2.6379-.0034-.3309.0116-.6631-.0108-.9927-.1325-1.9508-.2795-3.9006-.4093-5.8514-.0612-.9197-.0407-1.8478-.1543-2.76a26.3582,26.3582,0,0,0-.5324-4.1615,17.41861,17.41861,0,0,0-.9425-3.0607,12.52447,12.52447,0,0,0-3.7968-4.5392,13.81275,13.81275,0,0,0-4.3798-2.3044,16.79971,16.79971,0,0,0-2.6152-.4297,12.673,12.673,0,0,0-4.2856.2451,16.50762,16.50762,0,0,0-2.9867,1.1544,14.01813,14.01813,0,0,0-4.0863,2.6046,21.87506,21.87506,0,0,0-3.9021,4.9311,10.132,10.132,0,0,0-.7677,1.7132,43.22718,43.22718,0,0,0-1.4371,5.4522c-.2676,1.2237-.5917,2.4361-.8236,3.6661a48.72919,48.72919,0,0,0-.7973,5.5813c-.1224,1.7248-.4143,3.4384-.6507,5.1542a11.66255,11.66255,0,0,0,.1165,3.7277.93273.93273,0,0,0,.4795.6979,8.44883,8.44883,0,0,0,.7826.413,28.93589,28.93589,0,0,0,4.7477,1.4784,44.83,44.83,0,0,0,5.239.8562c1.0251.1187,2.0521.2531,3.0815.291.8816.0324,1.768-.0624,2.6523-.101l.0001-.0616c.8857,0,1.7715.0056,2.6572-.0026a9.89174,9.89174,0,0,0,1.2158-.058c1.6092-.2148,3.2159-.4477,4.8231-.6775a15.84945,15.84945,0,0,0,5.844-2.257,1.446,1.446,0,0,0,.8158-1.4391,10.14516,10.14516,0,0,1,.0648-1.9889A33.90609,33.90609,0,0,0,200.15228,136.70925Zm-9.9735-18.9331a4.69143,4.69143,0,0,1-3.0535,2.0189,4.63144,4.63144,0,0,1-4.3123-1.1124,2.81122,2.81122,0,0,1-.9969-2.5556,4.38253,4.38253,0,0,1,.5529-1.684c.1972.2404.0943.4838.0687.7088-.0538.4739-.1428.9448-.1775,1.4198a1.91921,1.91921,0,0,0,.5739,1.5041,4.14,4.14,0,0,0,3.9942,1.3157,4.61781,4.61781,0,0,0,2.8102-1.6156,3.81556,3.81556,0,0,0,.5932-1.1727c.0806-.2296.0798-.5187.5534-.6506A3.493,3.493,0,0,1,190.17878,117.77615Z" transform="translate(-156.32875 -101.29891)"/><path d="M193.917,106.67365a2.94328,2.94328,0,0,0,.8395-.4434c.0975-.067.1148-.2506.1409-.3135-.0153-.523-.5976-.9145-.9324-.6676a2.10542,2.10542,0,0,0-.6064.7306A.51086.51086,0,0,0,193.917,106.67365Z" transform="translate(-156.32875 -101.29891)"/><path d="M185.88178,104.56525a.78193.78193,0,0,0-.582-.9288.96354.96354,0,0,0-.925.7892.77136.77136,0,0,0,.7577.7902A.69536.69536,0,0,0,185.88178,104.56525Z" transform="translate(-156.32875 -101.29891)"/></svg>