<svg id="layer" xmlns="http://www.w3.org/2000/svg" viewBox="0 0 48.9596 31.29191"><defs><style>.cls-1{fill:#ead8ca;}.cls-2{fill:#fff;}.cls-3{fill:#ff5047;}.cls-4{fill:#ff706b;}.cls-5{fill:#e81d12;}</style></defs><title>crabe2</title><path d="M215.19468,210.92216c-.3444-1.2518-.6937-2.5024-1.0351-3.7551q-.5046-1.8516-.9959-3.7066a2.24782,2.24782,0,0,1-.0121-1.1692.501.501,0,0,0-.0193-.6005c-.7978-.9741-1.5903-1.9525-2.3952-2.9207a4.95465,4.95465,0,0,0-.4816-.4194c-.2933-.2708-.5808-.548-.8571-.8095.0486-.1594.075-.2522.1051-.3438.1549-.471.1491-.5457-.2374-.8433q-1.08255-.83355-2.1882-1.6369c-.7195-.5246-1.4401-1.049-2.1795-1.5449-.6097-.409-1.2372-.7944-1.8768-1.1549-.3724-.21-.5304-.1386-.7672.2274-.1761.2724-.3444.5497-.5196.8302-.1583-.0533-.2683-.086-.375-.1274-.1084-.042-.2097-.106-.3207-.1368a.55027.55027,0,0,0-.7287.2654c-.6515,1.5114-1.3043,3.0223-1.9469,4.5376-.174.4103-.3081.8373-.4722,1.2521-.1023.2585-.2264.5084-.3407.7622-.1604-1.124.0458-2.2234-.125-3.2465-.5455-.2725-1.0455-.4839-1.5063-.7607a7.63349,7.63349,0,0,0-2.744-1.2197c-.0459-.007-.0835-.0687-.0949-.0787.0679-.4504.1172-.8701.2012-1.2827a.66986.66986,0,0,1,.1891-.3406,1.57748,1.57748,0,0,0,1.4076-1.6731c.126-2.3256-1.2306-2.4046-2.0865-2.1697-1.7848.49-1.7951,2.1915-.9614,3.362a1.01052,1.01052,0,0,0,.4145.3108,4.87119,4.87119,0,0,1-.2197,1.5591c-.8039-.0565-1.5532-.1398-2.3037-.1534-.749-.0135-1.4992.0428-2.2415.0683-.0233-.0517-.0525-.0861-.0522-.1201a4.69585,4.69585,0,0,1,.1923-1.4875.79456.79456,0,0,0,.1805-.1772c.8338-1.1705.8234-2.872-.9614-3.362-.8558-.2349-2.2124-.1559-2.0864,2.1697a1.5683,1.5683,0,0,0,.9219,1.5408,1.32884,1.32884,0,0,0,.2541.0902,2.47006,2.47006,0,0,0,.2872.1853c.0309.0138.0484.0574.0679.0818v1.4385a10.7858,10.7858,0,0,0-4.7235,2.3168,7.99252,7.99252,0,0,1,.0896.9661,17.3341,17.3341,0,0,0,.3879,2.8792,6.91284,6.91284,0,0,0,.789,2.4206,2.90629,2.90629,0,0,1,.1382.3724c-.2643-.0606-.4041-.1061-.4347-.3713a3.93806,3.93806,0,0,0-.2794-.88c-.3165-.8545-.686-1.6923-.9509-2.5622-.5128-1.6833-.9681-3.384-1.4379-5.0447a2.51506,2.51506,0,0,0-.8341-.3388c-.4484-.0026-.5981-.2866-.7779-.5825-.0604-.0993-.1067-.2072-.1658-.3074a.63923.63923,0,0,0-.7398-.3284,3.286,3.286,0,0,0-.599.2126,9.83173,9.83173,0,0,0-3.0972,2.3242,16.04273,16.04273,0,0,1-1.5639,1.4698,10.545,10.545,0,0,0-1.4751,1.3947c-.3454.4048-.4106.4719-.2308.7924a2.10107,2.10107,0,0,0-.3876.5561q-.7968,1.13745-1.5774,2.2861c-.0593.0873-1.5634,2.105-1.5979,2.2093-.1825.2057-.3565.4019-.5104.5753a4.65436,4.65436,0,0,1,.1596.7045c.022.4439-.0274.8938.0214,1.3336.1304,1.1752.3069,2.345.4462,3.5192.0799.674.1205,1.3526.1843,2.0285.0155.1642.0007.3564.3027.4285a2.38363,2.38363,0,0,0,.1082-.4754c.0176-.872.0195-1.7444.0276-2.6166.0022-.2318.011-.4636.01-.6954-.0026-.5996.0048-1.1998-.0186-1.7987a3.29283,3.29283,0,0,1,.0719-1.1911c.6578.0734.7823-.0341,1.0166-.652a14.32458,14.32458,0,0,1,1.2497-2.4269c.4673-.7587.9124-1.531,1.3857-2.2857.0825-.1316.2571-.2907.3871-.2888.2422.0034.3428-.1446.4792-.2747.5618-.5357,1.1161-1.0798,1.6903-1.602a3.38742,3.38742,0,0,1,1.3051-.7787c-.2766.5226-.6038.9993-.8994,1.495a10.05221,10.05221,0,0,0-.5791,1.1338.98128.98128,0,0,0-.0747.5641c.0313.143.2019.2556.3202.3927a22.97733,22.97733,0,0,0-3.2931,6.4976c.2054.0947.342.1577.4607.2125a.54083.54083,0,0,1,.0381.1405,48.443,48.443,0,0,0,.2121,6.3385,8.23971,8.23971,0,0,0,.2496,1.3701,1.46,1.46,0,0,0,.2443.395l.1467-.0376a44.7798,44.7798,0,0,0,.8649-7.5917c.7366-.1079.7439-.1426.9299-.8209.533-1.944,1.0849-3.8827,1.634-5.8222a2.63062,2.63062,0,0,1,.1798-.3796c.4009.0885.773.1707,1.1667.2576.4499-.8628.5035-1.8634.9933-2.7138a6.89366,6.89366,0,0,1,1.3426,2.887c-.1519-.0411-.3016-.0705-.4434-.1219-.6405-.232-.6644-.2277-1.0633.2873a10.8385,10.8385,0,0,0-1.6786,3.4328,25.60879,25.60879,0,0,0-.7752,3.1005c-.2973,1.6205-.5255,3.2542-.7575,4.8859-.1228.8635-.176,1.7367-.2918,2.6013a1.01768,1.01768,0,0,0,.3166.9497,6.9988,6.9988,0,0,0,2.7524,1.6876c1.1374.3155,2.2952.5579,3.4449.8289a6.83376,6.83376,0,0,0,1.1355.242q2.14755.127,4.2985.1894a13.65655,13.65655,0,0,0,3.238-.2845,1.26232,1.26232,0,0,1,.4598-.0081,4.97432,4.97432,0,0,0,2.7491-.1957,3.98724,3.98724,0,0,1,.6808-.1494,4.14723,4.14723,0,0,0,2.2818-1.1864,1.13053,1.13053,0,0,1,1.0196-.41,11.64974,11.64974,0,0,0,2.7228-.0547,13.4473,13.4473,0,0,0,3.3032-.8832c.3056-.122.6153-.2364.9293-.334a12.43322,12.43322,0,0,0,2.8172-1.3558.56327.56327,0,0,0,.272-.6933,7.16625,7.16625,0,0,1-.1604-1.0319c-.1704-1.4818-.2814-2.9728-.5162-4.4442-.2285-1.4325-.5478-2.8534-.8898-4.2642-.2872-1.1848-.6375-2.3566-1.0124-3.5171a17.61572,17.61572,0,0,0-.7799-1.8141,2.54409,2.54409,0,0,0-.2797-.3905c-.2781.1431-.5247.2702-.8376.4313a12.69973,12.69973,0,0,1,.9204-2.5627c.0928.1325.1373.1965.1823.2602a8.03428,8.03428,0,0,0,2.0686,1.9423,1.30108,1.30108,0,0,1,.6371.8793c.0384.2094.0865.4171.1211.6271.2011,1.2243.3865,2.4513.6051,3.6725.0911.5088.2509,1.0053.3832,1.5223h.9032a.90217.90217,0,0,1,.0641.2379c-.0376.95-.0607,1.9011-.1279,2.8491-.1152,1.6248-.2627,3.2473-.3855,4.8717a3.12047,3.12047,0,0,0,.0638.5854.69823.69823,0,0,0,.7062-.527,14.40034,14.40034,0,0,0,.7075-2.0258c.2888-1.3039.4872-2.6279.725-3.9431a10.68853,10.68853,0,0,0,.1486-3.1268,7.66048,7.66048,0,0,0-.1538-1.317,23.34316,23.34316,0,0,0-1.5596-3.9127l.0008.0007a8.78216,8.78216,0,0,1,1.2125,1.2384,20.53059,20.53059,0,0,0,2.1279,3.3915.62293.62293,0,0,1,.0981.21c.2212.6613.4393,1.3236.6593,1.9853.1343.404.2584.8118.4083,1.21.184.4888.4009.9652.5829,1.4547a1.19883,1.19883,0,0,0,.6825.8169,1.71158,1.71158,0,0,1,.952,1.0433c.0535.1242.0769.2633.1419.38.095.1705.2253.1981.3847.0097C215.24408,211.14516,215.22488,211.03216,215.19468,210.92216Zm-13.1338-8.9913c.3027,3.8481.2766,7.6241.2003,11.4468-.3191-.0206-.5828-.0302-.8449-.0561a13.78468,13.78468,0,0,0-2.8894.258c-.7508.083-1.4968.2168-2.249.2776a29.62639,29.62639,0,0,0-3.6157.5359,5.00711,5.00711,0,0,1-1.7246-.1022,8.8177,8.8177,0,0,0-2.1391-.1665c-.5912.0518-1.1795.1371-1.7886.2099.0639.5278.6043.385.759.6992-.1029.2224-.285.1507-.4491.1099a15.93147,15.93147,0,0,0-5.4776-.3497c-.516.0517-1.0329.0943-1.5804.144a6.88687,6.88687,0,0,1-.3917-1.9467c-.2107-1.8101-.3852-3.6245-.5714-5.4376-.1102-1.0737-.2153-2.148-.3272-3.2662.1356.0122.2643.0155.3901.0365,1.624.2705,3.2446.5633,4.873.8043a4.81493,4.81493,0,0,1,1.3963.4764,9.401,9.401,0,0,0,6.5554.8526,6.47934,6.47934,0,0,0,2.925-1.6094.74951.74951,0,0,1,.54-.2828,7.534,7.534,0,0,0,2.639-.6399,17.63132,17.63132,0,0,0,3.2381-1.6883C201.67238,202.14076,201.82858,202.06336,202.06088,201.93086Z" transform="translate(-166.30528 -188.76747)"/><path class="cls-1" d="M192.673,192.68876c.6238.7797-.4187,2.8867-1.6701,3.4199C192.20088,195.30746,192.46428,194.03346,192.673,192.68876Z" transform="translate(-166.30528 -188.76747)"/><path class="cls-1" d="M190.51808,196.38986c-.1069.5108-.2022,1.0254-.339,1.5284-.1356.4989-.2657.5711-.7941.5633-.4774-.007-.5232-.0559-.7268-.5044a4.35255,4.35255,0,0,1-.1829-2.0298.348.348,0,0,1,.4245-.3664,13.11836,13.11836,0,0,1,1.3493.2993A.391.391,0,0,1,190.51808,196.38986Z" transform="translate(-166.30528 -188.76747)"/><path class="cls-1" d="M188.09588,196.29436a1.68522,1.68522,0,0,1-1.4605-1.6341,9.10858,9.10858,0,0,1-.0111-1.5047c.0005-.1704.0448-.3121.2487-.3202.2186-.0088.259.1708.2562.3151-.011.5557-.0473,1.1109-.0732,1.6495C187.43988,195.26676,188.09618,195.53856,188.09588,196.29436Z" transform="translate(-166.30528 -188.76747)"/><path class="cls-2" d="M191.61208,190.96906a1.48152,1.48152,0,0,1,.4528-1.5049,1.51841,1.51841,0,0,1,2.5629,1.1082,2.08951,2.08951,0,0,1-.0116.618,1.34653,1.34653,0,0,1-1.4996,1.1995C192.28728,192.33276,191.83148,191.91116,191.61208,190.96906Z" transform="translate(-166.30528 -188.76747)"/><path class="cls-2" d="M185.01488,191.19036a2.08615,2.08615,0,0,1-.0116-.618,1.51834,1.51834,0,0,1,2.5628-1.1082,1.48157,1.48157,0,0,1,.4529,1.5049c-.2194.9421-.6753,1.3637-1.5046,1.4208A1.34649,1.34649,0,0,1,185.01488,191.19036Z" transform="translate(-166.30528 -188.76747)"/><path class="cls-3" d="M187.44078,194.33156a17.12775,17.12775,0,0,1,4.474.0548,1.92589,1.92589,0,0,1-1.0276,1.3587,3.54647,3.54647,0,0,0-2.779-.3341C187.93838,195.23056,187.24868,194.88046,187.44078,194.33156Z" transform="translate(-166.30528 -188.76747)"/><path class="cls-3" d="M186.25448,194.63116c.0309.1161.0558.2056.0787.2957a2.17707,2.17707,0,0,0,1.3075,1.6642.74277.74277,0,0,1,.4878.6416,8.57238,8.57238,0,0,0,.3435,1.1058.6368.6368,0,0,0,.6682.4422c1.1221.0101,1.122.024,1.4439-1.0391a.84467.84467,0,0,0,.0342-.111,1.67572,1.67572,0,0,1,1.0332-1.4052,2.21578,2.21578,0,0,0,.7888-.8281c.2144-.3211.6208-.6243.943-.4894.7839.3285,2.8271.7823,3.6643,1.9214-.645-.0941-2.0098-.1952-2.6552-.2865a2.55249,2.55249,0,0,0-1.955.2797,1.87529,1.87529,0,0,0-.7064.8894,7.44639,7.44639,0,0,1-.5853,1.258,1.75744,1.75744,0,0,1-2.9093.1167,7.425,7.425,0,0,1-.8872-1.5588,1.19269,1.19269,0,0,0-1.4447-.8676c-.7327.0636-1.4587.2-2.1899.2852a3.20258,3.20258,0,0,1-1.4553-.0047C182.706,195.62156,185.53968,194.84546,186.25448,194.63116Z" transform="translate(-166.30528 -188.76747)"/><path class="cls-4" d="M187.87418,214.59216c1.5328-.4331,2.9037.0258,4.3246.2135.0543.6157.1025,1.1634.1621,1.8388-1.3193-.6695-2.6872-.625-3.8389-1.3988C188.613,214.89426,188.25218,214.78116,187.87418,214.59216Z" transform="translate(-166.30528 -188.76747)"/><path class="cls-4" d="M190.32018,216.44286a4.12926,4.12926,0,0,1,2.5872.881,6.36783,6.36783,0,0,1-2.5312.3502C190.35788,217.27066,190.339,216.85556,190.32018,216.44286Z" transform="translate(-166.30528 -188.76747)"/><path class="cls-4" d="M194.63128,218.45a4.12555,4.12555,0,0,1-1.7516.7129,4.62629,4.62629,0,0,0-.8879.2565,2.98139,2.98139,0,0,1-1.5698.0945c0-.3831-.0045-.7285.0031-1.0737a1.44252,1.44252,0,0,1,.0666-.2861h4.4528A1.88675,1.88675,0,0,1,194.63128,218.45Z" transform="translate(-166.30528 -188.76747)"/><path class="cls-3" d="M174.52218,214.59346a54.10108,54.10108,0,0,1,1.0604-6.9563,15.69428,15.69428,0,0,1,1.6809-4.5704,2.73208,2.73208,0,0,1,.9062-1.0451c.1303.5511.2679,1.014.347,1.4868.4159,2.4881.6499,4.997.8551,7.5101.093,1.1391.2706,2.2714.408,3.4069.0179.1479.0249.2972.0404.488-.5015,0-.9629-.0183-1.4223.0034a5.75561,5.75561,0,0,0-3.78,1.2327,1.612,1.612,0,0,1-.225.126C174.43868,215.67876,174.47938,215.13606,174.52218,214.59346Z" transform="translate(-166.30528 -188.76747)"/><path class="cls-3" d="M185.47258,219.71156c-.7169-.0167-1.4345-.0039-2.1514-.0185a10.79843,10.79843,0,0,1-2.5284-.3263c-1.1217-.2932-2.2631-.5113-3.3842-.8068a6.13851,6.13851,0,0,1-2.8412-1.7652,2.16525,2.16525,0,0,1,1.3094-1.098,6.2312,6.2312,0,0,1,3.2469-.4773c1.2462.2522,2.4048-.208,3.6122-.1921a18.82129,18.82129,0,0,1,4.214.3341,8.9484,8.9484,0,0,0,1.1225.2338,3.39238,3.39238,0,0,1,1.56.6001.7343.7343,0,0,1,.308.4515c.0386.4124.0222,2.1576.0774,2.5344A12.84506,12.84506,0,0,1,185.47258,219.71156Z" transform="translate(-166.30528 -188.76747)"/><path class="cls-3" d="M205.02448,215.51316c-.6626.3147-1.355.568-2.0407.8322-.6854.264-1.3661.5496-2.0695.755a10.01274,10.01274,0,0,1-4.361.4216,2.82947,2.82947,0,0,0-1.3188.0983,7.1744,7.1744,0,0,1-2.6956.1914c.3715-.1747.8432.0037,1.1585-.474a3.66047,3.66047,0,0,0-.6011-.354.58092.58092,0,0,1-.3822-.5282c-.0568-.343-.1056-.6875-.1504-1.0324-.0637-.4889.0367-.6968.5249-.8126a17.03374,17.03374,0,0,1,1.9449-.3378c.9418-.1102,1.8912-.1556,2.8331-.2646.6915-.08,1.3772-.2119,2.0636-.331a7.45625,7.45625,0,0,1,2.1985.051,1.43911,1.43911,0,0,0,.5152.0401,4.805,4.805,0,0,1,2.0209.0557,1.95251,1.95251,0,0,1,1.4019.9742A7.7238,7.7238,0,0,1,205.02448,215.51316Z" transform="translate(-166.30528 -188.76747)"/><path class="cls-3" d="M202.75268,199.71426a8.00986,8.00986,0,0,1,1.0063,2.2323c.3471,1.2301.7233,2.4542,1.0099,3.6986.3391,1.4719.6452,2.9553.8731,4.4478.1809,1.1851.2232,2.3915.3237,3.5887a.89262.89262,0,0,1-.0463.2119,6.34466,6.34466,0,0,0-3.2274-.6349c-.0266-.5921-.0676-1.1295-.0717-1.6672-.0099-1.3174-.0218-2.6352.0019-3.9522.036-1.9982-.1244-3.9869-.2209-5.9795A3.21653,3.21653,0,0,1,202.75268,199.71426Z" transform="translate(-166.30528 -188.76747)"/><path class="cls-5" d="M183.39728,203.84746c.2673.3035.5314.6097.8165.938-.8483-.1394-1.7231-.2864-2.5991-.4263-.8957-.143-1.7927-.279-2.7206-.423-.1121-.5775-.2212-1.1394-.359-1.8501C179.78118,202.50036,183.36,203.80516,183.39728,203.84746Z" transform="translate(-166.30528 -188.76747)"/><path class="cls-5" d="M202.09058,199.89376l.0843.0529c-.0349.4009-.0596.8031-.1119,1.2017a.48977.48977,0,0,1-.1797.2724,9.22642,9.22642,0,0,1-1.2296.9595,16.17971,16.17971,0,0,1-3.8216,1.6726,2.33144,2.33144,0,0,1-.9433.0276c.0802-.0428.1607-.0852.2407-.1285.5445-.2943,1.1151-.5497,1.628-.8914,1.0645-.7094,2.0947-1.47,3.1482-2.1963A8.46758,8.46758,0,0,0,202.09058,199.89376Z" transform="translate(-166.30528 -188.76747)"/><path class="cls-3" d="M197.51458,200.64266c.491-1.2844.9419-2.5854,1.4724-3.8532.433-1.0346.9573-2.031,1.4427-3.0437a1.32969,1.32969,0,0,1,.0993-.1508c.5371.1877.6458.6837.8892,1.0561.1648.2522-.0473.4802-.1394.706q-.63705,1.56105-1.2839,3.1181c-.4778,1.1422-.9543,2.2853-1.4572,3.4164a1.40465,1.40465,0,0,1-.4776.549c-.4897.3357-1.0082.6293-1.5152.9398l-.0579-.0945C196.82988,202.405,197.17708,201.52566,197.51458,200.64266Z" transform="translate(-166.30528 -188.76747)"/><path class="cls-3" d="M180.56208,197.78886c.3877,1.4563.8881,2.8827,1.343,4.3211.0793.2511.1703.4986.2827.8257a4.50241,4.50241,0,0,1-1.501-.479.54733.54733,0,0,1-.2245-.2529q-.34095-.89145-.6532-1.7938c-.3458-1.0052-.6484-2.0267-1.0333-3.0164a1.374,1.374,0,0,1,.0709-1.366c.136-.2097.2128-.457.3386-.6744a5.49728,5.49728,0,0,1,.379-.5029A30.32575,30.32575,0,0,1,180.56208,197.78886Z" transform="translate(-166.30528 -188.76747)"/><path class="cls-3" d="M171.83448,215.38076a21.85114,21.85114,0,0,1-.3392-7.2488c.3375.1123.6488.2158,1.0141.3372A32.4405,32.4405,0,0,1,171.83448,215.38076Z" transform="translate(-166.30528 -188.76747)"/><path class="cls-3" d="M174.84048,202.87506c-.4654,1.5791-.9065,3.1654-1.3559,4.7493-.1725.608-.1812.6575-.7931.5332a16.55938,16.55938,0,0,1-1.7488-.5541c.0726-.2784.1113-.4821.1786-.6758a20.68625,20.68625,0,0,1,2.2285-4.4642,5.8416,5.8416,0,0,1,.6187-.769c.4146-.4489.4217-.4423,1.0804-.2644A3.239,3.239,0,0,1,174.84048,202.87506Z" transform="translate(-166.30528 -188.76747)"/><path class="cls-3" d="M176.64208,201.446c-.2651-.0254-.4763-.0282-.6801-.0685-.5135-.1016-1.0249-.2149-1.5349-.333-.5603-.1297-.6698-.3266-.4715-.8733a3.01366,3.01366,0,0,1,.2914-.5683c.4444-.7058.8902-1.4112,1.3513-2.1061.2331-.3515,1.9389-2.2825,2.481-2.8438a.8972.8972,0,0,1,1.1756-.0432A21.83593,21.83593,0,0,0,176.64208,201.446Z" transform="translate(-166.30528 -188.76747)"/><path class="cls-3" d="M205.35158,198.75846a28.67323,28.67323,0,0,1-2.8724-3.234,23.49227,23.49227,0,0,1-1.3493-2.2543c.2929.1528.5916.2958.878.4601a19.47463,19.47463,0,0,1,4.272,3.0958c.4439.4491.4541.492.036.9344C206.00178,198.093,205.68038,198.41866,205.35158,198.75846Z" transform="translate(-166.30528 -188.76747)"/><path class="cls-3" d="M209.292,207.29486c-.2043,1.3983-.4314,2.7946-.7048,4.1808a13.63,13.63,0,0,1-.5714,1.7664,2.52113,2.52113,0,0,1-.2113.3852l-.1006-.0273q.30465-4.03485.6095-8.0747c.3448-.1703.6348-.3135.9746-.4814a1.52946,1.52946,0,0,1,.1077.3983A16.92379,16.92379,0,0,1,209.292,207.29486Z" transform="translate(-166.30528 -188.76747)"/><path class="cls-3" d="M209.30018,204.07476a.5699.5699,0,0,1-.1305.4683,3.9852,3.9852,0,0,1-1.8821.8655,5.42685,5.42685,0,0,1-.5055-1.7501q-.2967-1.83615-.597-3.6719a1.56621,1.56621,0,0,0-.069-.2223c-.309-.9528-.3093-.9531.4113-1.6353.0556-.0527.1186-.0977.2532-.2076.3027.5726.5768,1.0819.8424,1.5955a16.22745,16.22745,0,0,1,1.2597,2.8694C209.04518,202.94256,209.18568,203.50686,209.30018,204.07476Z" transform="translate(-166.30528 -188.76747)"/><path class="cls-5" d="M167.35858,211.32426c-.7802-4.8896-.7835-5.275-.5473-5.8154a2.03364,2.03364,0,0,1,.2499.0868c.086.042.1635.1013.2974.1866Z" transform="translate(-166.30528 -188.76747)"/><path class="cls-5" d="M170.80038,200.90246c-.5597.9521-1.1411,1.8917-1.6891,2.8505-.2392.4187-.4149.8734-.6248,1.3092a2.247,2.247,0,0,1-.2822.5032c-.0713.0825-.3107.1539-.3374.1205-.2952-.3688-.8814-.2336-1.13-.666a1.65939,1.65939,0,0,0-.1571-.195c.1175-.2089.2345-.4165.3516-.6247.1334-.1304,1.6484-2.2089,1.762-2.3548q.87045-1.1187,1.7222-2.2521c.0344-.0457.1304-.128.2046-.2055.2419.1441.4866.2899.7547.4497C171.16488,200.22866,170.99448,200.57246,170.80038,200.90246Z" transform="translate(-166.30528 -188.76747)"/><path class="cls-5" d="M174.68978,197.48966c-.7923.6824-1.6004,1.3465-2.4015,2.0187-.1483.1244-.2956.2498-.471.398-.4585-.3684-.8743-.7024-1.3189-1.0595a5.22731,5.22731,0,0,1,1.308-1.469,14.58766,14.58766,0,0,0,2.1349-1.9658,7.56009,7.56009,0,0,1,2.9144-2.0707c.7291-.2718.8039-.2615,1.2254.3937.0523.0814.1034.164.149.2492a.13808.13808,0,0,1,.0159.0669c-.5921.6167-1.1502,1.2318-1.7456,1.8085C175.91738,196.42426,175.30508,196.95976,174.68978,197.48966Z" transform="translate(-166.30528 -188.76747)"/><path class="cls-5" d="M178.81288,200.33966a12.06794,12.06794,0,0,0-.728-1.3086.77344.77344,0,0,1-.1191-.8033c.1317-.3164.2156-.6527.3205-.9803l.1394-.0124c.5438,1.6374,1.0876,3.2748,1.6465,4.9576a.50254.50254,0,0,1-.568-.3222C179.28468,201.35546,179.06108,200.84126,178.81288,200.33966Z" transform="translate(-166.30528 -188.76747)"/><path class="cls-5" d="M202.58188,196.86016c-.3408.9691-.6638,1.9444-1.0032,2.914a.73237.73237,0,0,1-.2212.3315,23.0406,23.0406,0,0,1-2.3646,1.6198c.2009-.535.3861-1.0765.6058-1.6037.5139-1.2332,1.0426-2.4603,1.5693-3.6882.1732-.4039.3581-.8028.5732-1.2832.2962.4233.5137.7437.7415,1.0566A.65258.65258,0,0,1,202.58188,196.86016Z" transform="translate(-166.30528 -188.76747)"/><path class="cls-5" d="M207.84678,199.178q-.1242-.23475-.2536-.4674a3.90982,3.90982,0,0,1-.4553-1.1819,1.5291,1.5291,0,0,0-.5182-.933,21.82677,21.82677,0,0,0-3.8842-2.8504c-.7772-.4334-.7894-.5691-.2251-1.2498a1.106,1.106,0,0,1,.1656-.1279,6.13158,6.13158,0,0,1,1.994,1.112c.7351.5048,1.4388,1.0566,2.1848,1.5442a19.26531,19.26531,0,0,1,2.3538,1.858c-.1341.3011-.243.5892-.3873.8582-.1832.3417-.4004.6649-.5935,1.0015A2.25077,2.25077,0,0,1,207.84678,199.178Z" transform="translate(-166.30528 -188.76747)"/><path class="cls-5" d="M210.92638,203.04636c-.4774-.8204-.9369-1.6511-1.4117-2.473a1.85274,1.85274,0,0,0-.3484-.4626,1.44554,1.44554,0,0,1-.5038-1.232,3.48811,3.48811,0,0,1,.372-.914,6.59525,6.59525,0,0,1,1.9134,1.6678c.2174.3399.5292.6179.7811.9374.2634.334.4857.702.7635,1.0225a.75345.75345,0,0,1,.0458,1.0045c-.2604.4051-.5323.8028-.8023,1.2082A1.405,1.405,0,0,1,210.92638,203.04636Z" transform="translate(-166.30528 -188.76747)"/><path class="cls-5" d="M213.40678,208.86986q-.7974-2.02635-1.4405-4.1051a.89068.89068,0,0,1,.0978-.8265c.2063-.3021.4054-.6092.6061-.9161.0817.3097.1602.6202.2463.9287.271.9708.5515,1.9389.816,2.9114.2592.9531.5033,1.9102.7685,2.9207A1.56645,1.56645,0,0,1,213.40678,208.86986Z" transform="translate(-166.30528 -188.76747)"/><path d="M187.36808,191.03276a.67329.67329,0,0,0-.5083-.6503.72208.72208,0,0,0-.7477.6516c-.0248.351.1374.5777.4219.5899A.87785.87785,0,0,0,187.36808,191.03276Z" transform="translate(-166.30528 -188.76747)"/><path d="M193.51908,191.03406a.72224.72224,0,0,0-.7478-.6516.6734.6734,0,0,0-.5083.6503.87785.87785,0,0,0,.8341.5912C193.38158,191.61176,193.54378,191.38506,193.51908,191.03406Z" transform="translate(-166.30528 -188.76747)"/><path class="cls-1" d="M197.16078,197.20056c0-.017-.0169-.0341-.0202-.0404a8.19392,8.19392,0,0,1-.9622-.0063c-.6919-.0859-1.3827-.1884-2.0683-.315a1.78292,1.78292,0,0,0-2.1903,1.2203,3.4759,3.4759,0,0,1-.546,1.1446,2.06916,2.06916,0,0,1-3.1449.3664,3.428,3.428,0,0,1-.933-1.3155c-.0872-.2356-.2083-.4585-.3116-.6883a.85143.85143,0,0,0-.9196-.5616c-.3281.0288-.6576.0432-.9856.0732a9.82861,9.82861,0,0,1-3.1023.187,10.0745,10.0745,0,0,0,.0091,1.2407c.0913.7107.2441,1.4132.36,2.121a6.20342,6.20342,0,0,0,3.9095,4.9008c.5637.2474,1.1734.3894,1.7607.584a7.12544,7.12544,0,0,0,4.2434-.0458,5.99771,5.99771,0,0,0,3.0084-1.8968,6.72382,6.72382,0,0,0,1.1213-1.5454A12.83357,12.83357,0,0,0,197.16078,197.20056Zm-7.7273,6.7077a1.47955,1.47955,0,0,1-1.3416-.7216,3.51639,3.51639,0,0,1-.3872-1.7709c-.0078-.3055.2806-.0399.2853.1412a2.37646,2.37646,0,0,0,.349,1.5203,1.2348,1.2348,0,0,0,1.3112.3285,2.11713,2.11713,0,0,0,1.2458-2.2593c-.0172-.305.2751-.0382.2852.1412C191.24268,202.37826,190.75058,203.871,189.43348,203.90826Z" transform="translate(-166.30528 -188.76747)"/></svg>