<svg id="layer" xmlns="http://www.w3.org/2000/svg" viewBox="0 0 27.05043 29.58102"><defs><style>.cls-1{fill:#158898;}.cls-2{fill:#39a4b3;}</style></defs><title>etoile1</title><path d="M259.53135,166.14656a12.20472,12.20472,0,0,0,2.556-2.655,4.93488,4.93488,0,0,0,.3418-.5437,2.05437,2.05437,0,0,0,.2375-1.6232c-.2689-.8982-.4858-1.8136-.7889-2.6998-.3987-1.1657-.8439-2.3164-1.3009-3.4608a5.17989,5.17989,0,0,1-.5209-1.504,4.01278,4.01278,0,0,1-.0113-.8779.92966.92966,0,0,1,1.2236-.8092,3.38783,3.38783,0,0,1,1.0975.4738c.8328.6265,1.6377,1.29,2.4294,1.9722.9559.8238,1.7991,1.7603,2.7488,2.5865a3.546,3.546,0,0,0,1.9366.8977,1.00745,1.00745,0,0,0,.9335-.3431c.2884-.3146.6255-.5841.9331-.8817,1.0593-1.0242,2.1042-2.0636,3.1756-3.0751a7.94325,7.94325,0,0,1,2.8838-1.7005,2.833,2.833,0,0,1,1.3507-.0628,1.58465,1.58465,0,0,1,1.1317.8204,1.056,1.056,0,0,1,.0908.8556,4.93975,4.93975,0,0,1-.7474,1.6814c-.1371.198-.2858.3902-.4021.6001q-1.20795,2.17965-2.4018,4.3673a6.24013,6.24013,0,0,0-.2592.5862,2.47394,2.47394,0,0,0,.4894,2.6952,30.09312,30.09312,0,0,0,2.1841,2.2421,28.68169,28.68169,0,0,1,3.5429,3.6048,6.64886,6.64886,0,0,1,.9904,1.9173,1.34059,1.34059,0,0,1-1.4649,1.8156,2.01656,2.01656,0,0,1-1.0482-.375,27.86948,27.86948,0,0,1-2.4821-1.7732,7.09121,7.09121,0,0,0-.9263-.6375,22.61831,22.61831,0,0,0-2.4018-1.4621,3.593,3.593,0,0,0-1.5473-.3787.9173.9173,0,0,0-.7691.3561,3.3774,3.3774,0,0,0-.6926,1.349c-.1977.8335-.3817,1.6715-.5349,2.5142a37.78441,37.78441,0,0,0-.455,4.3151,14.61981,14.61981,0,0,1-.5095,2.6793,2.70242,2.70242,0,0,1-1.3116,1.5703,1.26653,1.26653,0,0,1-1.7869-.505,3.34655,3.34655,0,0,1-.3052-.8247,48.92105,48.92105,0,0,1-1.0846-6.2545c-.0275-.3206-.0297-.6446-.0785-.9617-.0936-.6082-.1965-1.216-.3277-1.8169a3.42921,3.42921,0,0,0-.2958-.745.75557.75557,0,0,0-.8547-.4494,6.87819,6.87819,0,0,0-1.4742.377c-1.0322.3764-2.0699.7409-3.1176,1.0713a10.06339,10.06339,0,0,1-1.4921.3094,1.85731,1.85731,0,0,1-1.5516-.5188,1.08809,1.08809,0,0,1-.1977-1.5785,6.37563,6.37563,0,0,1,.5135-.6187c.3348-.3827.6661-.7689,1.0136-1.1397C258.63155,167.06046,259.08465,166.60646,259.53135,166.14656Z" transform="translate(-256.41518 -151.78917)"/><path class="cls-1" d="M278.91835,152.12306a2.52943,2.52943,0,0,0-1.5773.0627,8.45729,8.45729,0,0,0-2.7521,1.7715c-.9789.9522-1.9529,1.9092-2.9385,2.8544-.4249.4075-.8777.7858-1.3088,1.1871a.67818.67818,0,0,1-.5088.187,3.32139,3.32139,0,0,1-2.2197-.8096c-.9191-.8173-1.8323-1.6437-2.7065-2.5081a29.826,29.826,0,0,0-2.7379-2.2314,2.10267,2.10267,0,0,0-1.1989-.4187.51751.51751,0,0,0-.5879.4348,1.628,1.628,0,0,0,.0025,1.029c.2416.6814.4803,1.3642.7398,2.0388.6447,1.6769,1.2548,3.3651,1.7299,5.0991a4.57469,4.57469,0,0,1,.178.8646,1.76555,1.76555,0,0,1-.0788.7862,5.27436,5.27436,0,0,1-.6881,1.2626,14.60274,14.60274,0,0,1-2.6305,2.785c-.3066.2826-.6832.5893-1.0108.9415-.4737.5092-.9155,1.0484-1.3637,1.5809a5.71477,5.71477,0,0,0-.4279.5819.62251.62251,0,0,0,.039.7501,1.58853,1.58853,0,0,0,1.5235.7174,6.30472,6.30472,0,0,0,1.3368-.2666c1.0943-.3589,2.177-.7538,3.2594-1.1478a6.5006,6.5006,0,0,1,1.64-.3796.8815.8815,0,0,1,.8817.4396,3.29245,3.29245,0,0,1,.2201.4276,6.28146,6.28146,0,0,1,.5211,2.1799,35.67948,35.67948,0,0,0,.5728,4.6261q.28515,1.41945.6031,2.8321a3.53573,3.53573,0,0,0,.2803.7509.93385.93385,0,0,0,1.2198.4435,2.47054,2.47054,0,0,0,1.321-1.4513,12.427,12.427,0,0,0,.5548-3.0796,10.26512,10.26512,0,0,1,.0743-1.2841c.1823-1.3548.3641-2.7105.5938-4.0577a9.047,9.047,0,0,1,.4899-1.6958,4.39147,4.39147,0,0,1,.5886-.9497.92617.92617,0,0,1,.8426-.3789,4.06707,4.06707,0,0,1,1.4888.2918,21.13783,21.13783,0,0,1,3.4889,2.1356c.8799.6094,1.7415,1.2459,2.6306,1.8415a2.30018,2.30018,0,0,0,.8832.3575,1.05274,1.05274,0,0,0,1.2368-1.3142,3.16857,3.16857,0,0,0-.1176-.4679,6.64776,6.64776,0,0,0-1.1259-1.9349,24.54805,24.54805,0,0,0-2.8523-2.8243c-.8647-.7693-1.6595-1.5986-2.4532-2.433a3.79511,3.79511,0,0,1-.7721-1.2158,1.86219,1.86219,0,0,1-.1169-1.1002,5.32421,5.32421,0,0,1,.5483-1.5887c.2779-.4887.5269-.9937.8079-1.4804.6694-1.1596,1.3674-2.303,2.0179-3.4729a7.8839,7.8839,0,0,0,.6181-1.4769A1.00217,1.00217,0,0,0,278.91835,152.12306Zm-18.6922,17.2973a.95121.95121,0,0,1-1.0435.5766,1.00985,1.00985,0,0,1-.7752-.9952.82008.82008,0,0,1,.1805-.3518,1.1963,1.1963,0,0,1,1.0884-.3415C260.32965,168.48076,260.39935,168.92166,260.22615,169.42036Zm2.6715-1.9164a.79568.79568,0,0,1-.5653.7855.93087.93087,0,0,1-.9069-.3843,2.36788,2.36788,0,0,1-.2039-.5197c-.1288-.4357-.0551-.6925.2237-.8395a1.02158,1.02158,0,0,1,1.2627.2286A3.62721,3.62721,0,0,1,262.89765,167.504Zm6.0018,11.9067a.65488.65488,0,0,1-.9141-.4958,1.14971,1.14971,0,0,1-.0066-.3196c.0259-.358.1518-.5458.4081-.6227a.64167.64167,0,0,1,.7042.2678A.76537.76537,0,0,1,268.89945,179.41066Zm.3037-3.7288a.70814.70814,0,0,1-.2887.9637.69366.69366,0,0,1-.9559-.2921,3.01754,3.01754,0,0,1-.2477-.8302.50683.50683,0,0,1,.2787-.6025.66713.66713,0,0,1,.6807.0729,2.03154,2.03154,0,0,1,.2449.2471A5.12693,5.12693,0,0,1,269.20315,175.68186Zm1.5541-15.1953a.72128.72128,0,0,1,.9405-.1322,3.95746,3.95746,0,0,1,.3825.2605,1.289,1.289,0,0,1,.1645,1.5551.8963.8963,0,0,1-1.132.2887A1.28108,1.28108,0,0,1,270.75725,160.48656Zm-8.6393-5.4348a.656.656,0,0,1,1.0076-.2652,1.138,1.138,0,0,1,.3457,1.294c-.2075.4525-.7499.4875-1.151.0378A.94169.94169,0,0,1,262.118,155.05176Zm1.765,3.5701a1.48946,1.48946,0,0,1-.1746-.8526.62645.62645,0,0,1,.9696-.5547,1.57353,1.57353,0,0,1,.2719.194,1.1664,1.1664,0,0,1,.026,1.4598.52466.52466,0,0,1-.2793.1391A.761.761,0,0,1,263.883,158.62186Zm1.4295,2.6586a2.1697,2.1697,0,0,1-.1262-.3809c-.1428-.5411-.0506-.7895.3696-1.0146a.90093.90093,0,0,1,1.1364.0937,1.49158,1.49158,0,0,1,.4072,1.1613.67793.67793,0,0,1-.154.3564A1.02729,1.02729,0,0,1,265.31245,161.28046Zm3.7082,10.6163a1.02967,1.02967,0,0,1-.2595,1.2915.83957.83957,0,0,1-1.1407-.2106.86005.86005,0,0,1,.0983-1.2092A1.00683,1.00683,0,0,1,269.02065,171.89676Zm-4.6391-5.1385a1.04732,1.04732,0,0,1,.3307-1.5739.94758.94758,0,0,1,1.3913.6865,1.18629,1.18629,0,0,1-.3421,1.0859A.89735.89735,0,0,1,264.38155,166.75826Zm4.9517,2.766a.83562.83562,0,0,1-1.1949.2614,1.08444,1.08444,0,0,1-.6153-.8818,3.83218,3.83218,0,0,0-.0785-.4214.85882.85882,0,0,1,.7812-.6577,1.50825,1.50825,0,0,1,1.07.2489.4092.4092,0,0,1,.0579.0555A1.03954,1.03954,0,0,1,269.33325,169.52426Zm1.2073-5.5821a.97476.97476,0,0,1,.0397.1551,2.178,2.178,0,0,1-1.8512,2.312,1.16478,1.16478,0,0,1-.8177-.2676c-.1441-.1178-.269-.2591-.4692-.4551a2.63586,2.63586,0,0,1-.5145-2.028,1.66543,1.66543,0,0,1,1.339-1.2186A2.10054,2.10054,0,0,1,270.54055,163.94216Zm2.9104,2.2529a.62.62,0,0,1-.679-.0026,1.36257,1.36257,0,0,1-.2175-1.8524.89913.89913,0,0,1,.0797-.0681.88659.88659,0,0,1,.2024-.0561,1.08071,1.08071,0,0,1,.6144,1.9792Zm2.9203,1.245a.61945.61945,0,0,1-.6789-.0025,1.36249,1.36249,0,0,1-.2176-1.8524.36439.36439,0,0,1,.2821-.1242,1.0807,1.0807,0,0,1,.6144,1.9791Zm1.6789,1.4763a1.511,1.511,0,0,1-.1815-.5235.58507.58507,0,0,1,.2839-.6869.82005.82005,0,0,1,.9629.1436.953.953,0,0,1-.0803,1.3A.73572.73572,0,0,1,278.05015,168.91636Zm3.3654.7909a4.8139,4.8139,0,0,1,.2447.5058.64407.64407,0,0,1-.3122.8187.54515.54515,0,0,1-.7014-.0577,1.36324,1.36324,0,0,1-.3543-1.0745c-.0007-.2273.2024-.3701.4134-.4468A.66707.66707,0,0,1,281.41555,169.70726Zm-7.3844-10.0929a.93239.93239,0,0,1-1.2732-.2434,1.02783,1.02783,0,0,1,.1396-1.3698.92989.92989,0,0,1,1.2945.0838A1.2048,1.2048,0,0,1,274.03115,159.61436Zm2.3579-3.4025a1.55786,1.55786,0,0,1-.1131.5431.714.714,0,0,1-1.2734.1937,1.04713,1.04713,0,0,1,.0403-1.315.398.398,0,0,1,.0591-.0527.81817.81817,0,0,1,.8361.0336A.62664.62664,0,0,1,276.38905,156.21186Zm1.8622-2.3032a1.55965,1.55965,0,0,1-.1131.5431.7141.7141,0,0,1-1.2735.1937,1.04712,1.04712,0,0,1,.0404-1.3149.38832.38832,0,0,1,.0591-.0528.81773.81773,0,0,1,.8361.0337A.62652.62652,0,0,1,278.25125,153.90866Z" transform="translate(-256.41518 -151.78917)"/><path class="cls-2" d="M269.64745,165.67006a5.09052,5.09052,0,0,0,.3365-.4262,1.55456,1.55456,0,0,0,.038-1.7399,1.624,1.624,0,0,0-1.4768-.804,1.421,1.421,0,0,0-1.3482,1.4123,2.12226,2.12226,0,0,0,.7393,1.621A1.154,1.154,0,0,0,269.64745,165.67006Z" transform="translate(-256.41518 -151.78917)"/><path class="cls-2" d="M267.90565,168.249c-.0254.13-.0524.2591-.0756.3888a.82367.82367,0,0,0,.5024.9075.46716.46716,0,0,0,.5925-.0573,1.36536,1.36536,0,0,0,.3113-.4518.68534.68534,0,0,0-.5618-.9483A.96424.96424,0,0,0,267.90565,168.249Z" transform="translate(-256.41518 -151.78917)"/><path class="cls-2" d="M266.58355,160.34466c-.2809-.339-.5444-.3903-.8392-.226a.50486.50486,0,0,0-.2695.6653,2.01127,2.01127,0,0,0,.1274.3763.68579.68579,0,0,0,.8916.2867.51969.51969,0,0,0,.2552-.676A3.06279,3.06279,0,0,0,266.58355,160.34466Z" transform="translate(-256.41518 -151.78917)"/><path class="cls-2" d="M271.82445,160.79156c-.0372-.0381-.0726-.0783-.112-.114a.54347.54347,0,0,0-.9156.1876,1.0978,1.0978,0,0,0,.2338,1.1836.6061.6061,0,0,0,1.0335-.2283A.94635.94635,0,0,0,271.82445,160.79156Z" transform="translate(-256.41518 -151.78917)"/><path class="cls-2" d="M264.68525,166.62946a.5659.5659,0,0,0,.902.0718.87942.87942,0,0,0-.0199-1.2187.71861.71861,0,0,0-.4436-.1254.65888.65888,0,0,0-.6038.4528A.79214.79214,0,0,0,264.68525,166.62946Z" transform="translate(-256.41518 -151.78917)"/><path class="cls-2" d="M272.853,164.495a.98624.98624,0,0,0-.2762.6884.81682.81682,0,0,0,.3203.6874.33357.33357,0,0,0,.49-.0351.78482.78482,0,0,0,.1779-.8035A.66859.66859,0,0,0,272.853,164.495Z" transform="translate(-256.41518 -151.78917)"/><path class="cls-2" d="M275.79785,165.75836a.98588.98588,0,0,0-.2761.6883.81686.81686,0,0,0,.3202.6874.33364.33364,0,0,0,.49-.035.78466.78466,0,0,0,.1779-.8035A.66835.66835,0,0,0,275.79785,165.75836Z" transform="translate(-256.41518 -151.78917)"/><path class="cls-2" d="M262.43935,167.92516a.71336.71336,0,0,0,.1132-.1772.90638.90638,0,0,0-.1938-.8932.4938.4938,0,0,0-.5845-.1293.409.409,0,0,0-.2159.2095.89773.89773,0,0,0,.3326.9881A.48155.48155,0,0,0,262.43935,167.92516Z" transform="translate(-256.41518 -151.78917)"/><path class="cls-2" d="M273.93385,158.23406a.633.633,0,0,0-1.0387.1794.82493.82493,0,0,0,.189.8804.57762.57762,0,0,0,.6537.1479.77545.77545,0,0,0,.3391-.8302A1.91391,1.91391,0,0,0,273.93385,158.23406Z" transform="translate(-256.41518 -151.78917)"/><path class="cls-2" d="M264.69945,157.60936c-.0212-.0215-.0521-.0788-.097-.0937-.1193-.0397-.2619-.1107-.363-.0759a.44221.44221,0,0,0-.2323.2834.828.828,0,0,0,.1732.7512.67025.67025,0,0,0,.3909.221c.1878.0196.2445-.1694.2923-.3235A.73766.73766,0,0,0,264.69945,157.60936Z" transform="translate(-256.41518 -151.78917)"/><path class="cls-2" d="M258.91005,168.78286a.48326.48326,0,0,0-.044.7023.64121.64121,0,0,0,1.0389-.7363A.71315.71315,0,0,0,258.91005,168.78286Z" transform="translate(-256.41518 -151.78917)"/><path class="cls-2" d="M263.018,155.08326c-.1152-.0276-.2717-.1159-.3963-.0832a.37932.37932,0,0,0-.2723.4388,1.02407,1.02407,0,0,0,.1416.3701c.1386.2318.3795.3379.5295.2552a.53865.53865,0,0,0,.1944-.5709A3.1567,3.1567,0,0,0,263.018,155.08326Z" transform="translate(-256.41518 -151.78917)"/><path class="cls-2" d="M268.61415,172.90606a.695.695,0,0,0,.1087-.8758.59253.59253,0,0,0-.8558-.0138.60914.60914,0,0,0,.0326.8608A.49771.49771,0,0,0,268.61415,172.90606Z" transform="translate(-256.41518 -151.78917)"/><path class="cls-2" d="M277.15375,153.497a.7788.7788,0,0,0-.0874.9962.4935.4935,0,0,0,.5836.0984.76038.76038,0,0,0,.2619-.7093.57572.57572,0,0,0-.5071-.436A.8432.8432,0,0,0,277.15375,153.497Z" transform="translate(-256.41518 -151.78917)"/><path class="cls-2" d="M275.29155,155.80016a.77893.77893,0,0,0-.0874.9962.4935.4935,0,0,0,.5837.0984.76032.76032,0,0,0,.2618-.7093.57594.57594,0,0,0-.507-.4361A.84606.84606,0,0,0,275.29155,155.80016Z" transform="translate(-256.41518 -151.78917)"/><path class="cls-2" d="M268.71365,175.37486c-.1115-.0958-.1654-.1789-.2328-.1918a.689.689,0,0,0-.3738.008c-.0695.029-.1202.1678-.1303.2627a1.0724,1.0724,0,0,0,.2727.8061.38213.38213,0,0,0,.4978.1016.37769.37769,0,0,0,.1996-.466C268.87505,175.69876,268.77615,175.51186,268.71365,175.37486Z" transform="translate(-256.41518 -151.78917)"/><path class="cls-2" d="M278.80235,168.92446a.68308.68308,0,0,0,.1034-.9262.43874.43874,0,0,0-.5068-.1282.38208.38208,0,0,0-.2606.4431,1.43136,1.43136,0,0,0,.2866.5522C278.50165,168.94706,278.70255,168.91226,278.80235,168.92446Z" transform="translate(-256.41518 -151.78917)"/><path class="cls-2" d="M281.20145,169.76686c-.1344-.0355-.2494-.1059-.3255-.0764-.1099.0426-.2652.1528-.2712.2428a2.211,2.211,0,0,0,.077.6967c.0417.1592.3238.2484.4779.1917a.35236.35236,0,0,0,.2411-.3755A4.30288,4.30288,0,0,0,281.20145,169.76686Z" transform="translate(-256.41518 -151.78917)"/><path class="cls-2" d="M268.80705,179.24316a3.953,3.953,0,0,0,.1881-.558.43011.43011,0,0,0-.2588-.4544.335.335,0,0,0-.4178.1282.55012.55012,0,0,0,.2291.809A1.49531,1.49531,0,0,0,268.80705,179.24316Z" transform="translate(-256.41518 -151.78917)"/></svg>