<svg id="layer" xmlns="http://www.w3.org/2000/svg" viewBox="0 0 33.54598 34.614"><defs><style>.cls-1{fill:#ffa254;}.cls-2{fill:#ffbab4;}</style></defs><title>etoile2</title><path d="M260.53085,207.82937a13.93442,13.93442,0,0,0,4.1859-.4305,5.62183,5.62183,0,0,0,.6988-.222,2.34621,2.34621,0,0,0,1.4038-1.2401c.4277-.9814.9133-1.9394,1.3023-2.9354.5119-1.3103.972-2.6418,1.4173-3.9766a5.91647,5.91647,0,0,1,.6545-1.6952,4.59223,4.59223,0,0,1,.6374-.7737,1.06146,1.06146,0,0,1,1.6634.1966,3.86237,3.86237,0,0,1,.6075,1.2222c.2643,1.1601.4769,2.332.6642,3.5103.2262,1.423.271,2.8612.4899,4.2817a4.04835,4.04835,0,0,0,1.0265,2.2103,1.1502,1.1502,0,0,0,1.0668.3891c.4835-.0617.976-.0482,1.4636-.0808,1.6787-.1121,3.356-.2481,5.0357-.34a9.06726,9.06726,0,0,1,3.7679.6434,3.23627,3.23627,0,0,1,1.2241.941,1.81048,1.81048,0,0,1,.3818,1.5497,1.20554,1.20554,0,0,1-.5517.8128,5.64174,5.64174,0,0,1-1.8911.9149c-.2656.0716-.5369.1295-.793.2268q-2.66025,1.0098-5.3137,2.0371a7.08754,7.08754,0,0,0-.6581.3199,2.82473,2.82473,0,0,0-1.5603,2.7107,34.32737,34.32737,0,0,0,.2513,3.565,32.74315,32.74315,0,0,1,.4314,5.7546,7.58876,7.58876,0,0,1-.55,2.4018,1.53065,1.53065,0,0,1-2.6157.5031,2.30286,2.30286,0,0,1-.6374-1.0997,31.83907,31.83907,0,0,1-.8569-3.3759,8.08541,8.08541,0,0,0-.3376-1.2386,25.78245,25.78245,0,0,0-1.0161-3.0454,4.10054,4.10054,0,0,0-1.0698-1.471,1.0478,1.0478,0,0,0-.9332-.2564,3.85524,3.85524,0,0,0-1.5982.6654c-.787.581-1.5651,1.1759-2.3199,1.7978a43.16518,43.16518,0,0,0-3.578,3.4267,16.68916,16.68916,0,0,1-2.4193,1.9603,3.08622,3.08622,0,0,1-2.3013.4023,1.4463,1.4463,0,0,1-1.1856-1.7577,3.83009,3.83009,0,0,1,.3419-.9441,55.87863,55.87863,0,0,1,3.6654-6.2526c.2123-.2997.4493-.5839.6405-.8963.3667-.5992.725-1.205,1.0537-1.8256a3.92878,3.92878,0,0,0,.2914-.8677.8628.8628,0,0,0-.414-1.0219,7.84993,7.84993,0,0,0-1.5632-.7581c-1.1775-.4328-2.3508-.88-3.5079-1.3643a11.5183,11.5183,0,0,1-1.529-.8302,2.12107,2.12107,0,0,1-.9703-1.5962,1.24243,1.24243,0,0,1,.9914-1.522,7.25931,7.25931,0,0,1,.9038-.1609c.574-.0868,1.1475-.1793,1.7239-.2465C259.07265,207.96287,259.80235,207.90107,260.53085,207.82937Z" transform="translate(-254.70451 -196.24189)"/><path class="cls-1" d="M287.77205,209.89537a2.887,2.887,0,0,0-1.4213-1.1083,9.654,9.654,0,0,0-3.7055-.4843c-1.5554.1084-3.1103.2248-4.6663.3223-.6709.042-1.3446.038-2.0163.0701a.77442.77442,0,0,1-.5814-.2121,3.79127,3.79127,0,0,1-1.3385-2.3422c-.1988-1.3901-.3857-2.7839-.5107-4.1821a34.08393,34.08393,0,0,0-.7419-3.9639,2.402,2.402,0,0,0-.7366-1.2489.59111.59111,0,0,0-.8332-.0543,1.8598,1.8598,0,0,0-.7565.899c-.2916.7723-.5868,1.5435-.858,2.323-.674,1.9373-1.3868,3.859-2.2508,5.7211a5.22455,5.22455,0,0,1-.4823.885,2.01727,2.01727,0,0,1-.6482.6273,6.02724,6.02724,0,0,1-1.5308.5936,16.67293,16.67293,0,0,1-4.3466.4887c-.4756.0205-1.03.0103-1.5754.0758-.7883.0947-1.571.239-2.3543.3731a6.499,6.499,0,0,0-.8022.1918.71028.71028,0,0,0-.5188.6827,1.81315,1.81315,0,0,0,.7993,1.7486,7.192,7.192,0,0,0,1.3621.7531c1.2187.4937,2.4537.9477,3.6879,1.4022a7.42194,7.42194,0,0,1,1.7097.878,1.00665,1.00665,0,0,1,.4446,1.0334,3.7686,3.7686,0,0,1-.1233.5351,7.171,7.171,0,0,1-1.1527,2.2846,40.71509,40.71509,0,0,0-2.9111,4.4556q-.7977,1.4478-1.562,2.9139a4.0378,4.0378,0,0,0-.3092.8614,1.066,1.066,0,0,0,.7366,1.2858,2.82063,2.82063,0,0,0,2.2215-.2914,14.18624,14.18624,0,0,0,2.7541-2.2761,11.74178,11.74178,0,0,1,1.0114-1.0647c1.1577-1.0469,2.3158-2.0948,3.5092-3.1a10.32956,10.32956,0,0,1,1.6772-1.1174,5.01492,5.01492,0,0,1,1.2134-.394,1.05739,1.05739,0,0,1,1.014.2908,4.64468,4.64468,0,0,1,1.0828,1.3519,24.13606,24.13606,0,0,1,1.4675,4.434c.3179,1.1801.5998,2.3702.936,3.5449a2.62619,2.62619,0,0,0,.5064.9629,1.202,1.202,0,0,0,2.0471-.234,3.5955,3.5955,0,0,0,.2424-.4948,7.58682,7.58682,0,0,0,.4449-2.5169,28.03626,28.03626,0,0,0-.4047-4.5651c-.1868-1.3083-.2683-2.6172-.3453-3.9299a4.33251,4.33251,0,0,1,.2233-1.6292,2.12565,2.12565,0,0,1,.7091-1.0454,6.07926,6.07926,0,0,1,1.6494-.981c.6024-.2211,1.1918-.4778,1.7956-.695,1.4385-.5175,2.89-.9998,4.3197-1.5402a9.016,9.016,0,0,0,1.6277-.832A1.14425,1.14425,0,0,0,287.77205,209.89537Zm-29.0489,1.3005a1.08592,1.08592,0,0,1-1.3348-.2665,1.153,1.153,0,0,1,.0577-1.4392.93511.93511,0,0,1,.4168-.1736,1.36561,1.36561,0,0,1,1.2006.5046A.85.85,0,0,1,258.72315,211.19587Zm3.7421.2986a.90851.90851,0,0,1-1.072.2682,1.06291,1.06291,0,0,1-.5074-1.0037,2.69558,2.69558,0,0,1,.2054-.6034c.2088-.4748.4624-.6445.814-.567a1.166,1.166,0,0,1,.9321,1.1302A4.14394,4.14394,0,0,1,262.46525,211.49447Zm-3.5452,14.8057a.7478.7478,0,0,1-.4314-1.1062,1.3117,1.3117,0,0,1,.2298-.2835c.2865-.2931.5347-.3639.8149-.242a.73244.73244,0,0,1,.4165.7526A.87392.87392,0,0,1,258.92005,226.30017Zm3.0138-3.0272a.80861.80861,0,0,1-.9622.6274.79214.79214,0,0,1-.6182-.9593,3.45049,3.45049,0,0,1,.3961-.9064.57885.57885,0,0,1,.6872-.3199.76194.76194,0,0,1,.5398.5653,2.31314,2.31314,0,0,1,.0313.396A5.85,5.85,0,0,1,261.93385,223.273Zm12.5571-12.1024a.82343.82343,0,0,1,.9175.5781,4.48673,4.48673,0,0,1,.1414.5091,1.47142,1.47142,0,0,1-1.003,1.4771,1.02331,1.02331,0,0,1-1.1998-.5829A1.46274,1.46274,0,0,1,274.491,211.17057Zm-3.5255-11.1075a.74891.74891,0,0,1,1.0739.5116,1.29983,1.29983,0,0,1-.6526,1.3832c-.5146.2415-1.0132-.1279-1.0313-.8157A1.07526,1.07526,0,0,1,270.96545,200.06307Zm-1.0932,4.4139a1.6999,1.6999,0,0,1,.4763-.872.71517.71517,0,0,1,1.2543.2311,1.79153,1.79153,0,0,1,.0941.3697,1.332,1.332,0,0,1-1.0536,1.2918.59924.59924,0,0,1-.3461-.0847A.8687.8687,0,0,1,269.87225,204.477Zm-.7136,3.3718a2.49079,2.49079,0,0,1,.1706-.4252c.2746-.577.538-.7256,1.0703-.6121a1.02844,1.02844,0,0,1,.9217.9195,1.70211,1.70211,0,0,1-.5011,1.3126.773.773,0,0,1-.3969.1973A1.17291,1.17291,0,0,1,269.15865,207.84877Zm-4.5935,11.9897a1.17566,1.17566,0,0,1-1.1785.9346.95866.95866,0,0,1-.8392-1.0245.982.982,0,0,1,.9772-.9818A1.14962,1.14962,0,0,1,264.56515,219.83847Zm-.2564-7.9a1.19581,1.19581,0,0,1,1.4486-1.1286,1.082,1.082,0,0,1,.7068,1.6244,1.35458,1.35458,0,0,1-1.0987.6945A1.02443,1.02443,0,0,1,264.30875,211.93847Zm2.2779,6.0619a.95411.95411,0,0,1-1.2345-.653,1.23829,1.23829,0,0,1,.1137-1.2224,4.3472,4.3472,0,0,0,.2422-.4252.98048.98048,0,0,1,1.1659.0024,1.72252,1.72252,0,0,1,.7495,1.0058.46478.46478,0,0,1,.0096.0912C267.68445,217.35857,267.27745,217.82587,266.58665,218.00037Zm5.1679-3.9767a1.10319,1.10319,0,0,1-.0798.1644,2.48678,2.48678,0,0,1-3.3184.6511,1.33027,1.33027,0,0,1-.5156-.8362c-.0388-.2089-.0435-.4242-.0736-.7426a3.01,3.01,0,0,1,1.0465-2.1475,1.90153,1.90153,0,0,1,2.0658-.0753A2.39849,2.39849,0,0,1,271.75455,214.02367Zm.8767,4.1097a.7073.7073,0,0,1-.5901-.5028,1.55568,1.55568,0,0,1,1.1759-1.7754.41614.41614,0,0,1,.3375.0997,1.23392,1.23392,0,0,1-.9233,2.1785Zm1.6281,3.2385a.70772.70772,0,0,1-.59-.5028,1.55576,1.55576,0,0,1,1.1759-1.7755,1.03813,1.03813,0,0,1,.1196-.0005,1.00045,1.00045,0,0,1,.2179.1003,1.23393,1.23393,0,0,1-.9234,2.1785Zm.3754,2.5248a1.72087,1.72087,0,0,1,.2278-.5902.66784.66784,0,0,1,.7538-.3897.93611.93611,0,0,1,.7337.8351,1.08809,1.08809,0,0,1-1.0283,1.0742A.84015.84015,0,0,1,274.63475,223.89667Zm2.3511,3.1705a5.49,5.49,0,0,1-.1595.6214.73546.73546,0,0,1-.8758.4837.6227.6227,0,0,1-.569-.5675,1.55677,1.55677,0,0,1,.4833-1.1979.60164.60164,0,0,1,.6898-.0848A.76153.76153,0,0,1,276.98585,227.06717Zm1.0025-14.2435a1.0645,1.0645,0,0,1-.9306-1.1508,1.17342,1.17342,0,0,1,1.1315-1.0913,1.06177,1.06177,0,0,1,1.0669,1.0273A1.37559,1.37559,0,0,1,277.98835,212.82367Zm4.5643-1.2282a1.78247,1.78247,0,0,1-.4991.3902.81536.81536,0,0,1-1.2531-.77,1.19568,1.19568,0,0,1,1.0046-1.1167.44975.44975,0,0,1,.0905-.0024c.3934.0413.5494.3478.7041.6457A.71547.71547,0,0,1,282.55265,211.59547Zm3.3215-.6352a1.78174,1.78174,0,0,1-.4991.3901.81534.81534,0,0,1-1.2531-.7699,1.19559,1.19559,0,0,1,1.0047-1.1167.43425.43425,0,0,1,.0904-.0025c.3934.0414.5494.3479.7041.6457A.71562.71562,0,0,1,285.87415,210.96027Z" transform="translate(-254.70451 -196.24189)"/><path class="cls-2" d="M269.70205,214.87157a5.76053,5.76053,0,0,0,.6075-.1234,1.77514,1.77514,0,0,0,1.3159-1.4888,1.85463,1.85463,0,0,0-.6948-1.7899,1.62255,1.62255,0,0,0-2.2167.2375,2.42313,2.42313,0,0,0-.5505,1.9583A1.31762,1.31762,0,0,0,269.70205,214.87157Z" transform="translate(-254.70451 -196.24189)"/><path class="cls-2" d="M266.28225,215.83607c-.118.0946-.2367.1873-.3526.2832a.94078.94078,0,0,0-.2311,1.1617.5335.5335,0,0,0,.5589.3867,1.55566,1.55566,0,0,0,.6044-.1644.78239.78239,0,0,0,.2094-1.241A1.101,1.101,0,0,0,266.28225,215.83607Z" transform="translate(-254.70451 -196.24189)"/><path class="cls-2" d="M270.95675,207.96987c.005-.5026-.1869-.7416-.5652-.8156a.57616.57616,0,0,0-.7253.3814,2.29548,2.29548,0,0,0-.1664.4219.783.783,0,0,0,.5661.9073c.2804.0897.5504-.0482.7208-.4013A3.50622,3.50622,0,0,0,270.95675,207.96987Z" transform="translate(-254.70451 -196.24189)"/><path class="cls-2" d="M275.19665,212.22337c-.0045-.0608-.0057-.1219-.0137-.182a.62058.62058,0,0,0-.9366-.5116,1.25378,1.25378,0,0,0-.6687,1.2044.69208.69208,0,0,0,1.0695.5628A1.0809,1.0809,0,0,0,275.19665,212.22337Z" transform="translate(-254.70451 -196.24189)"/><path class="cls-2" d="M264.66845,212.05a.646.646,0,0,0,.7335.7275,1.00422,1.00422,0,0,0,.8811-1.0772.82125.82125,0,0,0-.2944-.4363.75234.75234,0,0,0-.8603-.0505A.90469.90469,0,0,0,264.66845,212.05Z" transform="translate(-254.70451 -196.24189)"/><path class="cls-2" d="M273.36305,216.21037a1.12538,1.12538,0,0,0-.7482.3965.93253.93253,0,0,0-.2275.8355.38073.38073,0,0,0,.453.3306.89606.89606,0,0,0,.7474-.5693A.76331.76331,0,0,0,273.36305,216.21037Z" transform="translate(-254.70451 -196.24189)"/><path class="cls-2" d="M274.99935,219.48287a1.12585,1.12585,0,0,0-.7483.3965.93225.93225,0,0,0-.2275.8354.38065.38065,0,0,0,.453.3306.89582.89582,0,0,0,.7474-.5692A.76328.76328,0,0,0,274.99935,219.48287Z" transform="translate(-254.70451 -196.24189)"/><path class="cls-2" d="M261.75505,211.52387a.81708.81708,0,0,0,.2294-.071,1.03516,1.03516,0,0,0,.4895-.9217.56365.56365,0,0,0-.4143-.5435.46666.46666,0,0,0-.3427.0234,1.02519,1.02519,0,0,0-.4385,1.1067A.5501.5501,0,0,0,261.75505,211.52387Z" transform="translate(-254.70451 -196.24189)"/><path class="cls-2" d="M278.92115,211.54857a.72279.72279,0,0,0-1.0379-.6094.94178.94178,0,0,0-.4842.9069.65938.65938,0,0,0,.4609.6109.88522.88522,0,0,0,.9076-.4738A2.18863,2.18863,0,0,0,278.92115,211.54857Z" transform="translate(-254.70451 -196.24189)"/><path class="cls-2" d="M271.33055,204.19617c-.0026-.0345.0127-.1071-.0155-.1532-.0748-.1226-.1467-.2896-.2606-.3339a.50507.50507,0,0,0-.4114.0759.94546.94546,0,0,0-.4028.7826.76564.76564,0,0,0,.1779.4809c.1492.1556.3381.0326.4934-.0666A.84225.84225,0,0,0,271.33055,204.19617Z" transform="translate(-254.70451 -196.24189)"/><path class="cls-2" d="M258.04575,209.66987a.55184.55184,0,0,0-.5562.5799.73212.73212,0,0,0,1.4486.1239A.81415.81415,0,0,0,258.04575,209.66987Z" transform="translate(-254.70451 -196.24189)"/><path class="cls-2" d="M271.72675,200.75407c-.08-.109-.1514-.3014-.2842-.3647a.43319.43319,0,0,0-.5609.1819,1.17042,1.17042,0,0,0-.1494.4269c-.0499.3044.0818.5746.2737.613a.615.615,0,0,0,.5903-.3545A3.58294,3.58294,0,0,0,271.72675,200.75407Z" transform="translate(-254.70451 -196.24189)"/><path class="cls-2" d="M263.46665,220.41867a.79329.79329,0,0,0,.7403-.6833.67638.67638,0,0,0-.7358-.6431.69563.69563,0,0,0-.6062.7746A.56821.56821,0,0,0,263.46665,220.41867Z" transform="translate(-254.70451 -196.24189)"/><path class="cls-2" d="M285.22065,209.79217a.88935.88935,0,0,0-.8106.8042.56356.56356,0,0,0,.4364.516.86748.86748,0,0,0,.7511-.4254.65732.65732,0,0,0-.1206-.754A.96428.96428,0,0,0,285.22065,209.79217Z" transform="translate(-254.70451 -196.24189)"/><path class="cls-2" d="M281.89925,210.42747a.88927.88927,0,0,0-.8107.8041.56336.56336,0,0,0,.4364.516.86787.86787,0,0,0,.7512-.4254.65749.65749,0,0,0-.1206-.7539A.96156.96156,0,0,0,281.89925,210.42747Z" transform="translate(-254.70451 -196.24189)"/><path class="cls-2" d="M261.73335,222.64457c-.0266-.1657-.0124-.278-.0616-.3388a.78648.78648,0,0,0-.3318-.2687c-.082-.0259-.2286.0578-.3072.133a1.22415,1.22415,0,0,0-.3565.9038.43635.43635,0,0,0,.3591.4556.43094.43094,0,0,0,.5174-.2591C261.63535,223.04587,261.68675,222.81,261.73335,222.64457Z" transform="translate(-254.70451 -196.24189)"/><path class="cls-2" d="M275.28465,224.45817a.77994.77994,0,0,0,.773-.7313.501.501,0,0,0-.3474-.4854.43634.43634,0,0,0-.5538.1942,1.6354,1.6354,0,0,0-.1573.6929C275.00575,224.25627,275.20655,224.374,275.28465,224.45817Z" transform="translate(-254.70451 -196.24189)"/><path class="cls-2" d="M276.75535,226.96137c-.0911-.1301-.1394-.2762-.2275-.3067-.1273-.0438-.3439-.0622-.4154.0119a2.52807,2.52807,0,0,0-.4466.664c-.0809.1697.0993.4555.2754.5196a.40247.40247,0,0,0,.4871-.1496A4.91745,4.91745,0,0,0,276.75535,226.96137Z" transform="translate(-254.70451 -196.24189)"/><path class="cls-2" d="M258.96305,226.086a4.5108,4.5108,0,0,0,.5753-.3478.49121.49121,0,0,0,.1094-.5869.38262.38262,0,0,0-.4587-.1963.62812.62812,0,0,0-.3968.8743A1.70619,1.70619,0,0,0,258.96305,226.086Z" transform="translate(-254.70451 -196.24189)"/></svg>