<svg id="layer" xmlns="http://www.w3.org/2000/svg" viewBox="0 0 48.72677 30.89714"><defs><style>.cls-1{fill:#fff;}.cls-2{fill:#c6a74e;}.cls-3{fill:#ffba7c;}.cls-4{fill:#39a4b3;}</style></defs><title>poisson2</title><path d="M207.2808,38.2261a1.34306,1.34306,0,0,0-1.386-1.2019,1.61169,1.61169,0,0,1-1.1263-.5288c-.1136-.1117-.2296-.2203-.3448-.3301a4.22274,4.22274,0,0,0-.2664-3.4217,2.33349,2.33349,0,0,0-2.5479-.7077c-.3705.1263-.7286.289-1.112.443-.0677-.0821-.1426-.1667-.2108-.2565a2.211,2.211,0,0,0-2.1284-1.1479c.0786-.109.1476-.209.2093-.3125a4.44545,4.44545,0,0,0,.3508-.7123c.2868-.7664.2033-.968-.5425-1.325a1.31716,1.31716,0,0,0-.5635-.1693,1.67459,1.67459,0,0,1-1.6454-1.0534,1.09889,1.09889,0,0,0-1.7082-.3602c-.1932.1275-.356.3-.5391.4439-.6638.522-.9686.471-1.4547-.2372a1.848,1.848,0,0,0-2.5076-.6207,7.2352,7.2352,0,0,0-.7414.5067c-.8891.6377-1.0067.6531-1.7345-.162a1.745,1.745,0,0,0-1.8843-.556,4.80352,4.80352,0,0,0-1.9035,1.0428c-.713.5704-.8858.5515-1.67.0496a2.0783,2.0783,0,0,0-2.708.3833c-.1962.225-.3429.4927-.5356.7211a1.4,1.4,0,0,1-1.8469.4577,1.80675,1.80675,0,0,0-2.388.9863,3.44821,3.44821,0,0,1-.2861.6347c-.4555.6356-.916,1.1571-1.8785.9928a1.99684,1.99684,0,0,0-2.2269,1.5771,1.76256,1.76256,0,0,1-1.6966,1.5237,1.463,1.463,0,0,0-1.1143,2.0329,3.73838,3.73838,0,0,0,.8901,1.0352,4.975,4.975,0,0,0,.8365.5168,1.46379,1.46379,0,0,1-.155.313c-.7866.8536-1.5581,1.7227-2.3745,2.5472a2.4347,2.4347,0,0,1-3.8172-.1952c-.2735-.3337-.5093-.6989-.7551-1.0547a16.36972,16.36972,0,0,0-.962-1.3952.95843.95843,0,0,0-1.6147-.0114,1.545,1.545,0,0,0,.0789,2.3062c.6965.8173.6965.8173.1642,1.6393a.9315.9315,0,0,0,.0847,1.3435c.2315.2768.4891.5318.7038.7632-.0078.1323.0114.2124-.0192.2616-.2107.3382-.4373.6664-.6481,1.0045-.3029.4859-.3545.9763.0761,1.2541.7706.4971.4989,1.0375.2611,1.6307a3.0429,3.0429,0,0,0-.2019.5618,1.07789,1.07789,0,0,0,1.3635,1.3064A1.73287,1.73287,0,0,0,162.36,49.622c.1578-.4361.256-.8935.3858-1.3399.2409-.8284.49-1.6545.7272-2.4839a1.80654,1.80654,0,0,1,1.8074-1.3102c.836-.0605,1.0623.6575,1.3749,1.2417a13.72229,13.72229,0,0,0,1.1708,2.0709c.9012,1.1436,1.9088,2.2035,2.9361,3.3711a5.26127,5.26127,0,0,1-.656.7335c-.4142.3314-.9014.5718-1.3133.9055a3.72819,3.72819,0,0,0-.8671.9336c-.3217.5378-.1214.945.4653,1.1739a1.3479,1.3479,0,0,0,1.6172-.5191c.1588.1871.2768.343.4121.482a1.16876,1.16876,0,0,0,1.2362.4602c.5171-.1704.635-.6284.691-1.1142a9.161,9.161,0,0,1,.1874-1.1819,10.55822,10.55822,0,0,1,.393-1.0682,21.66219,21.66219,0,0,0,7.6653,1.924c1.0918.0747,2.1851.1493,3.2787.1704,1.5063.0291,3.0135.0073,4.7265.0073-.3475.2622-.5285.3917-.7018.531-.3363.2703-.6754.5379-1.0002.8216a1.0377,1.0377,0,0,0-.3907,1.2387c.1933.4877.6184.5139,1.0678.5676a2.48269,2.48269,0,0,0,1.789-.5734c.5261.1826.9874.362,1.4601.5031,1.2585.3759,1.6252.1885,2.1418-1.0278.2982-.7021.5892-1.41.9413-2.0851a1.47506,1.47506,0,0,1,.6664-.6544c.8276-.3423,1.6944-.5884,2.5329-.9063a22.42342,22.42342,0,0,0,2.9535-1.2079,20.57523,20.57523,0,0,0,5.1611-3.8901,4.23068,4.23068,0,0,0,.698-.9569,13.55631,13.55631,0,0,0,1.5131-5.6376A15.24989,15.24989,0,0,0,207.2808,38.2261Z" transform="translate(-158.71158 -26.44382)"/><path class="cls-1" d="M202.22,34.8316c-.0372-.6338-.5679-1.1895-1.0623-1.1122a.65329.65329,0,0,0-.3297.1791,9.67207,9.67207,0,0,0-.1542-.9619,8.61743,8.61743,0,0,1,1.3036-.5485,1.77133,1.77133,0,0,1,1.8644.8879,3.73949,3.73949,0,0,1,.2262,2.526,1.48849,1.48849,0,0,1-1.0616,1.116,2.661,2.661,0,0,1-2.4825-.302,4.30994,4.30994,0,0,0,.3009-1.1149,1.185,1.185,0,0,0,.7958.3373C202.0247,35.8175,202.2551,35.4306,202.22,34.8316Z" transform="translate(-158.71158 -26.44382)"/><path class="cls-1" d="M200.3671,34.1843a3.56459,3.56459,0,0,1-.0197,1.0549,2.29845,2.29845,0,0,1-2.5595,2.0473c-1.4155-.0975-2.1935-.8172-2.568-2.425a2.52916,2.52916,0,0,1,.7729-2.5687C196.8442,31.5187,199.8026,30.6779,200.3671,34.1843Z" transform="translate(-158.71158 -26.44382)"/><path class="cls-2" d="M162.7515,46.1422a7.74485,7.74485,0,0,0-.5024,1.8128,8.07149,8.07149,0,0,1-.4018,1.3306,1.83962,1.83962,0,0,1-.6583.7016.66519.66519,0,0,1-.6286.0089.9549.9549,0,0,1-.1763-.6954,3.66557,3.66557,0,0,1,.2988-.7337c.3279-.9147.308-.9821-.4459-1.5986a3.63956,3.63956,0,0,0-.4633-.2588c.3628-.5045.6057-.8141.8179-1.1435.4146-.644.3788-.9271-.1491-1.474-.7096-.735-.7096-.735-.1394-1.6534.3436-.5534.3169-.7848-.1422-1.3228a9.70654,9.70654,0,0,1-.6936-.8457.92294.92294,0,0,1,.003-1.1189c.2992-.4224.6275-.4654.9847-.0816a6.69422,6.69422,0,0,1,.6426.8853,8.52974,8.52974,0,0,0,1.7653,2.2692.58714.58714,0,0,1,.2232.4099C163.0385,43.8054,163.4049,44.9972,162.7515,46.1422Z" transform="translate(-158.71158 -26.44382)"/><path class="cls-2" d="M164.4065,43.902c-.2189-.5199-.3029-.8099,0-1.1163Z" transform="translate(-158.71158 -26.44382)"/><path class="cls-2" d="M165.7311,43.5468a.59037.59037,0,0,1-.1602-.0369v-.7944l.1902-.0194c.0099.2639.0211.5278.027.7918C165.7886,43.5082,165.7538,43.5426,165.7311,43.5468Z" transform="translate(-158.71158 -26.44382)"/><path class="cls-2" d="M166.3699,44.0135l-.1362-1.7844.241-.0188.0969,1.7715Z" transform="translate(-158.71158 -26.44382)"/><path class="cls-2" d="M167.5868,36.9215a1.04079,1.04079,0,0,1,.7979-1.5693,2.06721,2.06721,0,0,0,2.0287-1.8406,1.38144,1.38144,0,0,1,1.5824-1.1912c1.4291.2302,2.098-.6321,2.6435-1.6622.6019-1.1364.8303-1.2684,2.1044-.909a1.857,1.857,0,0,0,2.0672-.6132c.1283-.1522.231-.3257.35-.4861a1.61786,1.61786,0,0,1,2.6181-.4328,1.18556,1.18556,0,0,0,1.5515.0076c.2425-.1749.4534-.3992.7095-.548a10.59087,10.59087,0,0,1,1.3233-.6696,1.4011,1.4011,0,0,1,1.6107.4643c.9278.924,1.2434.9359,2.282.1648a5.61582,5.61582,0,0,1,.6426-.4696,1.335,1.335,0,0,1,1.8974.449c.6282.9169,1.3877,1.1519,2.3032.255.7699-.7544.9429-.6978,1.6013.2323a1.98421,1.98421,0,0,0,1.4622.928,5.30952,5.30952,0,0,1,1.0731.3475,2.27115,2.27115,0,0,1-1.0949,1.9053l-.0522.0159c-.69-.2539-1.3932-.53-2.1083-.7712a25.84388,25.84388,0,0,0-7.254-1.2638,15.01739,15.01739,0,0,0-3.8696.3543,23.64777,23.64777,0,0,0-7.7525,2.7908,36.72818,36.72818,0,0,0-3.1369,2.3222c-1.0129.8076-1.9498,1.7152-2.8802,2.6199A1.50752,1.50752,0,0,1,167.5868,36.9215Z" transform="translate(-158.71158 -26.44382)"/><path class="cls-2" d="M181.0369,44.193c-.6931-.3769-.7067-.4144-.4105-1.1408a1.548,1.548,0,0,0-.9193-2.3302,1.8451,1.8451,0,0,1-1.3035-1.4863,1.29119,1.29119,0,0,1,.2725-.7835c.0441-.0633.4121.0543.6046.1457,1.159.5503,2.2925,1.1587,3.4712,1.6617a14.63166,14.63166,0,0,0,2.0456.5494v1.3307a3.78733,3.78733,0,0,1-.4217.2074,2.65742,2.65742,0,0,0-1.7781,2.7181c-.0186.4973-.0438.9946-.0841,1.4905-.0131.1611-.0344.3821-.1388.4621-.1917.1465-.4812.325-.6675.2718a.72957.72957,0,0,1-.3672-.5917,4.98449,4.98449,0,0,1,.2889-1.0467C181.8557,44.835,181.7497,44.5805,181.0369,44.193Z" transform="translate(-158.71158 -26.44382)"/><path class="cls-2" d="M171.7874,54.2688c-.1109.5205-.4814.5858-.8569.1818-.2466-.2653-.4785-.5443-.7255-.8092-.0385-.0413-.1225-.0401-.204-.0639-.5371.0863-.6718,1.1945-1.582.6073.5334-1.4617,2.3203-1.5343,2.9435-2.8528.3461.145.6117.2561.8847.3704C172.0908,52.5916,171.9649,53.4357,171.7874,54.2688Z" transform="translate(-158.71158 -26.44382)"/><path class="cls-2" d="M191.7934,56.5378c-.4782-.1063-.7899-.1705-1.0988-.2462-.1877-.046-.4262-.0547-.5467-.1753-.5736-.5739-1.0536-.3703-1.5494.1048a1.21239,1.21239,0,0,1-1.4022.1754c-.0835-.571.3694-.7575.6831-1.0134.5094-.4155,1.0312-.8185,1.5729-1.1903a1.24037,1.24037,0,0,1,.649-.1776c.9882-.0183,1.977-.008,3.0631-.008A8.47154,8.47154,0,0,1,191.7934,56.5378Z" transform="translate(-158.71158 -26.44382)"/><path class="cls-3" d="M169.6788,49.1199c-.6542-.8333-1.3131-1.6666-1.9037-2.5446a2.96946,2.96946,0,0,1-.4862-1.6903c-.002-.7531-.1991-1.5037-.2741-2.259a2.32943,2.32943,0,0,1,.7666-2.0545c.5495-.5102,1.0262-1.0988,1.5351-1.6528l.1855.1127a23.58941,23.58941,0,0,0,1.0703,10.9288A9.181,9.181,0,0,1,169.6788,49.1199Z" transform="translate(-158.71158 -26.44382)"/><path class="cls-3" d="M182.1203,53.3324c-1.3218-.1288-2.6432-.2652-3.9617-.424a.88334.88334,0,0,1-.5965-.276,28.97347,28.97347,0,0,1-1.4533-2.6048,18.54088,18.54088,0,0,1-1.5662-5.9466,24.0161,24.0161,0,0,1-.051-6.8621c.1898-1.0775.4522-2.1444.734-3.2022a1.545,1.545,0,0,1,.5329-.798,15.06475,15.06475,0,0,1,5.9632-2.5468,16.92868,16.92868,0,0,0-2.4469,7.1819c-.6276.0312-1.2484.0905-1.3726.8418a1.75689,1.75689,0,0,0,.6929,1.941,1.54748,1.54748,0,0,1,.7022,1.4069,22.785,22.785,0,0,0,1.8469,7.8199c.4231.9344.9045,1.8421,1.3532,2.765.0841.173.1392.3602.2367.6172A2.8468,2.8468,0,0,1,182.1203,53.3324Z" transform="translate(-158.71158 -26.44382)"/><path class="cls-3" d="M191.9679,52.4385a10.91417,10.91417,0,0,1-3.4385-2.995,15.91736,15.91736,0,0,1-2.6859-5.2025,11.95613,11.95613,0,0,1,1.0187-9.3762,38.12363,38.12363,0,0,1,2.3318-3.477,1.56676,1.56676,0,0,1,.1309-.1509,2.50266,2.50266,0,0,1,3.5002-.705c-.2545.2059-.4754.3853-.6969.5638a12.98262,12.98262,0,0,0-4.8966,7.2074,11.15227,11.15227,0,0,0,.0145,4.7563,12.32185,12.32185,0,0,0,3.5608,6.6802,23.58614,23.58614,0,0,0,2.5403,1.9076c.423.3015.8865.546,1.3879.8504A2.43251,2.43251,0,0,1,191.9679,52.4385Z" transform="translate(-158.71158 -26.44382)"/><path class="cls-4" d="M180.5433,46.4543c-.1472-.6213-.2771-1.1693-.416-1.7555C181.3043,44.8469,181.3749,45.1701,180.5433,46.4543Z" transform="translate(-158.71158 -26.44382)"/><path class="cls-4" d="M179.8912,42.9854V41.7171C180.3941,42.3044,180.3942,42.3345,179.8912,42.9854Z" transform="translate(-158.71158 -26.44382)"/><path class="cls-4" d="M183.5387,40.0219a9.82805,9.82805,0,0,1-3.4083-1.5968,1.2513,1.2513,0,0,1-.3559-1.047,11.97378,11.97378,0,0,1,1.1215-4.1147c.3267-.5794.6308-1.1715.9534-1.7533a2.60594,2.60594,0,0,1,1.9879-1.4972,21.38023,21.38023,0,0,1,5.6613-.2057,3.99807,3.99807,0,0,1,.4428.1262c-2.6972,2.9027-4.7133,6.081-5.0904,10.1864A12.13861,12.13861,0,0,1,183.5387,40.0219Z" transform="translate(-158.71158 -26.44382)"/><path class="cls-4" d="M173.8598,51.7073c-.6545-.2364-1.2869-.5377-1.9174-.835-.1991-.0939-.4558-.2325-.5226-.4116a26.81626,26.81626,0,0,1-.9357-2.8093,21.162,21.162,0,0,1-.6486-7.9065,4.14214,4.14214,0,0,1,1.5361-3.007c.949-.7253,1.8106-1.5645,2.7198-2.3428a3.16641,3.16641,0,0,1,.5489-.2956c-1.4461,6.3705-1.1352,12.4705,1.9665,18.3883A8,8,0,0,1,173.8598,51.7073Z" transform="translate(-158.71158 -26.44382)"/><path class="cls-4" d="M184.4671,53.3143a1.24231,1.24231,0,0,1-1.156-.5941,19.85038,19.85038,0,0,1-2.1365-4.3785,1.1165,1.1165,0,0,1-.0041-.332c.2214,0,.418.0128.6126-.0022a1.26881,1.26881,0,0,0,1.3319-1.315c.037-.5964-.0236-1.199.0163-1.7951a1.69335,1.69335,0,0,1,1.7965-1.8509,15.90333,15.90333,0,0,0,6.8261,10.2054c-.4155.0246-.6607.0513-.9059.0517C188.721,53.3066,186.5939,53.2913,184.4671,53.3143Z" transform="translate(-158.71158 -26.44382)"/><path class="cls-4" d="M195.0099,51.7567a12.07929,12.07929,0,0,1-7.2145-8.849,9.70455,9.70455,0,0,1,.2987-5.9039,12.4716,12.4716,0,0,1,5.2948-6.1735,1.00279,1.00279,0,0,1,.656-.0907,4.2526,4.2526,0,0,1,1.4185.5704c-.266.0703-.5286.1594-.7985.2081a6.86092,6.86092,0,0,0-5.2009,4.3707,12.45592,12.45592,0,0,0,.3355,10.2583,7.00012,7.00012,0,0,0,1.6099,2.0043,24.74374,24.74374,0,0,0,2.2998,1.9147,8.39989,8.39989,0,0,0,3.4977,1.5743A1.88179,1.88179,0,0,1,195.0099,51.7567Z" transform="translate(-158.71158 -26.44382)"/><path class="cls-3" d="M205.3557,46.2577a5.43931,5.43931,0,0,1-1.4791,1.6051c-1.2948.9862-2.6451,1.9018-3.9986,2.8077-.9412.63-1.9749.2654-2.9546.1102a6.27335,6.27335,0,0,1-3.1045-1.4994c-.5814-.4962-1.2096-.9373-1.8027-1.4204a6.97968,6.97968,0,0,1-2.4545-4.1264,12.88062,12.88062,0,0,1,.1337-7.0885,6.72876,6.72876,0,0,1,6.2837-4.8283c-1.7579,1.1983-1.5774,3.5041-.3865,5.176.5903.8287,2.5847,1.0999,3.6286.5948.2827-.1368.5486-.3083.884-.499a3.17977,3.17977,0,0,0,3.937-.2354,1.49419,1.49419,0,0,0,.1668-.226c.0607.0623.121.1249.1793.1894a2.989,2.989,0,0,1,.2293.3935c-2.2287.8074-4.3566,1.5641-6.4739,2.3497-1.7752.6587-3.5407,1.3441-5.3045,2.0331-.4943.1932-.9679.4298-1.4955-.1107.0176.9055.2729,1.16,1.3539,1.5103.0428-.2484.0836-.4849.149-.8648,1.2594-.4754,2.5909-.9872,3.9291-1.481,1.9959-.7365,3.9914-1.4745,5.9972-2.183a24.91616,24.91616,0,0,1,2.8513-.8686c.7095-.1584,1.0684.1319,1.1954.8573a10.62216,10.62216,0,0,1,.1042,1.6885A12.19843,12.19843,0,0,1,205.3557,46.2577Z" transform="translate(-158.71158 -26.44382)"/><path d="M199.2595,41.3933a4.809,4.809,0,0,0-.65.4361c.1599.1348.2582.2621.2992.2457q2.2581-.901,4.5021-1.837c.085-.0356.1102-.2137.248-.504a3.56079,3.56079,0,0,0-.8346.1017C201.6289,40.3384,200.4421,40.8614,199.2595,41.3933Z" transform="translate(-158.71158 -26.44382)"/><path d="M197.1985,33.8602a1.14944,1.14944,0,0,0-.8677,1.11,1.4985,1.4985,0,0,0,1.4238,1.009c.4855-.0209.7623-.4078.7201-1.0068A1.23269,1.23269,0,0,0,197.1985,33.8602Z" transform="translate(-158.71158 -26.44382)"/></svg>