<svg id="layer" xmlns="http://www.w3.org/2000/svg" viewBox="0 0 53.94716 54.16469"><defs><style>.cls-1{fill:#ffd5b1;}.cls-2{fill:#fff;}.cls-3{fill:#ff9038;}.cls-4{fill:#39a4b3;}.cls-5{fill:#6dcfd9;}</style></defs><title>poisson1</title><path d="M63.4391,104.6071a4.01679,4.01679,0,0,0,.206,1.4825,11.6117,11.6117,0,0,1,.5442,1.4401c.5611,1.6718.1765,4.0774,1.8618,5.2186,1.5838,1.0723,3.2367-.7262,3.9149-2.0219.4659-.8903.8334-1.8324,1.2497-2.7462.2431-.5336.6191-.4174,1.1482-.4054.4152.0094.8303.022,1.2457.016.5281,0,.415.6152.455.9952.0574.5476.1403,1.0925.2452,1.633a26.79444,26.79444,0,0,0,1.4158,4.6914,19.1746,19.1746,0,0,0,2.0894,4.2762c.5206.7228,1.072,1.4226,1.6312,2.1158.1737.2154.5985.5708.6268.8578.0258.2613-.4184.6452-.5563.8453-.3819.5545-1.0433,1.3809-.5184,2.0228a2.64123,2.64123,0,0,0,1.3949,1.0295c.6368.0854,1.1966-.6259,1.5088-1.0844.1296-.1901.2689-.6617.5096-.7326.2294-.0676.5543.2198.7278.3242,1.4142.85,2.8112,1.7196,4.3044,2.4274a22.12528,22.12528,0,0,0,9.5962,2.028c-.2718.6273-.8397,1.5858-.1808,2.1687a4.48394,4.48394,0,0,0,1.9367.587,3.23046,3.23046,0,0,0,1.5857-.9039,13.9739,13.9739,0,0,0,1.0437-1.9403c.1283-.2486.2781-.7514.5085-.9146a3.55956,3.55956,0,0,1,.7414-.3149c.6971-.2771,1.3964-.5492,2.0918-.8306a22.37729,22.37729,0,0,0,6.9234-4.1424,16.19873,16.19873,0,0,0,4.6194-7.5836,28.47234,28.47234,0,0,0,1.0158-9.0523,39.71487,39.71487,0,0,0-.6834-5.271,25.51676,25.51676,0,0,0-1.0792-4.3646,27.63832,27.63832,0,0,0-2.1484-4.4448c-.399-.6787-.9053-1.2584-1.3374-1.9131a11.03244,11.03244,0,0,0-1.3343-1.7538c.5368-.9085,1.0893-1.8078,1.6063-2.7279a2.51131,2.51131,0,0,0,.2557-2.5486c-.5575-.8443-1.3159.3226-1.8413.5739a2.5171,2.5171,0,0,1-2.5304-.4819,12.91821,12.91821,0,0,1-1.2325-1.0135c-.2404-.2165-.6989-.479-.7353-.8224-.0535-.5032.0939-2.0187-.7616-1.8725a6.38819,6.38819,0,0,0-1.0906.2931c-.3381.0833-.5774.4275-.9332.5352a7.25394,7.25394,0,0,1-2.1317.0089,2.13675,2.13675,0,0,1-1.328-.5567.89662.89662,0,0,1-.1883-.5931,2.25772,2.25772,0,0,0-.2312-.8404c-.1678-.4056-.3968-.8942-.9124-.5981-.547.3141-.9098.887-1.4397,1.2331a9.51278,9.51278,0,0,1-1.4749.7086,5.84183,5.84183,0,0,1-1.8651.5701,4.36556,4.36556,0,0,1-1.6625-.3006c-.5363-.1781-.9943-.2763-1.2405-.8152-.3101-.6787-.8705-.5813-1.4774-.3109a1.58422,1.58422,0,0,0-.6157.5114c-.1686.2144-.0777.5329-.188.7858-.2437.5588-.9009.797-1.4258,1.0065a17.6305,17.6305,0,0,1-2.3266.6982,1.68251,1.68251,0,0,1-1.0596-.0126c-.3189-.1331-.531-.4162-.8488-.5559-.42-.1846-1.3785-.5996-1.5702.0461a18.80538,18.80538,0,0,0-.2067,1.9744,3.38252,3.38252,0,0,1-.6462,1.4649,5.01676,5.01676,0,0,1-1.5485,1.2611,1.0493,1.0493,0,0,1-.9026.2078,6.00909,6.00909,0,0,0-1.0195-.3477c-.6464-.1082-1.5424.0985-1.3298.9557.0939.3785.3431.6878.4166,1.0797a2.58624,2.58624,0,0,1-.0427,1.0617,5.8587,5.8587,0,0,1-1.0041,2.1467c-.2074.2818-.4289.5527-.644.8286-.2165.2776-.5082.2941-.7741.5027-1.2651.9919,1.1199,2.5776,1.8172,3.0975.1817.1359.4655.2903.4019.5585a8.46565,8.46565,0,0,1-.5425,1.2484,17.42882,17.42882,0,0,0-.9827,3.067c-.2276,1.0491-.2683,2.1126-.4318,3.17-.0902.583-.2554.7914-.8439.9046a6.31652,6.31652,0,0,1-1.1633.1477c-.8461,0-1.4995-1.0511-2.0451-1.5953a28.42159,28.42159,0,0,0-2.2765-2.1333,3.49471,3.49471,0,0,0-2.5124-1.0254,1.95659,1.95659,0,0,0-1.4962,1.4517A9.62459,9.62459,0,0,0,63.4391,104.6071Z" transform="translate(-63.40905 -77.61141)"/><path class="cls-1" d="M108.0677,123.4983c-.2265-.3276-.4511-.6566-.6856-.9786-.5029-.6903-1.1005-1.3007-1.5625-2.0215a19.42786,19.42786,0,0,1-1.081-2.0031,44.456,44.456,0,0,1-2.034-4.6375,21.84949,21.84949,0,0,1-1.2015-4.7152,18.381,18.381,0,0,1,.1463-4.9372,19.284,19.284,0,0,1,1.623-4.821c2.6252-5.9288,8.0782-9.5191,8.3034-9.2155.2326.3135.4828.6135.7291.9161a17.1642,17.1642,0,0,1,2.2708,4.0031,22.80387,22.80387,0,0,1,1.2259,3.4668c-.0165-.0233-.033-.0464-.0506-.0679a2.33348,2.33348,0,0,0-2.5479-.7078c-.3704.1264-.7285.289-1.112.443-.0677-.082-.1425-.1667-.2107-.2565a2.34839,2.34839,0,0,0-3.0531-.9669c-3.0463.8364-3.064,3.7404-1.6409,5.7383.5902.8286,2.5847,1.0999,3.6285.5947.2827-.1368.5487-.3083.884-.499a3.17977,3.17977,0,0,0,3.937-.2353,3.24275,3.24275,0,0,0,.6059-1.9094c.2601,1.4388.4966,2.8975.6178,4.3466.049.584.2707,1.6169-.0854,2.1424-.2764.4079-1.0523.4358-1.4811.4977a18.81314,18.81314,0,0,1-5.2051-.1649,12.35111,12.35111,0,0,1-2.5577-.743c-.2306-.0828-.4653-.2254-.3917-.507a1.1296,1.1296,0,0,0-.0475-.6763c-.0812.0391-.2328.0918-.2794.1668-.3211.5162-.6421,1.0327-.9471,1.5587-.1324.2283.1368.3981.3366.3537.1606-.0356.2284-.2258.3176-.3423.367-.4784.8739-.0318,1.2829.1312a9.31462,9.31462,0,0,0,1.5589.4632,15.58954,15.58954,0,0,0,7.5064-.0822c.0042.0297.0086.0571.0126.0828.0087.0565.0023.0151,0,.0004a12.96314,12.96314,0,0,1-.2146,3.5079,24.95865,24.95865,0,0,1-.6914,3.3752,13.599,13.599,0,0,1-1.1094,3.0389,25.82571,25.82571,0,0,1-1.4428,2.3076,14.80366,14.80366,0,0,1-2.9408,3.1412c-.3137.2442-1.354,1.209-1.7794,1.0206C108.4328,124.1882,108.2277,123.7298,108.0677,123.4983Z" transform="translate(-63.40905 -77.61141)"/><path class="cls-2" d="M113.8138,100.5747c-.0372-.6338-.568-1.1895-1.0624-1.1122a.65377.65377,0,0,0-.3296.1791,9.706,9.706,0,0,0-.1542-.9619,8.61743,8.61743,0,0,1,1.3036-.5485,1.77162,1.77162,0,0,1,1.8644.8879,3.74034,3.74034,0,0,1,.2262,2.5261,1.48861,1.48861,0,0,1-1.0617,1.116,2.66132,2.66132,0,0,1-2.4825-.3021,4.30459,4.30459,0,0,0,.301-1.1149,1.18447,1.18447,0,0,0,.7957.3373C113.6186,101.5607,113.8489,101.1737,113.8138,100.5747Z" transform="translate(-63.40905 -77.61141)"/><path class="cls-2" d="M111.9411,100.9824a2.2983,2.2983,0,0,1-2.5595,2.0472c-1.4154-.0975-2.1935-.8172-2.5679-2.4249a2.5291,2.5291,0,0,1,.7729-2.5687c.8514-.7742,3.8097-1.615,4.3742,1.8914A3.55854,3.55854,0,0,1,111.9411,100.9824Z" transform="translate(-63.40905 -77.61141)"/><path class="cls-3" d="M76.5726,95.9939q.31365.6051.6275,1.2101a1.28937,1.28937,0,0,1,.2319,1.0251c-.0959.3342-.2416.6571-.3564.9852a20.26189,20.26189,0,0,0-.8175,4.6512c-.4455-1.2172-.8833-2.4306-1.2564-3.6724-.072-.2392.1721-.67.2461-.896.1272-.3885.2544-.777.3848-1.1645A11.32585,11.32585,0,0,1,76.5726,95.9939Z" transform="translate(-63.40905 -77.61141)"/><path class="cls-3" d="M78.0617,98.3379a12.96413,12.96413,0,0,0,.7581,3.3547c.2233.5562.4849,1.0963.7619,1.6275.1783.3418.6716.875.145,1.1044-.1457.0635-.0561.0244-.0001.0001-.7169.3125-1.006,1.2808-1.1978,1.9698-.2095.7528-.3794,1.5157-.5654,2.2744C76.2374,106.1247,76.5386,100.0638,78.0617,98.3379Z" transform="translate(-63.40905 -77.61141)"/><path class="cls-3" d="M82.3219,113.0405l.0413-.071a10.13142,10.13142,0,0,0-1.5225,4.3119,18.37784,18.37784,0,0,1-2.2528-5.431,11.08676,11.08676,0,0,1,.6467-6.0528c.1594-.3637.3757-.9031.8143-.9924.4908-.0999.6085.2221.6737.6172.0585.3364.044.6809.1078,1.016a11.841,11.841,0,0,0,.3774,1.2834,16.31233,16.31233,0,0,0,1.2599,3.0407c.1763.3207.6796.9222.5551,1.2995-.114.3455-.478.5958-.6592.907l.0014-.0025-.0016.0026Z" transform="translate(-63.40905 -77.61141)"/><path class="cls-3" d="M87.0306,116.5178c-1.2974-1.2747-2.6139-2.5591-2.9068-4.4393a6.62206,6.62206,0,0,1,.1893-2.6846,11.75451,11.75451,0,0,1,.5256-1.5341,2.94244,2.94244,0,0,1,.8752-1.0016,6.22736,6.22736,0,0,0,2.6572,3.9083A8.14817,8.14817,0,0,0,87.0306,116.5178Z" transform="translate(-63.40905 -77.61141)"/><path class="cls-3" d="M92.119,121.986c-.4444-.0229-1.0463-.5504-1.401-.8055a8.46583,8.46583,0,0,1-1.1794-1.018,8.16346,8.16346,0,0,1-1.7205-2.7807,6.43388,6.43388,0,0,1-.3073-3.2259,8.63034,8.63034,0,0,1,.4538-1.7473,3.53258,3.53258,0,0,1,.9001-1.3119l.1283.0358c.513,1.8939,1.743,3.2975,3.9816,4.543A10.03636,10.03636,0,0,0,92.119,121.986Z" transform="translate(-63.40905 -77.61141)"/><path class="cls-3" d="M93.088,114.7189c.006.1687.012.3387.0184.5111a6.3097,6.3097,0,0,1-3.6456-4.0429c-.4456-1.6658-.4915-4.2294,1.1303-5.2624.2305,1.8188.6825,3.6193,1.0455,5.4174a1.5173,1.5173,0,0,0,1.1,1.2291c.5264.1465.3355,1.6836.3507,2.1269-.0039-.1107-.0182-.5168,0,.0013C93.0882,114.7249,93.0884,114.7286,93.088,114.7189Z" transform="translate(-63.40905 -77.61141)"/><path class="cls-3" d="M102.9508,121.2288a18.25448,18.25448,0,0,0,.5088,3.3386,9.588,9.588,0,0,1-4.721-3.8387,9.27886,9.27886,0,0,1-.973-7.1958,5.816,5.816,0,0,0,2.1545,2.6848,7.78065,7.78065,0,0,0,2.8526,1.0634c.2906.0656.3819.1978.2743.4828.0111-.0294.015-.0398,0,.0001A8.28012,8.28012,0,0,0,102.9508,121.2288Z" transform="translate(-63.40905 -77.61141)"/><path class="cls-3" d="M103.6676,96.7646c.3161.3369-.0044.7366-.1597,1.0691-.1928.4127-.3928.822-.5896,1.2329-.3753.7835-.7187,1.5761-1.0231,2.3896a12.94578,12.94578,0,0,0-.7616,2.6651c-.1235.8547-.1155,1.742-.1893,2.6044a9.2308,9.2308,0,0,1-1.1651-1.3715,6.38625,6.38625,0,0,1-.8956-1.5199,5.605,5.605,0,0,1-.1733-3.5005,4.66074,4.66074,0,0,1,1.8253-2.9258c.7105-.4698,2.4002-1.4211,3.1313-.6441-.0487-.0519-.0873-.093.0004.0004C103.8057,96.9116,103.729,96.8299,103.6676,96.7646Z" transform="translate(-63.40905 -77.61141)"/><path class="cls-3" d="M94.4079,83.9671c.1931-.2565,1.4428-.1039,1.754-.112.6101-.016,1.2201-.0318,1.8303-.0402a14.18548,14.18548,0,0,1,1.8421.0247c.5093.0602,1.0034.2038,1.5066.2977l.0049.0631a6.39256,6.39256,0,0,0-2.8652,1.5823,10.86224,10.86224,0,0,0-1.649,2.8768,7.008,7.008,0,0,1-1.6998-2.3513,11.35713,11.35713,0,0,1-.4932-1.3007c-.0634-.2001-.3717-.8526-.2308-1.0403-.0077.0103-.0127.0169,0,0C94.4388,83.9259,94.42,83.951,94.4079,83.9671Z" transform="translate(-63.40905 -77.61141)"/><path class="cls-3" d="M90.4946,88.5821a9.19215,9.19215,0,0,1,.3722-1.5561,4.552,4.552,0,0,1,.7598-1.1256,5.31409,5.31409,0,0,1,1.1437-.9764,4.41459,4.41459,0,0,0,1.0336-.6261l2.0582,4.23c-3.1965.4979-4.1502,3.0186-4.643,5.4524a4.77555,4.77555,0,0,1-.6624-2.1202,7.3672,7.3672,0,0,1-.0621-3.2775v-.0003C90.4989,88.5644,90.4984,88.5666,90.4946,88.5821Z" transform="translate(-63.40905 -77.61141)"/><path class="cls-3" d="M80.8394,97.5891a8.77719,8.77719,0,0,0,.8659,1.9769c.286.4888.7828.9968.3727,1.5606a6.7946,6.7946,0,0,0-.9098,1.3899,15.846,15.846,0,0,0-.4366,1.6648l-.096.0369a13.62274,13.62274,0,0,1-2.0364-5.0495,23.85806,23.85806,0,0,1,.0644-5.2502,3.40921,3.40921,0,0,1,1.129-2.569,12.619,12.619,0,0,0,1.165-1.2814q.2412-.2547.4825-.5093l.0603.0357a35.85069,35.85069,0,0,0-.7381,4.0293A9.11928,9.11928,0,0,0,80.8394,97.5891Z" transform="translate(-63.40905 -77.61141)"/><path class="cls-3" d="M82.4144,88.8287a8.49366,8.49366,0,0,1,2.393-1.7515l.0339.0417a7.40994,7.40994,0,0,0-.879,3.5407,12.0385,12.0385,0,0,0,1.0453,3.947,2.15466,2.15466,0,0,1,.2957,1.0493c-.0489.2336-.2963.3576-.4589.5112a5.16161,5.16161,0,0,0-.9654,1.2372,8.81334,8.81334,0,0,0-.8358,3.2926,4.55272,4.55272,0,0,1-1.2905-1.9279,7.24724,7.24724,0,0,1-.6286-2.0244,16.36172,16.36172,0,0,1,.3561-4.7599l-.0031.0202.0032-.021c.0133-.0867.0103-.0661.0001-.0006A6.691,6.691,0,0,1,82.4144,88.8287Z" transform="translate(-63.40905 -77.61141)"/><path class="cls-3" d="M83.9218,104.178a10.20321,10.20321,0,0,1-.2596-4.6492,5.19268,5.19268,0,0,1,2.131-3.5189,24.00731,24.00731,0,0,0,.5762,2.4438,24.19383,24.19383,0,0,0,.9916,2.2359,6.94284,6.94284,0,0,0-1.7811,5.7005A4.03511,4.03511,0,0,1,83.9218,104.178Z" transform="translate(-63.40905 -77.61141)"/><path class="cls-3" d="M88.8968,110.5087a5.55475,5.55475,0,0,1-2.0487-1.8427,5.42182,5.42182,0,0,1-.8382-2.7872,7.0736,7.0736,0,0,1,.4929-3.0259c.2739-.6995.6172-1.5657,1.3992-1.8167.0248.0213.0489.0432.0726.0658a7.88928,7.88928,0,0,0,1.3681,3.5973,5.58563,5.58563,0,0,1,.5936.7151c.1389.2799-.3111.6423-.4492.8507a3.39637,3.39637,0,0,0-.5839,1.7514C88.8742,108.8469,88.8957,109.678,88.8968,110.5087Z" transform="translate(-63.40905 -77.61141)"/><path class="cls-3" d="M90.6234,105.3832l-.1466.0333a11.43764,11.43764,0,0,1-1.0151-1.2846c.0252.0424.0299.0503-.0004-.0007-.8484-1.4278-.1366-.23-.0005-.0009a8.6294,8.6294,0,0,1-1.0476-5.4923c.2026-1.6437,1.079-3.5476,2.7504-4.0973a5.99445,5.99445,0,0,1,.0694,1.4826,9.76847,9.76847,0,0,0,.1664,1.674c.0972.545.2255,1.0836.3542,1.6217.07.293.2225.6737.0301.9521-.1038.1502-.3017.1695-.4019.3043a3.5697,3.5697,0,0,0-.2425.4035,4.08493,4.08493,0,0,0-.4355,1.2953A18.84272,18.84272,0,0,0,90.6234,105.3832Z" transform="translate(-63.40905 -77.61141)"/><path class="cls-3" d="M97.3404,99.93c.0902.4536.3479.9084.4024,1.3581l-5.1495-1.3296a4.6479,4.6479,0,0,1,.6837-1.9846,14.9135,14.9135,0,0,1,1.2286-1.9079c-.194.2649-.4026.5497.0035-.0051.3385-.4623.1792-.2447.0023-.0031a3.94171,3.94171,0,0,1,3.1994-1.9641,28.79614,28.79614,0,0,0-.5177,4.0691A8.49289,8.49289,0,0,0,97.3404,99.93Z" transform="translate(-63.40905 -77.61141)"/><path class="cls-3" d="M96.5296,90.8719a7.40562,7.40562,0,0,0,.6801,2.6353c-2.6906.9633-3.8151,3.208-5.0055,5.5836l-.027.054a10.96018,10.96018,0,0,1-.4848-3.8386,9.93431,9.93431,0,0,1,.3598-2.6617c.5365-1.8793,1.9578-3.6505,4.0936-3.6548l.0059-.0499h0v.0499c.4349,0,.6337.1395.5246.5836A5.05018,5.05018,0,0,0,96.5296,90.8719Z" transform="translate(-63.40905 -77.61141)"/><path class="cls-3" d="M86.7922,86.1856a7.24513,7.24513,0,0,0,2.5196,3.5789,6.60166,6.60166,0,0,0-3.5174,5.452c-.0312-.0119-.0618-.025-.0921-.0393a.62745.62745,0,0,1-.102-.152,10.13038,10.13038,0,0,1-1.0772-5.619C84.7543,87.9605,85.2653,86.6351,86.7922,86.1856Z" transform="translate(-63.40905 -77.61141)"/><path class="cls-3" d="M89.7447,90.1335l.8773,3.9506a6.7356,6.7356,0,0,0-2.8033,6.1448,2.83742,2.83742,0,0,1-.7361-.9936,8.93279,8.93279,0,0,1-.4905-5.6613A5.51622,5.51622,0,0,1,89.7447,90.1335Z" transform="translate(-63.40905 -77.61141)"/><path class="cls-3" d="M101.2623,84.6906c.4395-.1093,1.4086-.2987,1.7927.0167.3186.2615-.2624.9722-.3799,1.2493a4.09776,4.09776,0,0,0-.1494,3.3213l.3675.8149a8.26663,8.26663,0,0,0-3.0854,1.3723,11.49207,11.49207,0,0,0-2.0058,2.4451,16.81011,16.81011,0,0,1-.7788-3.0176,7.75673,7.75673,0,0,1,.6411-2.9483,5.12208,5.12208,0,0,1,3.597-3.2534l-.4945.1231c.1045-.026.2629-.0655.4948-.1232l.0544-.0135Z" transform="translate(-63.40905 -77.61141)"/><path class="cls-3" d="M104.2213,85.0855a3.56167,3.56167,0,0,1,1.1933.5477q.57405.3084,1.1442.6242a20.93857,20.93857,0,0,1,2.3958,1.4921,6.7283,6.7283,0,0,0-3.204.7769,6.878,6.878,0,0,0-2.1258,2.0957c-.1602-.35-.3075-.7067-.4895-1.0462l-.014-.026.0139.0259a3.57775,3.57775,0,0,1-.3516-2.6054C102.942,86.3572,103.3981,85.0064,104.2213,85.0855Z" transform="translate(-63.40905 -77.61141)"/><path class="cls-3" d="M103.5256,90.9743a7.89509,7.89509,0,0,0-.066,4.9205,6.71048,6.71048,0,0,0-3.8447,1.6824,5.542,5.542,0,0,0-1.5469,3.0149,3.699,3.699,0,0,1-.3674-1.7417,13.18586,13.18586,0,0,1,.0078-1.6961,7.49354,7.49354,0,0,1,.4486-2.7307,7.11247,7.11247,0,0,1,1.6709-2.4114,4.55232,4.55232,0,0,1,2.676-1.2802A2.367,2.367,0,0,1,103.5256,90.9743Z" transform="translate(-63.40905 -77.61141)"/><path class="cls-3" d="M103.4939,116.84a2.22341,2.22341,0,0,1-1.4222-.1031,6.07092,6.07092,0,0,1-1.8118-.7757,4.55613,4.55613,0,0,1-2.0978-3.2217,6.44871,6.44871,0,0,1,.3665-3.877,3.92165,3.92165,0,0,1,1.2832-1.4574c.5422-.3754,1.2033-.5297,1.1848.3537l.0002-.0128-.0002.0129C100.9292,110.9402,102.3053,113.9625,103.4939,116.84Z" transform="translate(-63.40905 -77.61141)"/><path class="cls-3" d="M97.8484,120.2307c-1.5575-.1647-2.7592-1.7502-3.4518-3.0109a5.74022,5.74022,0,0,1-.8144-4.2268l3.754.1545c-.8156,1.8885-.2653,4.1721.2458,6.0628l-.0081-.03.0087.032.0003.0014C97.673,119.547,97.766,119.891,97.8484,120.2307Z" transform="translate(-63.40905 -77.61141)"/><path class="cls-3" d="M83.6686,111.8343l-.0694.0271c-1.6006-2.3942-3.1215-5.8305-2.1163-8.7288a5.64195,5.64195,0,0,1,.5309-1.1101c.1516-.2458.384-.7205.6603-.8385.5145-.2199.4497,1.2583.4859,1.5444a6.93813,6.93813,0,0,0,.5266,2.0629,8.39381,8.39381,0,0,0,1.4244,1.8895C83.778,108.0869,83.7353,110.0122,83.6686,111.8343Z" transform="translate(-63.40905 -77.61141)"/><path class="cls-3" d="M76.932,95.656c-.1614-.3576.2627-.9134.4396-1.1924.2516-.3971.551-.7591.8367-1.1315l.0335.0233-.2987,4.2749-.0357.0199c-.3292-.6621-.67-1.3189-.9748-1.9929l.0878.1943-.0884-.1955C76.9216,95.6327,76.9236,95.6372,76.932,95.656Z" transform="translate(-63.40905 -77.61141)"/><path class="cls-3" d="M91.5052,84.5631c.4009-.1204,1.1622-.5159,1.57-.4004a5.79324,5.79324,0,0,0-3.1444,5.3733,5.31941,5.31941,0,0,1-2.567-3.0354c-.191-.5409.1352-.7422.6052-.88q.84585-.24825,1.6899-.5022Q90.58245,84.8415,91.5052,84.5631Z" transform="translate(-63.40905 -77.61141)"/><path class="cls-3" d="M110.9056,89.5286s-5.2045,3.8836-6.7167,6.8742c-.7607-2.149-1.0649-4.8812.674-6.6562a4.72684,4.72684,0,0,1,2.5009-1.352C110.0931,87.8994,110.9056,89.5286,110.9056,89.5286Z" transform="translate(-63.40905 -77.61141)"/><path class="cls-3" d="M105.3789,126.0711c-.5835,0-1.2373-1.1597-1.4497-1.6212a8.25157,8.25157,0,0,1-.5438-2.3167,15.8487,15.8487,0,0,1-.1348-2.4872,9.28455,9.28455,0,0,1,.3971-2.1756l.1079.0015a38.89522,38.89522,0,0,0,4.6482,7.2088c-.5678.2748-1.134.5532-1.7026.8263A3.97581,3.97581,0,0,1,105.3789,126.0711Z" transform="translate(-63.40905 -77.61141)"/><path class="cls-3" d="M102.1769,127.3993a4.84132,4.84132,0,0,1,1.1758-1.5327c.1772-.1525.3884-.3784.6396-.3784.2351,0,.4854.4698.6118.6375l.0001.0002.0021.0027-.002-.0026c.0556.0738.1133.1501.174.2292Z" transform="translate(-63.40905 -77.61141)"/><path class="cls-3" d="M90.1312,124.7116a4.66617,4.66617,0,0,1,1.9456-2.031,27.85234,27.85234,0,0,0,1.5662,4.0106c.3334.611.9849,1.8384,1.8447,1.7247l-.0761-.0783a10.83522,10.83522,0,0,1-2.8622-6.2558,13.88814,13.88814,0,0,1,.0035-3.6975,3.72381,3.72381,0,0,1,.8487-2.2766c.8962,1.9272,2.031,3.8027,4.1996,4.5608a27.90135,27.90135,0,0,0-1.4651,3.5009,8.72352,8.72352,0,0,0-.342,2.5031,2.80154,2.80154,0,0,0,.339,1.7092c.3885-.4261.2342-.8697.1979-1.4306a7.38364,7.38364,0,0,1,.1398-2.1622,13.71483,13.71483,0,0,1,.7828-2.2482,7.29683,7.29683,0,0,1,.43-.9762,7.61791,7.61791,0,0,1,.6416-.7783,10.70381,10.70381,0,0,0,5.1651,4.2863.83811.83811,0,0,1-.0537.1148q-.4947.5547-.9895,1.1093c-.6103.6814-1.0892,1.3979-2.0075,1.6221a19.24747,19.24747,0,0,1-4.5489.6241,18.59085,18.59085,0,0,1-3.1941-.3331,11.82864,11.82864,0,0,1-3.3307-.8853C88.7339,126.9947,89.8931,125.1037,90.1312,124.7116Z" transform="translate(-63.40905 -77.61141)"/><path class="cls-3" d="M84.3831,124.26c.0769-.5313.1756-1.0592.2709-1.5874a10.94854,10.94854,0,0,1,2.6046-5.6388,9.27637,9.27637,0,0,0,4.446,5.2231,8.819,8.819,0,0,0-3.069,4.8489c-1.116-.6015-2.2345-1.1979-3.3454-1.8087C84.8036,125.0294,84.2907,124.8983,84.3831,124.26Z" transform="translate(-63.40905 -77.61141)"/><path class="cls-3" d="M82.1196,123.2924a2.886,2.886,0,0,1-.757-.5722,4.12592,4.12592,0,0,1-.2234-1.894c.008-.7115.0367-1.4226.0725-2.1332.1166-2.31.5572-4.8714,2.4382-6.4537.1345.3885.2177.796.3888,1.1714a6.30987,6.30987,0,0,0,.7914,1.1514c.5275.6882,1.0848,1.3525,1.6431,2.0157.0515.0613.0395.047.0002.0004.4747.5648-.5114,1.3194-.8127,1.8199a10.91569,10.91569,0,0,0-.8598,1.8578,15.32064,15.32064,0,0,0-.6098,2.141c-.1469.6971-.1822,1.4255-.3701,2.1105q-.412-.29385-.824-.5877Q82.558,123.6065,82.1196,123.2924Z" transform="translate(-63.40905 -77.61141)"/><path class="cls-3" d="M79.1387,117.6797a6.04472,6.04472,0,0,1,1.6966-.3165,36.80791,36.80791,0,0,0-.0527,4.8091l-.1156.0965c-.0129-.0278-.0254-.0559-.0378-.0841.0014.0034.002.0047-.0003-.0006a10.62793,10.62793,0,0,0-1.4198-1.9389,4.6943,4.6943,0,0,1-1.0385-1.5743C78.0666,118.1807,78.785,117.8333,79.1387,117.6797Z" transform="translate(-63.40905 -77.61141)"/><path class="cls-3" d="M75.7302,113.3515c.0374-.4645.2988-.8724.3445-1.3494a3.18876,3.18876,0,0,1,.2823-1.088,3.84673,3.84673,0,0,1,1.6529-1.6393,12.94612,12.94612,0,0,0,2.282,7.689,3.29774,3.29774,0,0,0-2.5048,1.1105,9.7037,9.7037,0,0,1-1.2548-2.1986c-.185-.4412-.3287-.8977-.5141-1.3385A2.57018,2.57018,0,0,1,75.7302,113.3515Z" transform="translate(-63.40905 -77.61141)"/><path class="cls-3" d="M75.1067,106.4164l.0542-.0762a2.1774,2.1774,0,0,1,1.27-1.0536,12.5114,12.5114,0,0,0,.8361,3.0397l.0017.0038-.0017-.0038a.72648.72648,0,0,1-.2154,1.0265,4.27492,4.27492,0,0,0-.9532.9924,6.28533,6.28533,0,0,0-.6584,2.4218,2.78541,2.78541,0,0,1-.2491-.7774c-.1629-.66-.3258-1.32-.4811-1.9818A4.14167,4.14167,0,0,1,75.1067,106.4164Z" transform="translate(-63.40905 -77.61141)"/><path class="cls-3" d="M74.8521,100.9478a12.35055,12.35055,0,0,0,1.3893,3.557c.0022.0041.002.0037,0,0a.38092.38092,0,0,1-.0504.2976,4.82456,4.82456,0,0,0-1.8071,1.8217A23.5091,23.5091,0,0,1,74.8521,100.9478Z" transform="translate(-63.40905 -77.61141)"/><path class="cls-4" d="M69.2518,106.5357c.0221-.0034.0271-.0042,0,0Z" transform="translate(-63.40905 -77.61141)"/><path class="cls-4" d="M91.2784,107.7586a6.46667,6.46667,0,0,1-.1448-.9435l7.686.5992c-.1806.34-.3835.6715-.564,1.0134a27.77231,27.77231,0,0,0-3.7717-.2486,20.09014,20.09014,0,0,1-2.3222-.0432C91.9198,108.1057,91.3619,108.0593,91.2784,107.7586Z" transform="translate(-63.40905 -77.61141)"/><path class="cls-4" d="M91.7299,108.5463c1.0161,0,2.0367.0664,3.0525.096.4492.0131,2.4717.4698,3.1143.6173a5.74492,5.74492,0,0,0-.1814.7849,11.51208,11.51208,0,0,0-2.9124-.0154c-1.001.0276-2.0002.0532-3.0015.0519C91.7139,109.726,91.2126,108.5463,91.7299,108.5463Z" transform="translate(-63.40905 -77.61141)"/><path class="cls-4" d="M91.0726,106.3064v-1.5413c.8045.1077,1.6074.0963,2.4167.1372.8257.0418,1.5723.2983,2.379.4106a15.31646,15.31646,0,0,1,2.0414.4738,5.32194,5.32194,0,0,1,2.1053.7252c-.0197-.0192-.0672-.0659.0001.0001.0405.0397.0849.0833.1363.1297a2.362,2.362,0,0,1-.83.3187C96.5722,106.8416,93.8158,106.5304,91.0726,106.3064Z" transform="translate(-63.40905 -77.61141)"/><path class="cls-4" d="M91.11,102.9946c.3456-.0013.6919-.0215,1.037.0036-.0064-.0005-.0068-.0005.0002,0,.4392.032.6381.0465.6962.0508l-.685-.05a27.74442,27.74442,0,0,1,4.8334.6426,3.29306,3.29306,0,0,1,2.418,2.0236,2.83892,2.83892,0,0,1-.9378-.2364q-.633-.1731-1.2709-.3278c-.9027-.2175-1.8141-.4009-2.7335-.5322-.9672-.1381-1.9286-.1776-2.9024-.2251C90.8032,104.3064,91.0517,103.5569,91.11,102.9946Z" transform="translate(-63.40905 -77.61141)"/><path class="cls-4" d="M98.1829,103.579a21.46017,21.46017,0,0,0-7.0543-1.0458c.088-.3842.0752-1.069.6113-1.069a18.92077,18.92077,0,0,1,2.0937.2623c1.329.1537,2.6517.3576,3.9718.5735C98.2777,102.3773,98.1558,103.2276,98.1829,103.579Z" transform="translate(-63.40905 -77.61141)"/><path class="cls-4" d="M94.5306,100.9287c.78.195,1.552.4148,2.3257.6328l-.0289.1161-5.0526-.6629-.0012-.1224C92.4544,100.244,93.7528,100.7343,94.5306,100.9287Z" transform="translate(-63.40905 -77.61141)"/><path class="cls-4" d="M93.2463,112.2944l.0164-.0728,4.3143-.4113.1451.8951a3.1356,3.1356,0,0,0-1.3722.0338,8.8199,8.8199,0,0,1-1.8373-.1191c.1071.0146.3132.0425-.0194-.0026-.0505-.0068-.0375-.005-.0016-.0002A4.91422,4.91422,0,0,1,93.2463,112.2944Z" transform="translate(-63.40905 -77.61141)"/><path class="cls-4" d="M92.2604,111.6602c-.2312-.1813-.2583-.7112-.3012-.9713a14.97644,14.97644,0,0,1,2.8564-.1592q.846-.0279,1.6917-.0604a6.76728,6.76728,0,0,0,1.1359.0583c-.0329.2417-.064.4837-.1043.7233a27.7952,27.7952,0,0,1-4.0822.3995C93.1706,111.6722,92.5068,111.8535,92.2604,111.6602Z" transform="translate(-63.40905 -77.61141)"/><path class="cls-4" d="M76.7758,94.7355l-.026.0321.0259-.032c-.1893.2336-.3509.4878-.5229.7339a7.59205,7.59205,0,0,1-1.7427-1.383c-.2815-.3169-1.0075-1.2255-.1803-1.3837C75.1156,92.5525,77.5717,93.7531,76.7758,94.7355Z" transform="translate(-63.40905 -77.61141)"/><path class="cls-4" d="M79.2386,87.8988a2.87526,2.87526,0,0,1,.7421,1.7721,2.178,2.178,0,0,1-.9121,1.2062,11.91754,11.91754,0,0,1-2.5876-3.9423c-.3128-.834.6574-.7887,1.1707-.4924A5.0494,5.0494,0,0,1,79.2386,87.8988Z" transform="translate(-63.40905 -77.61141)"/><path class="cls-4" d="M84.0606,82.7857a5.73,5.73,0,0,1,.8838,1.8452c.1119.424.4292,1.5868-.0146,1.896-.4397.3063-.9874.5239-1.4541.7984-.3391-.996-.675-1.9931-1.0204-2.987-.1305-.375-1.0133-2.7972-.235-2.8885a4.299,4.299,0,0,1,1.1257.4923A3.99031,3.99031,0,0,1,84.0606,82.7857Z" transform="translate(-63.40905 -77.61141)"/><path class="cls-4" d="M91.2956,84.0349c-.2875.3548-.9514.3047-1.3549.4115q-.054-.0201-.1084-.0393a25.76675,25.76675,0,0,1-.4943-3.3786,4.98611,4.98611,0,0,1,.1081-1.5656c.1088-.3304.4886-.3431.7788-.354l.0747-.003.0033-.0496h0v.0496c.4383,0,.7517,1.1769.8477,1.4866a5.53778,5.53778,0,0,1,.2466,1.8485C91.3808,82.8698,91.5859,83.6766,91.2956,84.0349Z" transform="translate(-63.40905 -77.61141)"/><path class="cls-4" d="M99.1763,81.5416c-.0901.4016-.1726,1.5441-.5519,1.7473a3.34321,3.34321,0,0,1-1.27.0465.478.478,0,0,1-.3852-.121c-.2225-.2731.0941-1.0706.1524-1.3803.0996-.5277.1993-1.0557.3222-1.5787.2318-.9857,1.1588-2.1327,1.5412-2.0963C99.3676,78.1956,99.7876,78.8151,99.1763,81.5416Z" transform="translate(-63.40905 -77.61141)"/><path class="cls-4" d="M105.2146,82.8991c-.2752.5996-1.0855,2.2074-1.9258,1.3348.0308.0321.0862.0896-.0002-.0001-.0266-.0276-.017-.0178,0-.0001-.257-.2671.2827-1.2354.3886-1.497.2106-.5195.4442-1.0334.7008-1.5319a2.46114,2.46114,0,0,1,1.0849-1.2217C105.8858,79.8154,106.0758,81.0228,105.2146,82.8991Z" transform="translate(-63.40905 -77.61141)"/><path class="cls-4" d="M110.0931,87.8994a9.13862,9.13862,0,0,1-1.1914-.6813,3.95122,3.95122,0,0,0,.7099-.9395c.2314-.3726.4614-.746.6936-1.118.3829-.6137,1.523-2.6081,2.0489-1.6527.4629.841-.1025,1.7424-.5658,2.5683a8.86238,8.86238,0,0,1-1.0257,1.4406C110.5908,87.7159,110.3919,88.0362,110.0931,87.8994Z" transform="translate(-63.40905 -77.61141)"/><path class="cls-4" d="M99.5246,130.913a15.85087,15.85087,0,0,1,.583-2.0482.99106.99106,0,0,1,1.1508-.565l.0002.0024c.001.025,0-.0008,0,0a.1626.1626,0,0,1-.005.0665,7.64557,7.64557,0,0,1-1.6648,2.5939Z" transform="translate(-63.40905 -77.61141)"/><path class="cls-4" d="M98.0962,130.9601c.1877-.5123.3931-1.0182.5532-1.5402.2155-.6982.2215-.7173,1.0682-.7851-.209.6709-.4093,1.3446-.632,2.0112C98.9223,131.1351,98.5154,131.2114,98.0962,130.9601Z" transform="translate(-63.40905 -77.61141)"/><path class="cls-4" d="M97.3864,129.2916a.92947.92947,0,0,1,.9432-.3398c-.1265.3331-.496,1.9164-.907,1.9164C96.8162,130.6918,97.1471,129.6663,97.3864,129.2916Z" transform="translate(-63.40905 -77.61141)"/><path class="cls-4" d="M80.4533,125.5146l1.0241-2.0737.5873.4191c-.2741.4231-.8284,1.6887-1.4211,1.6888A.55051.55051,0,0,1,80.4533,125.5146Z" transform="translate(-63.40905 -77.61141)"/><path class="cls-4" d="M80.0266,124.2562c.2868-.4273.5337-.8847.7962-1.3273.0319.1534.0268.2011.0141.1968-.0046.6207-.329,2.0243-.8707,2.0243C79.366,125.15,79.8944,124.4531,80.0266,124.2562Z" transform="translate(-63.40905 -77.61141)"/><path class="cls-4" d="M80.4609,122.6506l-1.0736,1.824A2.01167,2.01167,0,0,1,80.4609,122.6506Z" transform="translate(-63.40905 -77.61141)"/><path class="cls-4" d="M71.0366,104.8326a33.99237,33.99237,0,0,0-6.564-3.9113c.8057-1.3816,2.717.0434,3.4782.7668,1.0629,1.0101,2.06,2.0921,3.127,3.1028Z" transform="translate(-63.40905 -77.61141)"/><path class="cls-4" d="M65.5941,111.294l4.8255-3.1691a12.65428,12.65428,0,0,1-1.8929,2.3347c-.662.536-1.6344,1.0488-1.9231,1.8623.3044-.004.4125.0444.6553-.1718q.5451-.4854,1.0851-.9764a11.18332,11.18332,0,0,0,1.759-1.8348l.0511-.074a5.864,5.864,0,0,1-1.962,2.9577A1.65451,1.65451,0,0,1,65.5941,111.294Z" transform="translate(-63.40905 -77.61141)"/><path class="cls-4" d="M65.3024,109.2804a5.25331,5.25331,0,0,1,1.2552-.5248c1.362-.5142,2.7232-1.0214,4.058-1.6028l.0381.0732a22.73134,22.73134,0,0,1-5.2811,3.397C65.1637,110.2182,64.8269,109.6236,65.3024,109.2804Z" transform="translate(-63.40905 -77.61141)"/><polygon class="cls-4" points="1.473 30.154 6.214 29.383 6.244 29.505 1.694 31.103 1.473 30.154"/><path class="cls-4" d="M64.0974,105.8404l6.8192.3308.0105.0885a11.86478,11.86478,0,0,1-1.6937.2788l.0077-.0012-.0082.0013-.2047.0315.201-.0309c-.8675.1335-1.7343.2709-2.6013.407q-.63105.099-1.2622.1967c-.0803.0123-.5858.1617-.6786.0297C64.474,106.7361,64.2894,106.2863,64.0974,105.8404Z" transform="translate(-63.40905 -77.61141)"/><path class="cls-4" d="M63.955,103.6821l6.0659,1.8151-.0147.076a16.99344,16.99344,0,0,1-2.2948-.0671q-1.16775-.0534-2.3355-.1084c-.3003-.0142-1.1045.0953-1.3103-.2222C63.8221,104.7996,63.9536,104.0995,63.955,103.6821Z" transform="translate(-63.40905 -77.61141)"/><path class="cls-4" d="M63.9154,103.1091c.0397-.3112.0054-1.7087.5062-1.6035a8.95312,8.95312,0,0,1,2.245,1.0408,31.02668,31.02668,0,0,1,3.7796,2.4589l-.0881-.0676.0886.068c.0806.0618.1613.1237.2424.1849Z" transform="translate(-63.40905 -77.61141)"/><path class="cls-4" d="M63.7778,101.0858l-.0611.208-.1509.5125C63.5876,101.7327,63.7686,101.1171,63.7778,101.0858Z" transform="translate(-63.40905 -77.61141)"/><path d="M109.3483,101.7223a1.49833,1.49833,0,0,1-1.4237-1.009,1.14944,1.14944,0,0,1,.8676-1.11,1.23294,1.23294,0,0,1,1.2764,1.1122C110.1107,101.3145,109.8339,101.7015,109.3483,101.7223Z" transform="translate(-63.40905 -77.61141)"/><path class="cls-5" d="M76.7701,88.5196c.3655.5099.7122,1.0333,1.0911,1.5333a4.618,4.618,0,0,1,.8588,1.2005c.1347.4158-.1623.8256-.3861,1.1491-.3183.4599-.6439.9146-.9666,1.3714l-2.3842-1.6725A7.2355,7.2355,0,0,0,76.7701,88.5196Z" transform="translate(-63.40905 -77.61141)"/><path class="cls-5" d="M81.7703,83.5182l1.3316,4.0603c-.8306.5907-1.4498,1.6542-2.5483,1.7647l-1.6532-2.7019a4.99912,4.99912,0,0,0,2.8057-3.1352Z" transform="translate(-63.40905 -77.61141)"/><path class="cls-5" d="M89.3844,84.5913l-3.822,1.54a7.09115,7.09115,0,0,0-1.1957-3.7283,9.714,9.714,0,0,0,4.4634-1.7183Z" transform="translate(-63.40905 -77.61141)"/><path class="cls-5" d="M97.0561,79.5904c-.1645.9161-.3248,1.833-.4965,2.7478-.0558.2962-.0326.9359-.4337.9952q-.7614.11265-1.5242.2159-.75465.1035-1.5094.2063c-.2532.035-.9333.2689-1.1539.0842-.22-.1841-.1461-.869-.1705-1.1281-.0383-.4057-.0806-.8109-.123-1.2162a5.37832,5.37832,0,0,1-.0838-1.2071C93.4423,81.192,95.3034,80.3896,97.0561,79.5904Z" transform="translate(-63.40905 -77.61141)"/><path class="cls-5" d="M104.1676,80.6044q-.6957,1.52265-1.388,3.0467c-.267.589-1.0779.082-1.5385-.0152q-.752-.1587-1.5083-.2934c.0753.0135.2645.0475-.0024-.0004-.1408-.0253-.2804-.0504-.4178-.0757l.5728-2.9544A6.664,6.664,0,0,0,104.1676,80.6044Z" transform="translate(-63.40905 -77.61141)"/><path class="cls-5" d="M110.4543,84.2081a19.35631,19.35631,0,0,0-1.8317,2.8245c-.351-.2361-.6977-.4766-1.0452-.6923-.9441-.5861-1.8805-1.144-2.8768-1.6351l1.3427-2.7329C107.3157,83.1512,108.5846,84.3564,110.4543,84.2081Z" transform="translate(-63.40905 -77.61141)"/></svg>