<svg id="layer" xmlns="http://www.w3.org/2000/svg" viewBox="0 0 18.51689 19.37936"><defs><style>.cls-1{fill:#fff;}.cls-2{fill:#ead8ca;}</style></defs><title>st-jacques</title><path d="M267.34536,111.49c.1187-.0488.2755-.1017.4217-.1759a1.098,1.098,0,0,1,1.0425-.1532,1.573,1.573,0,0,1,.8155,1.1285,4.29312,4.29312,0,0,1,.0324.5425,2.0561,2.0561,0,0,1,1.3088.5167,1.474,1.474,0,0,1,.5849,1.2657,2.53587,2.53587,0,0,1,1.3494,1.4549,2.43471,2.43471,0,0,1-.0412,1.9099,3.07891,3.07891,0,0,1,.2675,1.8908,17.59421,17.59421,0,0,1-.569,1.8098,3.55746,3.55746,0,0,1-.2948,2.973,1.72611,1.72611,0,0,1-.8166.8325c-.7743.4052-1.5468.8143-2.3277,1.2065a18.99186,18.99186,0,0,1-3.1712,1.1615c-.6482.1919-1.2874.4146-1.9363.604a3.61484,3.61484,0,0,1-.909.1744.81924.81924,0,0,0-.7077.375,3.18588,3.18588,0,0,1-.3319.3841.5682.5682,0,0,1-.7615.1349,2.02188,2.02188,0,0,1-.3665-.21c-.7283-.5334-1.4371-1.0949-2.1823-1.6033-1.0512-.7169-1.9731-1.5932-2.9849-2.3579a6.65952,6.65952,0,0,1-.8565-.8125.60976.60976,0,0,1-.0469-.8473c.0676-.0903.1218-.1909.1919-.279a.84313.84313,0,0,0,.1378-.7866,14.94812,14.94812,0,0,1-.3077-1.9173,26.46586,26.46586,0,0,1-.204-3.9673,11.39832,11.39832,0,0,1,.1706-1.6829,6.397,6.397,0,0,1,1.3491-2.8799,1.84307,1.84307,0,0,1,1.4239-.6518,3.25378,3.25378,0,0,0,1.7877-.6027,5.00134,5.00134,0,0,1,1.8331-.6233,2.73,2.73,0,0,1,1.6613.126.94014.94014,0,0,0,.7346.0189,3.11,3.11,0,0,1,3.51.9294A.978.978,0,0,0,267.34536,111.49Z" transform="translate(-254.6621 -110.2342)"/><path class="cls-1" d="M259.38526,125.33258c.2384-.2053.407-.3508.5761-.4959a22.791,22.791,0,0,0,1.8135-2.008,36.13073,36.13073,0,0,0,2.684-3.3791c.775-1.0766,1.5217-2.1736,2.3027-3.2458.615-.8443,1.2732-1.6571,1.8909-2.4995a5.081,5.081,0,0,0,.5398-.9544.94832.94832,0,0,0-.3197-1.1368.73739.73739,0,0,0-.9374-.0296,7.912,7.912,0,0,0-2.1924,1.5721,21.47666,21.47666,0,0,0-2.359,2.8819c-.9961,1.5408-2.0364,3.0516-2.9792,4.6288q-.93555,1.5651-1.7526,3.1876a1.30859,1.30859,0,0,0-.2047.868C258.71566,124.89658,259.01776,125.09338,259.38526,125.33258Z" transform="translate(-254.6621 -110.2342)"/><path class="cls-1" d="M260.55356,126.06878c.4278.5098.4654.5253.8636.3374.1526-.072.298-.1601.4439-.2454,1.3163-.769,2.5614-1.6449,3.8028-2.5269a46.689,46.689,0,0,0,5.4452-4.2834c.4263-.41.8314-.8422,1.243-1.2674a1.39036,1.39036,0,0,0,.3995-1.2422,3.57984,3.57984,0,0,0-.2538-.9757,1.23506,1.23506,0,0,0-1.1397-.7729,17.72458,17.72458,0,0,1-2.9503,3.579c-.4801.5152-.9865,1.0059-1.4763,1.5122-.4309.4455-.8322.9223-1.287,1.3416-1.2236,1.1279-2.4668,2.2348-3.7067,3.3451C261.49766,125.26438,261.04466,125.64428,260.55356,126.06878Z" transform="translate(-254.6621 -110.2342)"/><path class="cls-1" d="M262.91436,110.81108a1.57842,1.57842,0,0,0-1.2844-.2727,6.24562,6.24562,0,0,0-1.7839.5112,2.50669,2.50669,0,0,0-1.454,1.6556,24.143,24.143,0,0,0-.9722,4.7179c-.0662.6732-.1852,1.3417-.2946,2.01-.1592.9739-.3397,1.9444-.493,2.9192a3.84929,3.84929,0,0,0-.0222.8437.321.321,0,0,0,.2132.2211c.068.0124.2055-.0938.2356-.1755.4487-1.2163.881-2.4386,1.3256-3.6565.1351-.3703.2905-.7335.4458-1.0961.1769-.4131.3665-.8207.546-1.2328a14.88059,14.88059,0,0,1,.7822-1.7791,48.985,48.985,0,0,1,2.6739-4.4146A.8768.8768,0,0,0,262.91436,110.81108Z" transform="translate(-254.6621 -110.2342)"/><path class="cls-1" d="M262.41426,127.44958c.2299.3738.3568.6886.681.8721a3.98743,3.98743,0,0,0,.497-.0886c1.319-.4065,2.6385-.8121,3.9526-1.2339a22.15467,22.15467,0,0,0,3.6588-1.7398,1.83738,1.83738,0,0,0,.7554-.7792,4.01661,4.01661,0,0,0,.491-1.948.62888.62888,0,0,0-.3226-.6215,47.92813,47.92813,0,0,1-4.6529,2.9881A53.90609,53.90609,0,0,1,262.41426,127.44958Z" transform="translate(-254.6621 -110.2342)"/><path class="cls-2" d="M267.01206,111.67328a2.96314,2.96314,0,0,0-3.0039-1.0373,1.55367,1.55367,0,0,0-.7647.5062,7.9078,7.9078,0,0,0-.6679.8719q-1.18425,1.99815-2.3277,4.0207a10.34471,10.34471,0,0,0-.4558,1.0882c-.1524.3625-.3093.723-.4655,1.0839-.1341.3099-.2833.6141-.4028.9296-.4391,1.1591-.8637,2.3238-1.3043,3.4824a3.63987,3.63987,0,0,0-.2483,1.2693c.2045.1582.3539.4155.736.4129.1334-.2534.2831-.5212.4177-.7964a25.49368,25.49368,0,0,1,1.5827-2.8902c.6527-.9872,1.3047-1.9774,1.8998-2.9995a32.50988,32.50988,0,0,1,2.2744-3.2564,9.63956,9.63956,0,0,1,2.3228-2.3211A3.94576,3.94576,0,0,0,267.01206,111.67328Z" transform="translate(-254.6621 -110.2342)"/><path class="cls-2" d="M259.80866,125.56928c.1684.2839.3153.3278.4833.203.3623-.269.7308-.532,1.0725-.8257,1.0057-.8643,2.0003-1.7418,2.9974-2.6162.1267-.1113.2446-.2331.3624-.354.7858-.8079,1.5683-1.6191,2.3562-2.4249.8475-.867,1.7136-1.7162,2.5437-2.5994a10.62257,10.62257,0,0,0,1.0441-1.3314,5.86486,5.86486,0,0,0,.4701-.9888.65464.65464,0,0,0-.1065-.7155,2.92274,2.92274,0,0,0-.5293-.5367,1.03285,1.03285,0,0,0-1.4731.2924,11.18631,11.18631,0,0,1-1.2957,1.6676,8.49223,8.49223,0,0,0-.7149.9444c-.9001,1.2978-1.7925,2.6008-2.6891,3.9012a37.63357,37.63357,0,0,1-3.5139,4.2246C260.47276,124.77858,260.15406,125.17018,259.80866,125.56928Z" transform="translate(-254.6621 -110.2342)"/><path class="cls-2" d="M261.59536,126.80928a.42571.42571,0,0,0,.602.2794,15.16785,15.16785,0,0,0,1.7301-.6648c1.1835-.5926,2.3381-1.2425,3.5094-1.8598a31.9438,31.9438,0,0,0,4.4984-2.991,1.43814,1.43814,0,0,0,.4116-.414,3.78754,3.78754,0,0,0,.5038-2.1057.78911.78911,0,0,0-.327-.6788c-.1368.1268-.2605.2326-.3738.3485-.2747.281-.5309.5814-.8187.848a37.42074,37.42074,0,0,1-4.4821,3.5829c-.4654.3143-.9007.6728-1.3581.9994q-.6186.4416-1.2556.8571c-.8465.5552-1.6986,1.102-2.546,1.6559C261.64776,126.69358,261.62916,126.75608,261.59536,126.80928Z" transform="translate(-254.6621 -110.2342)"/><path class="cls-2" d="M258.30636,111.81688a1.99776,1.99776,0,0,0-1.9125.6809,5.78247,5.78247,0,0,0-1.2339,2.8344,17.84794,17.84794,0,0,0-.1266,2.443c.0041.8438.0631,1.6893.1415,2.5301.06.6436.1748,1.2832.29,1.9201a.68726.68726,0,0,0,.7185.593c.0327-.1488.0626-.2537.0783-.3607a23.16567,23.16567,0,0,1,.3538-2.3368,30.57035,30.57035,0,0,0,.5558-3.4176,19.99646,19.99646,0,0,1,.9692-4.2752C258.20776,112.24628,258.24336,112.05258,258.30636,111.81688Z" transform="translate(-254.6621 -110.2342)"/><path class="cls-2" d="M261.58956,129.29448a4.45813,4.45813,0,0,0,.381-.2334c.7511-.5954.727-.9791-.0071-1.5104-.432-.3126-.8889-.5907-1.3249-.8981-1.172-.8264-2.3433-1.6541-3.5053-2.4944-.4083-.2954-.785-.6341-1.1836-.9433a.326.326,0,0,0-.5103.0786,2.102,2.102,0,0,0-.375.9122,7.19013,7.19013,0,0,0,1.3712,1.2732c1.3676,1.2198,2.8666,2.2705,4.3364,3.358A7.28773,7.28773,0,0,0,261.58956,129.29448Z" transform="translate(-254.6621 -110.2342)"/></svg>